BlackWideLatin_decomp.ufo
<glyph name="exclam" format="1">
  <advance width="280.0"/>
  <unicode hex="0021"/>
  <outline>
    <contour>
      <point x="200.0" y="229" type="line"/>
      <point x="220.0" y="722" type="line"/>
      <point x="59.0" y="722" type="line"/>
      <point x="79.0" y="229" type="line"/>
    </contour>
    <contour>
      <point x="235.0" y="65"/>
      <point x="46.0" y="65"/>
      <point x="235.0" y="65" type="curve"/>
      <point x="235.0" y="117"/>
      <point x="194.0" y="141"/>
      <point x="139.0" y="141" type="curve"/>
      <point x="84.0" y="141"/>
      <point x="46.0" y="114"/>
      <point x="46.0" y="65" type="curve"/>
      <point x="235.0" y="65"/>
      <point x="46.0" y="65"/>
      <point x="235.0" y="65" type="curve"/>
      <point x="235.0" y="12"/>
      <point x="194.0" y="-10"/>
      <point x="138.0" y="-10" type="curve"/>
      <point x="83.0" y="-10"/>
      <point x="46.0" y="15"/>
      <point x="46.0" y="65" type="curve"/>
    </contour>
  </outline>
</glyph>
<glyph name="quotedbl" format="1">
  <advance width="500.0"/>
  <unicode hex="0022"/>
  <outline>
    <contour>
      <point x="208.0" y="610" type="line"/>
      <point x="218.0" y="846" type="line"/>
      <point x="38.0" y="846" type="line"/>
      <point x="48.0" y="610" type="line"/>
    </contour>
    <contour>
      <point x="452.0" y="610" type="line"/>
      <point x="462.0" y="846" type="line"/>
      <point x="282.0" y="846" type="line"/>
      <point x="292.0" y="610" type="line"/>
    </contour>
  </outline>
</glyph>
<glyph name="numbersign" format="1">
  <advance width="854.0"/>
  <unicode hex="0023"/>
  <outline>
    <contour>
      <point x="28.0" y="214" type="curve"/>
      <point x="692.0" y="214" type="curve"/>
      <point x="741.0" y="331" type="curve"/>
      <point x="79.0" y="331" type="curve"/>
    </contour>
    <contour>
      <point x="113.0" y="425" type="curve"/>
      <point x="783.0" y="425" type="curve"/>
      <point x="830.0" y="542" type="curve"/>
      <point x="161.0" y="542" type="curve"/>
    </contour>
    <contour>
      <point x="541.0" y="39" type="curve"/>
      <point x="823.0" y="722" type="curve"/>
      <point x="662.0" y="722" type="curve"/>
      <point x="380.0" y="39" type="curve"/>
    </contour>
    <contour>
      <point x="198.0" y="46" type="curve"/>
      <point x="477.0" y="722" type="curve"/>
      <point x="317.0" y="722" type="curve"/>
      <point x="44.0" y="46" type="curve"/>
    </contour>
  </outline>
</glyph>
<glyph name="dollar" format="1">
  <advance width="705.0"/>
  <unicode hex="0024"/>
  <outline>
    <contour>
      <point x="401.0" y="-38"/>
      <point x="240.0" y="-38"/>
      <point x="401.0" y="-38" type="curve"/>
      <point x="401.0" y="-9"/>
      <point x="401.0" y="70"/>
      <point x="401.0" y="100" type="curve"/>
      <point x="240.0" y="100"/>
      <point x="401.0" y="100"/>
      <point x="240.0" y="100" type="curve"/>
      <point x="240.0" y="70"/>
      <point x="240.0" y="-9"/>
      <point x="240.0" y="-38" type="curve"/>
    </contour>
    <contour>
      <point x="416.0" y="629"/>
      <point x="256.0" y="629"/>
      <point x="416.0" y="629" type="curve"/>
      <point x="416.0" y="658"/>
      <point x="416.0" y="744"/>
      <point x="416.0" y="773" type="curve"/>
      <point x="256.0" y="773"/>
      <point x="416.0" y="773"/>
      <point x="256.0" y="773" type="curve"/>
      <point x="256.0" y="744"/>
      <point x="256.0" y="658"/>
      <point x="256.0" y="629" type="curve"/>
    </contour>
    <contour>
      <point x="31.0" y="90"/>
      <point x="100.0" y="200"/>
      <point x="31.0" y="91" type="curve"/>
      <point x="112.0" y="64"/>
      <point x="207.0" y="41"/>
      <point x="313.0" y="41" type="curve"/>
      <point x="508.0" y="41"/>
      <point x="680.0" y="72"/>
      <point x="680.0" y="223" type="curve"/>
      <point x="680.0" y="353"/>
      <point x="534.0" y="384"/>
      <point x="387.0" y="426" type="curve"/>
      <point x="293.0" y="452"/>
      <point x="194.0" y="462"/>
      <point x="194.0" y="518" type="curve"/>
      <point x="194.0" y="569"/>
      <point x="264.0" y="572"/>
      <point x="339.0" y="572" type="curve"/>
      <point x="418.0" y="572"/>
      <point x="474.0" y="563"/>
      <point x="561.0" y="535" type="curve"/>
      <point x="626.0" y="636"/>
      <point x="561.0" y="535"/>
      <point x="626.0" y="636" type="curve"/>
      <point x="529.0" y="670"/>
      <point x="453.0" y="688"/>
      <point x="347.0" y="688" type="curve"/>
      <point x="176.0" y="688"/>
      <point x="33.0" y="652"/>
      <point x="33.0" y="518" type="curve"/>
      <point x="33.0" y="395"/>
      <point x="152.0" y="360"/>
      <point x="292.0" y="321" type="curve"/>
      <point x="395.0" y="292"/>
      <point x="519.0" y="285"/>
      <point x="519.0" y="217" type="curve"/>
      <point x="519.0" y="163"/>
      <point x="425.0" y="158"/>
      <point x="328.0" y="158" type="curve"/>
      <point x="249.0" y="158"/>
      <point x="178.0" y="176"/>
      <point x="100.0" y="199" type="curve"/>
    </contour>
  </outline>
</glyph>
<glyph name="percent" format="1">
  <advance width="1311.0"/>
  <unicode hex="0025"/>
  <outline>
    <contour>
      <point x="453.0" y="-31" type="line"/>
      <point x="1007.0" y="703" type="line"/>
      <point x="861.0" y="703" type="line"/>
      <point x="307.0" y="-31" type="line"/>
    </contour>
    <contour>
      <point x="82.0" y="480"/>
      <point x="121.0" y="480"/>
      <point x="178.0" y="480" type="curve"/>
      <point x="178.0" y="548"/>
      <point x="221.0" y="589"/>
      <point x="289.0" y="589" type="curve"/>
      <point x="359.0" y="590"/>
      <point x="403.0" y="548"/>
      <point x="403.0" y="478" type="curve"/>
      <point x="403.0" y="410"/>
      <point x="364.0" y="366"/>
      <point x="298.0" y="366" type="curve"/>
      <point x="225.0" y="366"/>
      <point x="178.0" y="408"/>
      <point x="178.0" y="480" type="curve"/>
      <point x="121.0" y="480"/>
      <point x="82.0" y="480"/>
      <point x="25.0" y="480" type="curve"/>
      <point x="25.0" y="330"/>
      <point x="133.0" y="249"/>
      <point x="290.0" y="249" type="curve"/>
      <point x="451.0" y="249"/>
      <point x="563.0" y="330"/>
      <point x="563.0" y="484" type="curve"/>
      <point x="563.0" y="631"/>
      <point x="452.0" y="705"/>
      <point x="296.0" y="706" type="curve"/>
      <point x="137.0" y="706"/>
      <point x="25.0" y="630"/>
      <point x="25.0" y="480" type="curve"/>
    </contour>
    <contour>
      <point x="805.0" y="192"/>
      <point x="844.0" y="192"/>
      <point x="901.0" y="192" type="curve"/>
      <point x="901.0" y="260"/>
      <point x="944.0" y="301"/>
      <point x="1012.0" y="301" type="curve"/>
      <point x="1082.0" y="302"/>
      <point x="1126.0" y="260"/>
      <point x="1126.0" y="190" type="curve"/>
      <point x="1126.0" y="122"/>
      <point x="1087.0" y="78"/>
      <point x="1021.0" y="78" type="curve"/>
      <point x="948.0" y="78"/>
      <point x="901.0" y="120"/>
      <point x="901.0" y="192" type="curve"/>
      <point x="844.0" y="192"/>
      <point x="805.0" y="192"/>
      <point x="748.0" y="192" type="curve"/>
      <point x="748.0" y="42"/>
      <point x="856.0" y="-39"/>
      <point x="1013.0" y="-39" type="curve"/>
      <point x="1174.0" y="-39"/>
      <point x="1286.0" y="42"/>
      <point x="1286.0" y="196" type="curve"/>
      <point x="1286.0" y="343"/>
      <point x="1175.0" y="417"/>
      <point x="1019.0" y="418" type="curve"/>
      <point x="860.0" y="418"/>
      <point x="748.0" y="342"/>
      <point x="748.0" y="192" type="curve"/>
    </contour>
  </outline>
</glyph>
<glyph name="ampersand" format="1">
  <advance width="897.0"/>
  <unicode hex="0026"/>
  <outline>
    <contour>
      <point x="864.0" y="87" type="line"/>
      <point x="739.0" y="174"/>
      <point x="584.0" y="286"/>
      <point x="455.0" y="380" type="curve"/>
      <point x="384.0" y="432"/>
      <point x="290.0" y="458"/>
      <point x="290.0" y="547" type="curve"/>
      <point x="290.0" y="589"/>
      <point x="327.0" y="610"/>
      <point x="373.0" y="610" type="curve"/>
      <point x="430.0" y="610"/>
      <point x="481.0" y="598"/>
      <point x="481.0" y="549" type="curve"/>
      <point x="480.0" y="466"/>
      <point x="395.0" y="453"/>
      <point x="313.0" y="422" type="curve"/>
      <point x="178.0" y="370"/>
      <point x="41.0" y="340"/>
      <point x="41.0" y="202" type="curve"/>
      <point x="41.0" y="48"/>
      <point x="192.0" y="-5"/>
      <point x="367.0" y="-5" type="curve"/>
      <point x="595.0" y="-5"/>
      <point x="760.0" y="104"/>
      <point x="856.0" y="311" type="curve"/>
      <point x="717.0" y="341"/>
      <point x="856.0" y="311"/>
      <point x="717.0" y="341" type="curve"/>
      <point x="648.0" y="194"/>
      <point x="535.0" y="112"/>
      <point x="374.0" y="112" type="curve"/>
      <point x="284.0" y="112"/>
      <point x="202.0" y="125"/>
      <point x="202.0" y="202" type="curve"/>
      <point x="202.0" y="289"/>
      <point x="294.0" y="296"/>
      <point x="379.0" y="329" type="curve"/>
      <point x="510.0" y="380"/>
      <point x="639.0" y="415"/>
      <point x="641.0" y="549" type="curve"/>
      <point x="641.0" y="677"/>
      <point x="522.0" y="727"/>
      <point x="381.0" y="727" type="curve"/>
      <point x="242.0" y="727"/>
      <point x="130.0" y="672"/>
      <point x="130.0" y="547" type="curve"/>
      <point x="130.0" y="427"/>
      <point x="246.0" y="379"/>
      <point x="346.0" y="310" type="curve"/>
      <point x="476.0" y="212"/>
      <point x="659.0" y="81"/>
      <point x="785.0" y="-12" type="curve"/>
    </contour>
  </outline>
</glyph>
<glyph name="quotesingle" format="1">
  <advance width="256.0"/>
  <unicode hex="0027"/>
  <outline>
    <contour>
      <point x="208.0" y="610" type="line"/>
      <point x="218.0" y="846" type="line"/>
      <point x="38.0" y="846" type="line"/>
      <point x="48.0" y="610" type="line"/>
    </contour>
  </outline>
</glyph>
<glyph name="parenleft" format="1">
  <advance width="475.0"/>
  <unicode hex="0028"/>
  <outline>
    <contour>
      <point x="473.625" y="-202"/>
      <point x="378.625" y="-284"/>
      <point x="473.625" y="-202" type="curve"/>
      <point x="288.625" y="-61"/>
      <point x="188.625" y="93"/>
      <point x="188.625" y="326" type="curve"/>
      <point x="188.625" y="560"/>
      <point x="287.625" y="713"/>
      <point x="472.625" y="858" type="curve"/>
      <point x="377.625" y="933"/>
      <point x="472.625" y="858"/>
      <point x="377.625" y="933" type="curve"/>
      <point x="158.625" y="768"/>
      <point x="30.625" y="600"/>
      <point x="30.625" y="326" type="curve"/>
      <point x="30.625" y="51"/>
      <point x="158.625" y="-117"/>
      <point x="378.625" y="-284" type="curve"/>
    </contour>
  </outline>
</glyph>
<glyph name="parenright" format="1">
  <advance width="490.25"/>
  <unicode hex="0029"/>
  <outline>
    <contour>
      <point x="93.875" y="-297"/>
      <point x="-1.125" y="-222"/>
      <point x="93.875" y="-297" type="curve"/>
      <point x="317.875" y="-122"/>
      <point x="458.875" y="45"/>
      <point x="458.875" y="329" type="curve"/>
      <point x="458.875" y="606"/>
      <point x="324.875" y="773"/>
      <point x="98.875" y="936" type="curve"/>
      <point x="3.875" y="854"/>
      <point x="98.875" y="936"/>
      <point x="3.875" y="854" type="curve"/>
      <point x="193.875" y="711"/>
      <point x="300.875" y="560"/>
      <point x="300.875" y="324" type="curve"/>
      <point x="300.875" y="83"/>
      <point x="184.875" y="-68"/>
      <point x="-1.125" y="-222" type="curve"/>
    </contour>
  </outline>
</glyph>
<glyph name="asterisk" format="1">
  <advance width="555.0"/>
  <unicode hex="002A"/>
  <outline>
    <contour>
      <point x="332.0" y="610" type="line"/>
      <point x="339.0" y="846" type="line"/>
      <point x="213.0" y="846" type="line"/>
      <point x="220.0" y="610" type="line"/>
    </contour>
    <contour>
      <point x="296.0" y="557" type="line"/>
      <point x="520.0" y="631" type="line"/>
      <point x="477.0" y="750" type="line"/>
      <point x="257.0" y="663" type="line"/>
    </contour>
    <contour>
      <point x="233.0" y="574" type="line"/>
      <point x="380.0" y="389" type="line"/>
      <point x="476.0" y="470" type="line"/>
      <point x="319.0" y="646" type="line"/>
    </contour>
    <contour>
      <point x="233.0" y="646" type="line"/>
      <point x="76.0" y="470" type="line"/>
      <point x="173.0" y="389" type="line"/>
      <point x="319.0" y="574" type="line"/>
    </contour>
    <contour>
      <point x="295.0" y="663" type="line"/>
      <point x="76.0" y="750" type="line"/>
      <point x="33.0" y="632" type="line"/>
      <point x="257.0" y="558" type="line"/>
    </contour>
  </outline>
</glyph>
<glyph name="plus" format="1">
  <advance width="670.0"/>
  <unicode hex="002B"/>
  <outline>
    <contour>
      <point x="32.0" y="249"/>
      <point x="32.0" y="377"/>
      <point x="32.0" y="249" type="curve"/>
      <point x="32.0" y="249"/>
      <point x="638.0" y="249"/>
      <point x="638.0" y="249" type="curve"/>
      <point x="638.0" y="377"/>
      <point x="638.0" y="249"/>
      <point x="638.0" y="377" type="curve"/>
      <point x="638.0" y="377"/>
      <point x="32.0" y="377"/>
      <point x="32.0" y="377" type="curve"/>
    </contour>
    <contour>
      <point x="425.0" y="18"/>
      <point x="255.0" y="18"/>
      <point x="415.0" y="18" type="curve"/>
      <point x="415.0" y="18"/>
      <point x="415.0" y="588"/>
      <point x="415.0" y="588" type="curve"/>
      <point x="255.0" y="588"/>
      <point x="425.0" y="588"/>
      <point x="265.0" y="588" type="curve"/>
      <point x="265.0" y="588"/>
      <point x="265.0" y="18"/>
      <point x="265.0" y="18" type="curve"/>
    </contour>
  </outline>
</glyph>
<glyph name="comma" format="1">
  <advance width="267.0"/>
  <unicode hex="002C"/>
  <outline>
    <contour>
      <point x="11.0" y="-123" type="line"/>
      <point x="134.0" y="-123"/>
      <point x="221.0" y="-48"/>
      <point x="221.0" y="62" type="curve"/>
      <point x="221.0" y="143"/>
      <point x="177.0" y="208"/>
      <point x="108.0" y="208" type="curve"/>
      <point x="55.0" y="208"/>
      <point x="15.0" y="182"/>
      <point x="15.0" y="132" type="curve"/>
      <point x="15.0" y="80"/>
      <point x="57.0" y="54"/>
      <point x="115.0" y="54" type="curve"/>
      <point x="113.0" y="6"/>
      <point x="93.0" y="-32"/>
      <point x="11.0" y="-41" type="curve"/>
    </contour>
  </outline>
</glyph>
<glyph name="hyphen" format="1">
  <advance width="479.0"/>
  <unicode hex="002D"/>
  <outline>
    <contour>
      <point x="50.0" y="220"/>
      <point x="50.0" y="349"/>
      <point x="50.0" y="220" type="curve"/>
      <point x="176.0" y="220"/>
      <point x="303.0" y="220"/>
      <point x="429.0" y="220" type="curve"/>
      <point x="429.0" y="349"/>
      <point x="429.0" y="220"/>
      <point x="429.0" y="349" type="curve"/>
      <point x="303.0" y="349"/>
      <point x="176.0" y="349"/>
      <point x="50.0" y="349" type="curve"/>
    </contour>
  </outline>
</glyph>
<glyph name="period" format="1">
  <advance width="276.65"/>
  <unicode hex="002E"/>
  <outline>
    <contour>
      <point x="232.7" y="65"/>
      <point x="43.7" y="65"/>
      <point x="232.7" y="65" type="curve"/>
      <point x="232.7" y="117"/>
      <point x="191.7" y="141"/>
      <point x="136.7" y="141" type="curve"/>
      <point x="81.7" y="141"/>
      <point x="43.7" y="114"/>
      <point x="43.7" y="65" type="curve"/>
      <point x="232.7" y="65"/>
      <point x="43.7" y="65"/>
      <point x="232.7" y="65" type="curve"/>
      <point x="232.7" y="12"/>
      <point x="191.7" y="-10"/>
      <point x="135.7" y="-10" type="curve"/>
      <point x="80.7" y="-10"/>
      <point x="43.7" y="15"/>
      <point x="43.7" y="65" type="curve"/>
    </contour>
  </outline>
</glyph>
<glyph name="slash" format="1">
  <advance width="751.0"/>
  <unicode hex="002F"/>
  <outline>
    <contour>
      <point x="179.0" y="-9"/>
      <point x="18.0" y="-9"/>
      <point x="179.0" y="-9" type="curve"/>
      <point x="363.0" y="253"/>
      <point x="548.0" y="515"/>
      <point x="733.0" y="777" type="curve"/>
      <point x="572.0" y="777"/>
      <point x="733.0" y="777"/>
      <point x="572.0" y="777" type="curve"/>
      <point x="387.0" y="515"/>
      <point x="203.0" y="253"/>
      <point x="18.0" y="-9" type="curve"/>
    </contour>
  </outline>
</glyph>
<glyph name="zero" format="1">
  <advance width="909.75"/>
  <unicode hex="0030"/>
  <outline>
    <contour>
      <point x="203.125" y="360"/>
      <point x="39.125" y="360"/>
      <point x="203.125" y="360" type="curve"/>
      <point x="203.125" y="517"/>
      <point x="299.125" y="604"/>
      <point x="450.125" y="604" type="curve"/>
      <point x="603.125" y="604"/>
      <point x="706.125" y="521"/>
      <point x="706.125" y="363" type="curve"/>
      <point x="706.125" y="206"/>
      <point x="611.125" y="118"/>
      <point x="463.125" y="118" type="curve"/>
      <point x="307.125" y="118"/>
      <point x="203.125" y="201"/>
      <point x="203.125" y="360" type="curve"/>
      <point x="39.125" y="360"/>
      <point x="203.125" y="360"/>
      <point x="39.125" y="360" type="curve"/>
      <point x="39.125" y="119"/>
      <point x="208.125" y="-5"/>
      <point x="456.125" y="-5" type="curve"/>
      <point x="704.125" y="-5"/>
      <point x="871.125" y="120"/>
      <point x="871.125" y="363" type="curve"/>
      <point x="871.125" y="602"/>
      <point x="708.125" y="727"/>
      <point x="465.125" y="727" type="curve"/>
      <point x="212.125" y="727"/>
      <point x="39.125" y="604"/>
      <point x="39.125" y="360" type="curve"/>
    </contour>
  </outline>
</glyph>
<glyph name="one" format="1">
  <advance width="461.0"/>
  <unicode hex="0031"/>
  <outline>
    <contour>
      <point x="74.0" y="453"/>
      <point x="5.0" y="571"/>
      <point x="74.0" y="453" type="curve"/>
      <point x="363.0" y="643"/>
      <point x="74.0" y="453"/>
      <point x="363.0" y="643" type="curve"/>
      <point x="245.0" y="722"/>
      <point x="363.0" y="643"/>
      <point x="245.0" y="722" type="curve"/>
      <point x="5.0" y="571"/>
      <point x="245.0" y="722"/>
      <point x="5.0" y="571" type="curve"/>
    </contour>
    <contour>
      <point x="405.0" y="0"/>
      <point x="245.0" y="0"/>
      <point x="405.0" y="0" type="curve"/>
      <point x="405.0" y="241"/>
      <point x="405.0" y="481"/>
      <point x="405.0" y="722" type="curve"/>
      <point x="245.0" y="722"/>
      <point x="405.0" y="722"/>
      <point x="245.0" y="722" type="curve"/>
      <point x="245.0" y="481"/>
      <point x="245.0" y="241"/>
      <point x="245.0" y="0" type="curve"/>
    </contour>
  </outline>
</glyph>
<glyph name="two" format="1">
  <advance width="739.625"/>
  <unicode hex="0032"/>
  <outline>
    <contour>
      <point x="33.625" y="0"/>
      <point x="33.625" y="117"/>
      <point x="33.625" y="0" type="curve"/>
      <point x="301.625" y="0"/>
      <point x="514.625" y="0"/>
      <point x="705.625" y="0" type="curve"/>
      <point x="705.625" y="117"/>
      <point x="705.625" y="0"/>
      <point x="705.625" y="117" type="curve"/>
      <point x="488.625" y="117"/>
      <point x="250.625" y="117"/>
      <point x="33.625" y="117" type="curve"/>
    </contour>
    <contour>
      <point x="145.625" y="502"/>
      <point x="41.625" y="576"/>
      <point x="145.625" y="502" type="curve"/>
      <point x="218.625" y="572"/>
      <point x="274.625" y="605"/>
      <point x="358.625" y="605" type="curve"/>
      <point x="446.625" y="605"/>
      <point x="515.625" y="582"/>
      <point x="515.625" y="501" type="curve"/>
      <point x="515.625" y="403"/>
      <point x="419.625" y="353"/>
      <point x="318.625" y="293" type="curve"/>
      <point x="223.625" y="234"/>
      <point x="128.625" y="176"/>
      <point x="33.625" y="117" type="curve"/>
      <point x="33.625" y="0"/>
      <point x="33.625" y="117"/>
      <point x="33.625" y="0" type="curve"/>
      <point x="218.625" y="67"/>
      <point x="315.625" y="134"/>
      <point x="420.625" y="200" type="curve"/>
      <point x="558.625" y="281"/>
      <point x="663.625" y="349"/>
      <point x="663.625" y="507" type="curve"/>
      <point x="663.625" y="667"/>
      <point x="539.625" y="727"/>
      <point x="365.625" y="727" type="curve"/>
      <point x="227.625" y="727"/>
      <point x="119.625" y="684"/>
      <point x="41.625" y="576" type="curve"/>
    </contour>
  </outline>
</glyph>
<glyph name="three" format="1">
  <advance width="675.375"/>
  <unicode hex="0033"/>
  <outline>
    <contour>
      <point x="29.25" y="53"/>
      <point x="96.25" y="156"/>
      <point x="29.25" y="53" type="curve"/>
      <point x="83.25" y="21"/>
      <point x="179.25" y="-5"/>
      <point x="283.25" y="-5" type="curve"/>
      <point x="482.25" y="-5"/>
      <point x="638.25" y="39"/>
      <point x="638.25" y="227" type="curve"/>
      <point x="638.25" y="383"/>
      <point x="441.25" y="422"/>
      <point x="187.25" y="422" type="curve"/>
      <point x="187.25" y="323"/>
      <point x="187.25" y="422"/>
      <point x="187.25" y="323" type="curve"/>
      <point x="330.25" y="323"/>
      <point x="485.25" y="310"/>
      <point x="485.25" y="222" type="curve"/>
      <point x="485.25" y="120"/>
      <point x="383.25" y="117"/>
      <point x="287.25" y="117" type="curve"/>
      <point x="239.25" y="117"/>
      <point x="163.25" y="130"/>
      <point x="96.25" y="156" type="curve"/>
    </contour>
    <contour>
      <point x="105.25" y="551"/>
      <point x="28.25" y="643"/>
      <point x="105.25" y="551" type="curve"/>
      <point x="145.25" y="579"/>
      <point x="217.25" y="605"/>
      <point x="280.25" y="605" type="curve"/>
      <point x="369.25" y="605"/>
      <point x="442.25" y="600"/>
      <point x="442.25" y="521" type="curve"/>
      <point x="442.25" y="441"/>
      <point x="313.25" y="431"/>
      <point x="187.25" y="431" type="curve"/>
      <point x="187.25" y="332"/>
      <point x="187.25" y="431"/>
      <point x="187.25" y="332" type="curve"/>
      <point x="407.25" y="332"/>
      <point x="595.25" y="372"/>
      <point x="595.25" y="527" type="curve"/>
      <point x="595.25" y="681"/>
      <point x="461.25" y="727"/>
      <point x="291.25" y="727" type="curve"/>
      <point x="181.25" y="727"/>
      <point x="78.25" y="689"/>
      <point x="28.25" y="643" type="curve"/>
    </contour>
  </outline>
</glyph>
<glyph name="four" format="1">
  <advance width="749.0"/>
  <unicode hex="0034"/>
  <outline>
    <contour>
      <point x="63.0" y="234" type="line"/>
      <point x="506.0" y="642" type="line"/>
      <point x="383.0" y="695" type="line"/>
      <point x="8.0" y="352" type="line"/>
    </contour>
    <contour>
      <point x="719.0" y="352" type="line"/>
      <point x="8.0" y="352" type="line"/>
      <point x="8.0" y="223" type="line"/>
      <point x="719.0" y="223" type="line"/>
    </contour>
    <contour>
      <point x="543.0" y="0" type="line"/>
      <point x="543.0" y="695" type="line"/>
      <point x="383.0" y="695" type="line"/>
      <point x="383.0" y="0" type="line"/>
    </contour>
  </outline>
</glyph>
<glyph name="five" format="1">
  <advance width="683.75"/>
  <unicode hex="0035"/>
  <outline>
    <contour>
      <point x="76.0" y="722"/>
      <point x="229.0" y="605"/>
      <point x="76.0" y="722" type="curve"/>
      <point x="76.0" y="629"/>
      <point x="76.0" y="516"/>
      <point x="76.0" y="370" type="curve"/>
      <point x="229.0" y="335"/>
      <point x="76.0" y="370"/>
      <point x="229.0" y="335" type="curve"/>
      <point x="229.0" y="418"/>
      <point x="229.0" y="522"/>
      <point x="229.0" y="605" type="curve"/>
    </contour>
    <contour>
      <point x="229.0" y="335"/>
      <point x="76.0" y="370"/>
      <point x="229.0" y="335" type="curve"/>
      <point x="253.0" y="354"/>
      <point x="303.0" y="363"/>
      <point x="329.0" y="363" type="curve"/>
      <point x="429.0" y="363"/>
      <point x="492.0" y="330"/>
      <point x="492.0" y="243" type="curve"/>
      <point x="492.0" y="155"/>
      <point x="403.0" y="117"/>
      <point x="303.0" y="117" type="curve"/>
      <point x="236.0" y="117"/>
      <point x="180.0" y="123"/>
      <point x="106.0" y="148" type="curve"/>
      <point x="37.0" y="43"/>
      <point x="106.0" y="148"/>
      <point x="37.0" y="43" type="curve"/>
      <point x="125.0" y="10"/>
      <point x="202.0" y="-5"/>
      <point x="296.0" y="-5" type="curve"/>
      <point x="487.0" y="-5"/>
      <point x="652.0" y="72"/>
      <point x="652.0" y="243" type="curve"/>
      <point x="652.0" y="406"/>
      <point x="517.0" y="487"/>
      <point x="335.0" y="487" type="curve"/>
      <point x="250.0" y="487"/>
      <point x="141.0" y="456"/>
      <point x="76.0" y="370" type="curve"/>
    </contour>
    <contour>
      <point x="609.0" y="722"/>
      <point x="609.0" y="605"/>
      <point x="609.0" y="722" type="curve"/>
      <point x="413.0" y="722"/>
      <point x="244.0" y="722"/>
      <point x="76.0" y="722" type="curve"/>
      <point x="229.0" y="605"/>
      <point x="76.0" y="722"/>
      <point x="229.0" y="605" type="curve"/>
      <point x="347.0" y="605"/>
      <point x="464.0" y="605"/>
      <point x="609.0" y="605" type="curve"/>
    </contour>
  </outline>
</glyph>
<glyph name="six" format="1">
  <advance width="751.0"/>
  <unicode hex="0036"/>
  <outline>
    <contour>
      <point x="164.0" y="223"/>
      <point x="54.0" y="282"/>
      <point x="164.0" y="223" type="curve"/>
      <point x="216.0" y="307"/>
      <point x="295.0" y="331"/>
      <point x="401.0" y="331" type="curve"/>
      <point x="490.0" y="331"/>
      <point x="561.0" y="309"/>
      <point x="561.0" y="227" type="curve"/>
      <point x="561.0" y="145"/>
      <point x="487.0" y="125"/>
      <point x="399.0" y="125" type="curve"/>
      <point x="280.0" y="125"/>
      <point x="187.0" y="161"/>
      <point x="187.0" y="261" type="curve"/>
      <point x="187.0" y="500"/>
      <point x="428.0" y="555"/>
      <point x="685.0" y="608" type="curve"/>
      <point x="651.0" y="727"/>
      <point x="685.0" y="608"/>
      <point x="651.0" y="727" type="curve"/>
      <point x="354.0" y="676"/>
      <point x="34.0" y="573"/>
      <point x="34.0" y="255" type="curve"/>
      <point x="34.0" y="68"/>
      <point x="186.0" y="-12"/>
      <point x="391.0" y="-12" type="curve"/>
      <point x="580.0" y="-12"/>
      <point x="722.0" y="57"/>
      <point x="722.0" y="227" type="curve"/>
      <point x="722.0" y="392"/>
      <point x="587.0" y="454"/>
      <point x="411.0" y="454" type="curve"/>
      <point x="258.0" y="454"/>
      <point x="138.0" y="380"/>
      <point x="54.0" y="282" type="curve"/>
    </contour>
  </outline>
</glyph>
<glyph name="seven" format="1">
  <advance width="668.0"/>
  <unicode hex="0037"/>
  <outline>
    <contour>
      <point x="23.0" y="605" type="curve"/>
      <point x="652.0" y="605" type="curve"/>
      <point x="652.0" y="722" type="curve"/>
      <point x="23.0" y="722" type="curve"/>
    </contour>
    <contour>
      <point x="555.0" y="722" type="curve"/>
      <point x="59.0" y="0" type="curve"/>
      <point x="245.0" y="0" type="curve"/>
      <point x="652.0" y="605" type="curve"/>
    </contour>
  </outline>
</glyph>
<glyph name="eight" format="1">
  <advance width="738.0"/>
  <unicode hex="0038"/>
  <outline>
    <contour>
      <point x="64.0" y="534"/>
      <point x="225.0" y="534"/>
      <point x="64.0" y="534" type="curve"/>
      <point x="64.0" y="399"/>
      <point x="187.0" y="382"/>
      <point x="323.0" y="338" type="curve"/>
      <point x="433.0" y="302"/>
      <point x="538.0" y="299"/>
      <point x="538.0" y="196" type="curve"/>
      <point x="538.0" y="126"/>
      <point x="462.0" y="113"/>
      <point x="370.0" y="113" type="curve"/>
      <point x="276.0" y="113"/>
      <point x="200.0" y="125"/>
      <point x="200.0" y="196" type="curve"/>
      <point x="200.0" y="301"/>
      <point x="310.0" y="303"/>
      <point x="421.0" y="340" type="curve"/>
      <point x="553.0" y="386"/>
      <point x="674.0" y="400"/>
      <point x="674.0" y="533" type="curve"/>
      <point x="674.0" y="687"/>
      <point x="546.0" y="727"/>
      <point x="370.0" y="727" type="curve"/>
      <point x="197.0" y="727"/>
      <point x="64.0" y="685"/>
      <point x="64.0" y="534" type="curve"/>
      <point x="225.0" y="534"/>
      <point x="64.0" y="534"/>
      <point x="225.0" y="534" type="curve"/>
      <point x="225.0" y="594"/>
      <point x="287.0" y="608"/>
      <point x="362.0" y="608" type="curve"/>
      <point x="447.0" y="608"/>
      <point x="514.0" y="598"/>
      <point x="514.0" y="533" type="curve"/>
      <point x="514.0" y="444"/>
      <point x="416.0" y="449"/>
      <point x="320.0" y="418" type="curve"/>
      <point x="171.0" y="368"/>
      <point x="39.0" y="345"/>
      <point x="39.0" y="196" type="curve"/>
      <point x="39.0" y="36"/>
      <point x="179.0" y="-5"/>
      <point x="362.0" y="-5" type="curve"/>
      <point x="551.0" y="-5"/>
      <point x="699.0" y="31"/>
      <point x="699.0" y="196" type="curve"/>
      <point x="699.0" y="343"/>
      <point x="567.0" y="368"/>
      <point x="421.0" y="417" type="curve"/>
      <point x="324.0" y="451"/>
      <point x="225.0" y="448"/>
      <point x="225.0" y="534" type="curve"/>
    </contour>
  </outline>
</glyph>
<glyph name="nine" format="1">
  <advance width="750.875"/>
  <unicode hex="0039"/>
  <outline>
    <contour>
      <point x="584.0" y="499"/>
      <point x="661.0" y="458"/>
      <point x="584.0" y="499" type="curve"/>
      <point x="533.0" y="417"/>
      <point x="463.0" y="391"/>
      <point x="365.0" y="391" type="curve"/>
      <point x="266.0" y="391"/>
      <point x="187.0" y="414"/>
      <point x="187.0" y="501" type="curve"/>
      <point x="187.0" y="578"/>
      <point x="261.0" y="595"/>
      <point x="350.0" y="595" type="curve"/>
      <point x="468.0" y="595"/>
      <point x="561.0" y="565"/>
      <point x="561.0" y="461" type="curve"/>
      <point x="561.0" y="224"/>
      <point x="330.0" y="175"/>
      <point x="64.0" y="119" type="curve"/>
      <point x="98.0" y="-5"/>
      <point x="63.0" y="119"/>
      <point x="97.0" y="-5" type="curve"/>
      <point x="427.0" y="44"/>
      <point x="715.0" y="149"/>
      <point x="715.0" y="467" type="curve"/>
      <point x="715.0" y="654"/>
      <point x="562.0" y="734"/>
      <point x="357.0" y="734" type="curve"/>
      <point x="168.0" y="734"/>
      <point x="27.0" y="665"/>
      <point x="27.0" y="495" type="curve"/>
      <point x="27.0" y="330"/>
      <point x="167.0" y="268"/>
      <point x="350.0" y="268" type="curve"/>
      <point x="504.0" y="268"/>
      <point x="597.0" y="324"/>
      <point x="661.0" y="458" type="curve"/>
    </contour>
  </outline>
</glyph>
<glyph name="colon" format="1">
  <advance width="289.65"/>
  <unicode hex="003A"/>
  <outline>
    <contour>
      <point x="239.7" y="377"/>
      <point x="50.7" y="377"/>
      <point x="239.7" y="377" type="curve"/>
      <point x="239.7" y="429"/>
      <point x="198.7" y="453"/>
      <point x="143.7" y="453" type="curve"/>
      <point x="88.7" y="453"/>
      <point x="50.7" y="426"/>
      <point x="50.7" y="377" type="curve"/>
      <point x="239.7" y="377"/>
      <point x="50.7" y="377"/>
      <point x="239.7" y="377" type="curve"/>
      <point x="239.7" y="324"/>
      <point x="198.7" y="302"/>
      <point x="142.7" y="302" type="curve"/>
      <point x="87.7" y="302"/>
      <point x="50.7" y="327"/>
      <point x="50.7" y="377" type="curve"/>
    </contour>
    <contour>
      <point x="238.7" y="65"/>
      <point x="49.7" y="65"/>
      <point x="238.7" y="65" type="curve"/>
      <point x="238.7" y="117"/>
      <point x="197.7" y="141"/>
      <point x="142.7" y="141" type="curve"/>
      <point x="87.7" y="141"/>
      <point x="49.7" y="114"/>
      <point x="49.7" y="65" type="curve"/>
      <point x="238.7" y="65"/>
      <point x="49.7" y="65"/>
      <point x="238.7" y="65" type="curve"/>
      <point x="238.7" y="12"/>
      <point x="197.7" y="-10"/>
      <point x="141.7" y="-10" type="curve"/>
      <point x="86.7" y="-10"/>
      <point x="49.7" y="15"/>
      <point x="49.7" y="65" type="curve"/>
    </contour>
  </outline>
</glyph>
<glyph name="semicolon" format="1">
  <advance width="296.0"/>
  <unicode hex="003B"/>
  <outline>
    <contour>
      <point x="36" y="-172" type="line"/>
      <point x="159" y="-172"/>
      <point x="246" y="-97"/>
      <point x="246" y="13" type="curve"/>
      <point x="246" y="94"/>
      <point x="202" y="159"/>
      <point x="133" y="159" type="curve"/>
      <point x="80" y="159"/>
      <point x="40" y="133"/>
      <point x="40" y="83" type="curve"/>
      <point x="40" y="31"/>
      <point x="82" y="5"/>
      <point x="140" y="5" type="curve"/>
      <point x="138" y="-43"/>
      <point x="118" y="-81"/>
      <point x="36" y="-90" type="curve"/>
    </contour>
    <contour>
      <point x="222" y="375"/>
      <point x="33" y="375"/>
      <point x="222" y="375" type="curve"/>
      <point x="222" y="427"/>
      <point x="181" y="451"/>
      <point x="126" y="451" type="curve"/>
      <point x="71" y="451"/>
      <point x="33" y="424"/>
      <point x="33" y="375" type="curve"/>
      <point x="222" y="375"/>
      <point x="33" y="375"/>
      <point x="222" y="375" type="curve"/>
      <point x="222" y="322"/>
      <point x="181" y="300"/>
      <point x="125" y="300" type="curve"/>
      <point x="70" y="300"/>
      <point x="33" y="325"/>
      <point x="33" y="375" type="curve"/>
    </contour>
  </outline>
</glyph>
<glyph name="less" format="1">
  <advance width="872.75"/>
  <unicode hex="003C"/>
  <outline>
    <contour>
      <point x="816.5" y="634"/>
      <point x="816.5" y="506"/>
      <point x="816.5" y="634" type="curve"/>
      <point x="552.5" y="544"/>
      <point x="288.5" y="454"/>
      <point x="24.5" y="364" type="curve"/>
      <point x="24.5" y="236"/>
      <point x="24.5" y="364"/>
      <point x="24.5" y="236" type="curve"/>
      <point x="288.5" y="326"/>
      <point x="552.5" y="416"/>
      <point x="816.5" y="506" type="curve"/>
    </contour>
    <contour>
      <point x="829.5" y="100"/>
      <point x="829.5" y="-28"/>
      <point x="829.5" y="100" type="curve"/>
      <point x="561.5" y="188"/>
      <point x="293.5" y="276"/>
      <point x="24.5" y="364" type="curve"/>
      <point x="24.5" y="236"/>
      <point x="24.5" y="364"/>
      <point x="24.5" y="236" type="curve"/>
      <point x="293.5" y="148"/>
      <point x="561.5" y="60"/>
      <point x="829.5" y="-28" type="curve"/>
    </contour>
  </outline>
</glyph>
<glyph name="equal" format="1">
  <advance width="921.25"/>
  <unicode hex="003D"/>
  <outline>
    <contour>
      <point x="51.5" y="156"/>
      <point x="51.5" y="279"/>
      <point x="51.5" y="156" type="curve"/>
      <point x="324.5" y="156"/>
      <point x="597.5" y="156"/>
      <point x="869.5" y="156" type="curve"/>
      <point x="869.5" y="279"/>
      <point x="869.5" y="156"/>
      <point x="869.5" y="279" type="curve"/>
      <point x="597.5" y="279"/>
      <point x="324.5" y="279"/>
      <point x="51.5" y="279" type="curve"/>
    </contour>
    <contour>
      <point x="51.5" y="378"/>
      <point x="51.5" y="501"/>
      <point x="51.5" y="378" type="curve"/>
      <point x="324.5" y="378"/>
      <point x="597.5" y="378"/>
      <point x="869.5" y="378" type="curve"/>
      <point x="869.5" y="501"/>
      <point x="869.5" y="378"/>
      <point x="869.5" y="501" type="curve"/>
      <point x="597.5" y="501"/>
      <point x="324.5" y="501"/>
      <point x="51.5" y="501" type="curve"/>
    </contour>
  </outline>
</glyph>
<glyph name="greater" format="1">
  <advance width="874.75"/>
  <unicode hex="003E"/>
  <outline>
    <contour>
      <point x="56.75" y="-28"/>
      <point x="56.75" y="100"/>
      <point x="56.75" y="-28" type="curve"/>
      <point x="320.75" y="62"/>
      <point x="584.75" y="152"/>
      <point x="848.75" y="242" type="curve"/>
      <point x="848.75" y="370"/>
      <point x="848.75" y="242"/>
      <point x="848.75" y="370" type="curve"/>
      <point x="584.75" y="280"/>
      <point x="320.75" y="190"/>
      <point x="56.75" y="100" type="curve"/>
    </contour>
    <contour>
      <point x="43.75" y="506"/>
      <point x="43.75" y="634"/>
      <point x="43.75" y="506" type="curve"/>
      <point x="311.75" y="418"/>
      <point x="580.75" y="330"/>
      <point x="848.75" y="242" type="curve"/>
      <point x="848.75" y="370"/>
      <point x="848.75" y="242"/>
      <point x="848.75" y="370" type="curve"/>
      <point x="580.75" y="458"/>
      <point x="311.75" y="546"/>
      <point x="43.75" y="634" type="curve"/>
    </contour>
  </outline>
</glyph>
<glyph name="question" format="1">
  <advance width="648.0"/>
  <unicode hex="003F"/>
  <outline>
    <contour>
      <point x="216.0" y="384"/>
      <point x="376.0" y="384"/>
      <point x="216.0" y="384" type="curve"/>
      <point x="216.0" y="347"/>
      <point x="216.0" y="258"/>
      <point x="216.0" y="221" type="curve"/>
      <point x="376.0" y="221"/>
      <point x="216.0" y="221"/>
      <point x="376.0" y="221" type="curve"/>
      <point x="376.0" y="258"/>
      <point x="376.0" y="347"/>
      <point x="376.0" y="384" type="curve"/>
    </contour>
    <contour>
      <point x="117.0" y="559" type="line"/>
      <point x="158.0" y="599"/>
      <point x="228.0" y="636"/>
      <point x="305.0" y="636" type="curve"/>
      <point x="395.0" y="636"/>
      <point x="469.0" y="603"/>
      <point x="469.0" y="519" type="curve"/>
      <point x="469.0" y="425"/>
      <point x="365.0" y="384"/>
      <point x="234.0" y="384" type="curve"/>
      <point x="234.0" y="341"/>
      <point x="234.0" y="310"/>
      <point x="234.0" y="267" type="curve"/>
      <point x="452.0" y="267"/>
      <point x="622.0" y="348"/>
      <point x="622.0" y="519" type="curve"/>
      <point x="622.0" y="679"/>
      <point x="487.0" y="757"/>
      <point x="313.0" y="757" type="curve"/>
      <point x="201.0" y="757"/>
      <point x="115.0" y="722"/>
      <point x="36.0" y="648" type="curve"/>
    </contour>
    <contour>
      <point x="393.0" y="18"/>
      <point x="204.0" y="18"/>
      <point x="393.0" y="18" type="curve"/>
      <point x="393.0" y="70"/>
      <point x="352.0" y="94"/>
      <point x="297.0" y="94" type="curve"/>
      <point x="242.0" y="94"/>
      <point x="204.0" y="67"/>
      <point x="204.0" y="18" type="curve"/>
      <point x="393.0" y="18"/>
      <point x="204.0" y="18"/>
      <point x="393.0" y="18" type="curve"/>
      <point x="393.0" y="-35"/>
      <point x="352.0" y="-57"/>
      <point x="296.0" y="-57" type="curve"/>
      <point x="241.0" y="-57"/>
      <point x="204.0" y="-32"/>
      <point x="204.0" y="18" type="curve"/>
    </contour>
  </outline>
</glyph>
<glyph name="at" format="1">
  <advance width="1073.0"/>
  <unicode hex="0040"/>
  <outline>
    <contour>
      <point x="740.0" y="7"/>
      <point x="792.0" y="-91"/>
      <point x="740.0" y="7" type="curve"/>
      <point x="671.0" y="-14"/>
      <point x="622.0" y="-24"/>
      <point x="555.0" y="-24" type="curve"/>
      <point x="346.0" y="-24"/>
      <point x="187.0" y="32"/>
      <point x="187.0" y="215" type="curve"/>
      <point x="187.0" y="393"/>
      <point x="345.0" y="442"/>
      <point x="547.0" y="442" type="curve"/>
      <point x="738.0" y="442"/>
      <point x="883.0" y="384"/>
      <point x="883.0" y="215" type="curve"/>
      <point x="883.0" y="170"/>
      <point x="879.0" y="133"/>
      <point x="841.0" y="133" type="curve"/>
      <point x="797.0" y="133"/>
      <point x="782.0" y="170"/>
      <point x="782.0" y="220" type="curve"/>
      <point x="782.0" y="352"/>
      <point x="680.0" y="415"/>
      <point x="537.0" y="415" type="curve"/>
      <point x="378.0" y="415"/>
      <point x="264.0" y="358"/>
      <point x="264.0" y="215" type="curve"/>
      <point x="264.0" y="75"/>
      <point x="368.0" y="9"/>
      <point x="518.0" y="9" type="curve"/>
      <point x="647.0" y="9"/>
      <point x="729.0" y="73"/>
      <point x="759.0" y="198" type="curve"/>
      <point x="657.0" y="222"/>
      <point x="759.0" y="198"/>
      <point x="657.0" y="222" type="curve"/>
      <point x="636.0" y="161"/>
      <point x="602.0" y="126"/>
      <point x="540.0" y="126" type="curve"/>
      <point x="468.0" y="126"/>
      <point x="417.0" y="155"/>
      <point x="417.0" y="221" type="curve"/>
      <point x="417.0" y="277"/>
      <point x="462.0" y="298"/>
      <point x="522.0" y="298" type="curve"/>
      <point x="588.0" y="298"/>
      <point x="636.0" y="274"/>
      <point x="636.0" y="214" type="curve"/>
      <point x="636.0" y="94"/>
      <point x="707.0" y="22"/>
      <point x="828.0" y="22" type="curve"/>
      <point x="957.0" y="22"/>
      <point x="1036.0" y="94"/>
      <point x="1036.0" y="220" type="curve"/>
      <point x="1036.0" y="469"/>
      <point x="830.0" y="564"/>
      <point x="555.0" y="564" type="curve"/>
      <point x="258.0" y="564"/>
      <point x="34.0" y="474"/>
      <point x="34.0" y="209" type="curve"/>
      <point x="34.0" y="-51"/>
      <point x="254.0" y="-141"/>
      <point x="547.0" y="-141" type="curve"/>
      <point x="645.0" y="-141"/>
      <point x="728.0" y="-119"/>
      <point x="792.0" y="-91" type="curve"/>
    </contour>
  </outline>
</glyph>
<glyph name="B" format="1">
  <advance width="777.0"/>
  <unicode hex="0042"/>
  <outline>
    <contour>
      <point x="133.0" y="605"/>
      <point x="133.0" y="722"/>
      <point x="133.0" y="605" type="curve"/>
      <point x="226.0" y="605"/>
      <point x="320.0" y="605"/>
      <point x="414.0" y="605" type="curve"/>
      <point x="474.0" y="605"/>
      <point x="524.0" y="585"/>
      <point x="524.0" y="528" type="curve"/>
      <point x="524.0" y="471"/>
      <point x="456.0" y="462"/>
      <point x="392.0" y="462" type="curve"/>
      <point x="306.0" y="462"/>
      <point x="219.0" y="462"/>
      <point x="133.0" y="462" type="curve"/>
      <point x="133.0" y="345"/>
      <point x="133.0" y="462"/>
      <point x="133.0" y="345" type="curve"/>
      <point x="192.0" y="345"/>
      <point x="252.0" y="345"/>
      <point x="312.0" y="345" type="curve"/>
      <point x="447.0" y="345"/>
      <point x="685.0" y="367"/>
      <point x="685.0" y="528" type="curve"/>
      <point x="685.0" y="668"/>
      <point x="568.0" y="722"/>
      <point x="414.0" y="722" type="curve"/>
      <point x="320.0" y="722"/>
      <point x="226.0" y="722"/>
      <point x="133.0" y="722" type="curve"/>
    </contour>
    <contour>
      <point x="232.0" y="0"/>
      <point x="64.0" y="0"/>
      <point x="232.0" y="0" type="curve"/>
      <point x="232.0" y="241"/>
      <point x="232.0" y="481"/>
      <point x="232.0" y="722" type="curve"/>
      <point x="64.0" y="722"/>
      <point x="232.0" y="722"/>
      <point x="64.0" y="722" type="curve"/>
      <point x="64.0" y="481"/>
      <point x="64.0" y="241"/>
      <point x="64.0" y="0" type="curve"/>
    </contour>
    <contour>
      <point x="133.0" y="345"/>
      <point x="133.0" y="462"/>
      <point x="133.0" y="345" type="curve"/>
      <point x="219.0" y="345"/>
      <point x="306.0" y="345"/>
      <point x="392.0" y="345" type="curve"/>
      <point x="495.0" y="345"/>
      <point x="585.0" y="320"/>
      <point x="585.0" y="226" type="curve"/>
      <point x="585.0" y="140"/>
      <point x="509.0" y="117"/>
      <point x="411.0" y="117" type="curve"/>
      <point x="318.0" y="117"/>
      <point x="225.0" y="117"/>
      <point x="133.0" y="117" type="curve"/>
      <point x="133.0" y="0"/>
      <point x="133.0" y="117"/>
      <point x="133.0" y="0" type="curve"/>
      <point x="225.0" y="0"/>
      <point x="318.0" y="0"/>
      <point x="411.0" y="0" type="curve"/>
      <point x="603.0" y="0"/>
      <point x="746.0" y="57"/>
      <point x="746.0" y="226" type="curve"/>
      <point x="746.0" y="429"/>
      <point x="482.0" y="462"/>
      <point x="312.0" y="462" type="curve"/>
      <point x="252.0" y="462"/>
      <point x="192.0" y="462"/>
      <point x="133.0" y="462" type="curve"/>
    </contour>
  </outline>
</glyph>
<glyph name="C" format="1">
  <advance width="854.0"/>
  <unicode hex="0043"/>
  <outline>
    <contour>
      <point x="848.0" y="654"/>
      <point x="787.0" y="552"/>
      <point x="848.0" y="654" type="curve"/>
      <point x="747.0" y="696"/>
      <point x="641.0" y="727"/>
      <point x="523.0" y="727" type="curve"/>
      <point x="240.0" y="727"/>
      <point x="36.0" y="608"/>
      <point x="36.0" y="344" type="curve"/>
      <point x="36.0" y="100"/>
      <point x="225.0" y="-5"/>
      <point x="489.0" y="-5" type="curve"/>
      <point x="644.0" y="-5"/>
      <point x="738.0" y="22"/>
      <point x="848.0" y="87" type="curve"/>
      <point x="789.0" y="190"/>
      <point x="847.0" y="87"/>
      <point x="788.0" y="190" type="curve"/>
      <point x="681.0" y="135"/>
      <point x="604.0" y="119"/>
      <point x="495.0" y="119" type="curve"/>
      <point x="321.0" y="119"/>
      <point x="197.0" y="189"/>
      <point x="197.0" y="350" type="curve"/>
      <point x="197.0" y="524"/>
      <point x="329.0" y="605"/>
      <point x="515.0" y="605" type="curve"/>
      <point x="604.0" y="605"/>
      <point x="685.0" y="593"/>
      <point x="787.0" y="552" type="curve"/>
    </contour>
    <contour>
      <point x="508.0" y="780" type="move" name="top"/>
    </contour>
    <contour>
      <point x="528.0" y="6" type="move" name="bottom"/>
    </contour>
  </outline>
</glyph>
<glyph name="D" format="1">
  <advance width="917.0"/>
  <unicode hex="0044"/>
  <outline>
    <contour>
      <point x="64.0" y="722"/>
      <point x="224.0" y="722"/>
      <point x="64.0" y="722" type="curve"/>
      <point x="64.0" y="481"/>
      <point x="64.0" y="241"/>
      <point x="64.0" y="0" type="curve"/>
      <point x="224.0" y="0"/>
      <point x="64.0" y="0"/>
      <point x="224.0" y="0" type="curve"/>
      <point x="224.0" y="241"/>
      <point x="224.0" y="481"/>
      <point x="224.0" y="722" type="curve"/>
    </contour>
    <contour>
      <point x="147.0" y="0"/>
      <point x="147.0" y="117"/>
      <point x="147.0" y="0" type="curve"/>
      <point x="231.0" y="0"/>
      <point x="316.0" y="0"/>
      <point x="401.0" y="0" type="curve"/>
      <point x="689.0" y="0"/>
      <point x="881.0" y="92"/>
      <point x="881.0" y="354" type="curve"/>
      <point x="881.0" y="624"/>
      <point x="687.0" y="722"/>
      <point x="393.0" y="722" type="curve"/>
      <point x="311.0" y="722"/>
      <point x="229.0" y="722"/>
      <point x="147.0" y="722" type="curve"/>
      <point x="147.0" y="605"/>
      <point x="147.0" y="722"/>
      <point x="147.0" y="605" type="curve"/>
      <point x="226.0" y="605"/>
      <point x="306.0" y="605"/>
      <point x="385.0" y="605" type="curve"/>
      <point x="588.0" y="605"/>
      <point x="722.0" y="535"/>
      <point x="722.0" y="349" type="curve"/>
      <point x="722.0" y="180"/>
      <point x="598.0" y="117"/>
      <point x="413.0" y="117" type="curve"/>
      <point x="324.0" y="117"/>
      <point x="236.0" y="117"/>
      <point x="147.0" y="117" type="curve"/>
    </contour>
    <contour>
      <point x="388.0" y="780" type="move" name="top"/>
    </contour>
    <contour>
      <point x="142.0" y="362" type="move" name="croat"/>
    </contour>
  </outline>
</glyph>
<glyph name="E" format="1">
  <advance width="725.0"/>
  <unicode hex="0045"/>
  <outline>
    <contour>
      <point x="150.0" y="314"/>
      <point x="150.0" y="431"/>
      <point x="150.0" y="314" type="curve"/>
      <point x="292.0" y="314"/>
      <point x="434.0" y="314"/>
      <point x="576.0" y="314" type="curve"/>
      <point x="576.0" y="431"/>
      <point x="576.0" y="314"/>
      <point x="576.0" y="431" type="curve"/>
      <point x="434.0" y="431"/>
      <point x="292.0" y="431"/>
      <point x="150.0" y="431" type="curve"/>
    </contour>
    <contour>
      <point x="130.0" y="605"/>
      <point x="130.0" y="722"/>
      <point x="130.0" y="605" type="curve"/>
      <point x="306.0" y="605"/>
      <point x="482.0" y="605"/>
      <point x="658.0" y="605" type="curve"/>
      <point x="658.0" y="722"/>
      <point x="658.0" y="605"/>
      <point x="658.0" y="722" type="curve"/>
      <point x="482.0" y="722"/>
      <point x="306.0" y="722"/>
      <point x="130.0" y="722" type="curve"/>
    </contour>
    <contour>
      <point x="225.0" y="0"/>
      <point x="64.0" y="0"/>
      <point x="225.0" y="0" type="curve"/>
      <point x="225.0" y="0"/>
      <point x="225.0" y="722"/>
      <point x="225.0" y="722" type="curve"/>
      <point x="64.0" y="722"/>
      <point x="225.0" y="722"/>
      <point x="64.0" y="722" type="curve"/>
      <point x="64.0" y="481"/>
      <point x="64.0" y="241"/>
      <point x="64.0" y="0" type="curve"/>
    </contour>
    <contour>
      <point x="130.0" y="0"/>
      <point x="130.0" y="117"/>
      <point x="130.0" y="0" type="curve"/>
      <point x="321.0" y="0"/>
      <point x="511.0" y="0"/>
      <point x="702.0" y="0" type="curve"/>
      <point x="702.0" y="117"/>
      <point x="702.0" y="0"/>
      <point x="702.0" y="117" type="curve"/>
      <point x="511.0" y="117"/>
      <point x="321.0" y="117"/>
      <point x="130.0" y="117" type="curve"/>
    </contour>
    <contour>
      <point x="326.0" y="780" type="move" name="top"/>
    </contour>
    <contour>
      <point x="618.0" y="14" type="move" name="bottom"/>
    </contour>
  </outline>
</glyph>
<glyph name="F" format="1">
  <advance width="685.0"/>
  <unicode hex="0046"/>
  <outline>
    <contour>
      <point x="150.0" y="314"/>
      <point x="150.0" y="431"/>
      <point x="150.0" y="314" type="curve"/>
      <point x="289.0" y="314"/>
      <point x="429.0" y="314"/>
      <point x="568.0" y="314" type="curve"/>
      <point x="568.0" y="431"/>
      <point x="568.0" y="314"/>
      <point x="568.0" y="431" type="curve"/>
      <point x="429.0" y="431"/>
      <point x="289.0" y="431"/>
      <point x="150.0" y="431" type="curve"/>
    </contour>
    <contour>
      <point x="225.0" y="0"/>
      <point x="64.0" y="0"/>
      <point x="225.0" y="0" type="curve"/>
      <point x="225.0" y="0"/>
      <point x="225.0" y="722"/>
      <point x="225.0" y="722" type="curve"/>
      <point x="64.0" y="722"/>
      <point x="225.0" y="722"/>
      <point x="64.0" y="722" type="curve"/>
      <point x="64.0" y="481"/>
      <point x="64.0" y="241"/>
      <point x="64.0" y="0" type="curve"/>
    </contour>
    <contour>
      <point x="130.0" y="605"/>
      <point x="130.0" y="722"/>
      <point x="130.0" y="605" type="curve"/>
      <point x="308.0" y="605"/>
      <point x="485.0" y="605"/>
      <point x="663.0" y="605" type="curve"/>
      <point x="663.0" y="722"/>
      <point x="663.0" y="605"/>
      <point x="663.0" y="722" type="curve"/>
      <point x="485.0" y="722"/>
      <point x="308.0" y="722"/>
      <point x="130.0" y="722" type="curve"/>
    </contour>
  </outline>
</glyph>
<glyph name="G" format="1">
  <advance width="983.375"/>
  <unicode hex="0047"/>
  <outline>
    <contour>
      <point x="897.75" y="374"/>
      <point x="897.75" y="257"/>
      <point x="897.75" y="374" type="curve"/>
      <point x="802.75" y="374"/>
      <point x="706.75" y="374"/>
      <point x="611.75" y="374" type="curve"/>
      <point x="611.75" y="257"/>
      <point x="611.75" y="374"/>
      <point x="611.75" y="257" type="curve"/>
      <point x="706.75" y="257"/>
      <point x="802.75" y="257"/>
      <point x="897.75" y="257" type="curve"/>
    </contour>
    <contour>
      <point x="941.75" y="79"/>
      <point x="795.75" y="79"/>
      <point x="941.75" y="79" type="curve"/>
      <point x="941.75" y="177"/>
      <point x="941.75" y="275"/>
      <point x="941.75" y="374" type="curve"/>
      <point x="795.75" y="374"/>
      <point x="941.75" y="374"/>
      <point x="795.75" y="374" type="curve"/>
      <point x="795.75" y="275"/>
      <point x="795.75" y="177"/>
      <point x="795.75" y="79" type="curve"/>
    </contour>
    <contour>
      <point x="918.75" y="646"/>
      <point x="856.75" y="540"/>
      <point x="918.75" y="646" type="curve"/>
      <point x="785.75" y="704"/>
      <point x="671.75" y="727"/>
      <point x="527.75" y="727" type="curve"/>
      <point x="242.75" y="727"/>
      <point x="34.75" y="621"/>
      <point x="34.75" y="359" type="curve"/>
      <point x="34.75" y="94"/>
      <point x="250.75" y="-5"/>
      <point x="541.75" y="-5" type="curve"/>
      <point x="696.75" y="-5"/>
      <point x="796.75" y="23"/>
      <point x="941.75" y="79" type="curve"/>
      <point x="860.75" y="166"/>
      <point x="941.75" y="79"/>
      <point x="860.75" y="166" type="curve"/>
      <point x="747.75" y="123"/>
      <point x="662.75" y="117"/>
      <point x="541.75" y="117" type="curve"/>
      <point x="341.75" y="117"/>
      <point x="195.75" y="188"/>
      <point x="195.75" y="371" type="curve"/>
      <point x="195.75" y="542"/>
      <point x="337.75" y="605"/>
      <point x="527.75" y="605" type="curve"/>
      <point x="641.75" y="605"/>
      <point x="732.75" y="592"/>
      <point x="856.75" y="540" type="curve"/>
    </contour>
    <contour>
      <point x="527.75" y="780" type="move" name="top"/>
    </contour>
    <contour>
      <point x="593.75" y="16" type="move" name="bottom"/>
    </contour>
  </outline>
</glyph>
<glyph name="H" format="1">
  <advance width="945.0"/>
  <unicode hex="0048"/>
  <outline>
    <contour>
      <point x="225.0" y="0"/>
      <point x="64.0" y="0"/>
      <point x="225.0" y="0" type="curve"/>
      <point x="225.0" y="0"/>
      <point x="225.0" y="722"/>
      <point x="225.0" y="722" type="curve"/>
      <point x="64.0" y="722"/>
      <point x="225.0" y="722"/>
      <point x="64.0" y="722" type="curve"/>
      <point x="64.0" y="481"/>
      <point x="64.0" y="241"/>
      <point x="64.0" y="0" type="curve"/>
    </contour>
    <contour>
      <point x="798.0" y="421"/>
      <point x="798.0" y="304"/>
      <point x="798.0" y="421" type="curve"/>
      <point x="580.0" y="421"/>
      <point x="362.0" y="421"/>
      <point x="144.0" y="421" type="curve"/>
      <point x="144.0" y="304"/>
      <point x="144.0" y="421"/>
      <point x="144.0" y="304" type="curve"/>
      <point x="362.0" y="304"/>
      <point x="580.0" y="304"/>
      <point x="798.0" y="304" type="curve"/>
    </contour>
    <contour>
      <point x="881.0" y="0"/>
      <point x="721.0" y="0"/>
      <point x="881.0" y="0" type="curve"/>
      <point x="881.0" y="207"/>
      <point x="881.0" y="515"/>
      <point x="881.0" y="722" type="curve"/>
      <point x="721.0" y="722"/>
      <point x="881.0" y="722"/>
      <point x="721.0" y="722" type="curve"/>
      <point x="721.0" y="722"/>
      <point x="721.0" y="0"/>
      <point x="721.0" y="0" type="curve"/>
    </contour>
  </outline>
</glyph>
<glyph name="I" format="1">
  <advance width="289.0"/>
  <unicode hex="0049"/>
  <outline>
    <contour>
      <point x="225.0" y="0"/>
      <point x="64.0" y="0"/>
      <point x="225.0" y="0" type="curve"/>
      <point x="225.0" y="241"/>
      <point x="225.0" y="481"/>
      <point x="225.0" y="722" type="curve"/>
      <point x="64.0" y="722"/>
      <point x="225.0" y="722"/>
      <point x="64.0" y="722" type="curve"/>
      <point x="64.0" y="481"/>
      <point x="64.0" y="241"/>
      <point x="64.0" y="0" type="curve"/>
    </contour>
    <contour>
      <point x="144.0" y="780" type="move" name="top"/>
    </contour>
    <contour>
      <point x="225.0" y="0" type="move" name="bottom"/>
    </contour>
  </outline>
</glyph>
<glyph name="J" format="1">
  <advance width="545.0"/>
  <unicode hex="004A"/>
  <outline>
    <contour>
      <point x="-2.0" y="45"/>
      <point x="71.0" y="138"/>
      <point x="-2.0" y="45" type="curve"/>
      <point x="42.0" y="22"/>
      <point x="105.0" y="-5"/>
      <point x="180.0" y="-5" type="curve"/>
      <point x="363.0" y="-5"/>
      <point x="485.0" y="72"/>
      <point x="485.0" y="247" type="curve"/>
      <point x="485.0" y="404"/>
      <point x="485.0" y="565"/>
      <point x="485.0" y="722" type="curve"/>
      <point x="325.0" y="722"/>
      <point x="485.0" y="722"/>
      <point x="325.0" y="722" type="curve"/>
      <point x="325.0" y="565"/>
      <point x="325.0" y="404"/>
      <point x="325.0" y="247" type="curve"/>
      <point x="325.0" y="160"/>
      <point x="269.0" y="111"/>
      <point x="180.0" y="111" type="curve"/>
      <point x="137.0" y="111"/>
      <point x="108.0" y="122"/>
      <point x="71.0" y="138" type="curve"/>
    </contour>
  </outline>
</glyph>
<glyph name="K" format="1">
  <advance width="858.0"/>
  <unicode hex="004B"/>
  <outline>
    <contour>
      <point x="574.0" y="722"/>
      <point x="839.0" y="722"/>
      <point x="599.0" y="722" type="curve"/>
      <point x="167.0" y="380" type="line"/>
      <point x="373.0" y="380"/>
      <point x="162.0" y="380"/>
      <point x="368.0" y="380" type="curve"/>
      <point x="814.0" y="722" type="line"/>
    </contour>
    <contour>
      <point x="224.0" y="0"/>
      <point x="64.0" y="0"/>
      <point x="224.0" y="0" type="curve"/>
      <point x="224.0" y="0"/>
      <point x="224.0" y="722"/>
      <point x="224.0" y="722" type="curve"/>
      <point x="64.0" y="722"/>
      <point x="224.0" y="722"/>
      <point x="64.0" y="722" type="curve"/>
      <point x="64.0" y="481"/>
      <point x="64.0" y="241"/>
      <point x="64.0" y="0" type="curve"/>
    </contour>
    <contour>
      <point x="874.0" y="0"/>
      <point x="600.0" y="0"/>
      <point x="848.0" y="0" type="curve"/>
      <point x="368.0" y="380" type="line"/>
      <point x="162.0" y="380"/>
      <point x="373.0" y="380"/>
      <point x="167.0" y="380" type="curve"/>
      <point x="626.0" y="0" type="line"/>
    </contour>
    <contour>
      <point x="447.0" y="6" type="move" name="bottom"/>
    </contour>
  </outline>
</glyph>
<glyph name="L" format="1">
  <advance width="703.0"/>
  <unicode hex="004C"/>
  <outline>
    <contour>
      <point x="224.0" y="0"/>
      <point x="64.0" y="0"/>
      <point x="224.0" y="0" type="curve"/>
      <point x="224.0" y="241"/>
      <point x="224.0" y="481"/>
      <point x="224.0" y="722" type="curve"/>
      <point x="64.0" y="722"/>
      <point x="224.0" y="722"/>
      <point x="64.0" y="722" type="curve"/>
      <point x="64.0" y="481"/>
      <point x="64.0" y="241"/>
      <point x="64.0" y="0" type="curve"/>
    </contour>
    <contour>
      <point x="143.0" y="0"/>
      <point x="143.0" y="117"/>
      <point x="143.0" y="0" type="curve"/>
      <point x="326.0" y="0"/>
      <point x="508.0" y="0"/>
      <point x="691.0" y="0" type="curve"/>
      <point x="691.0" y="117"/>
      <point x="691.0" y="0"/>
      <point x="691.0" y="117" type="curve"/>
      <point x="508.0" y="117"/>
      <point x="326.0" y="117"/>
      <point x="143.0" y="117" type="curve"/>
    </contour>
    <contour>
      <point x="143.0" y="780" type="move" name="top"/>
    </contour>
    <contour>
      <point x="377.0" y="7" type="move" name="bottom"/>
    </contour>
  </outline>
</glyph>
<glyph name="M" format="1">
  <advance width="1142.0"/>
  <unicode hex="004D"/>
  <outline>
    <contour>
      <point x="1101.0" y="0"/>
      <point x="940.0" y="0"/>
      <point x="1101.0" y="0" type="curve"/>
      <point x="1074.0" y="241"/>
      <point x="1041.0" y="481"/>
      <point x="1014.0" y="722" type="curve"/>
      <point x="868.0" y="722"/>
      <point x="1014.0" y="722"/>
      <point x="868.0" y="722" type="curve"/>
      <point x="894.0" y="482"/>
      <point x="914.0" y="240"/>
      <point x="940.0" y="0" type="curve"/>
    </contour>
    <contour>
      <point x="205.0" y="0"/>
      <point x="44.0" y="0"/>
      <point x="205.0" y="0" type="curve"/>
      <point x="230.0" y="241"/>
      <point x="254.0" y="481"/>
      <point x="279.0" y="722" type="curve"/>
      <point x="121.0" y="722"/>
      <point x="279.0" y="722"/>
      <point x="121.0" y="722" type="curve"/>
      <point x="95.0" y="481"/>
      <point x="70.0" y="241"/>
      <point x="44.0" y="0" type="curve"/>
    </contour>
    <contour>
      <point x="648.0" y="0"/>
      <point x="488.0" y="0"/>
      <point x="648.0" y="0" type="curve"/>
      <point x="526.0" y="241"/>
      <point x="404.0" y="481"/>
      <point x="282.0" y="722" type="curve"/>
      <point x="123.0" y="722"/>
      <point x="282.0" y="722"/>
      <point x="123.0" y="722" type="curve"/>
      <point x="245.0" y="481"/>
      <point x="366.0" y="241"/>
      <point x="488.0" y="0" type="curve"/>
    </contour>
    <contour>
      <point x="660.0" y="0"/>
      <point x="498.0" y="0"/>
      <point x="660.0" y="0" type="curve"/>
      <point x="779.0" y="241"/>
      <point x="898.0" y="481"/>
      <point x="1018.0" y="722" type="curve"/>
      <point x="859.0" y="722"/>
      <point x="1018.0" y="722"/>
      <point x="859.0" y="722" type="curve"/>
      <point x="739.0" y="481"/>
      <point x="618.0" y="241"/>
      <point x="498.0" y="0" type="curve"/>
    </contour>
  </outline>
</glyph>
<glyph name="N" format="1">
  <advance width="1014.0"/>
  <unicode hex="004E"/>
  <outline>
    <contour>
      <point x="946.0" y="0"/>
      <point x="749.0" y="0"/>
      <point x="946.0" y="0" type="curve"/>
      <point x="716.0" y="239"/>
      <point x="491.0" y="483"/>
      <point x="261.0" y="722" type="curve"/>
      <point x="64.0" y="722"/>
      <point x="261.0" y="722"/>
      <point x="64.0" y="722" type="curve"/>
      <point x="293.0" y="483"/>
      <point x="519.0" y="239"/>
      <point x="749.0" y="0" type="curve"/>
    </contour>
    <contour>
      <point x="791.0" y="722"/>
      <point x="951.0" y="722"/>
      <point x="791.0" y="722" type="curve"/>
      <point x="791.0" y="481"/>
      <point x="791.0" y="241"/>
      <point x="791.0" y="0" type="curve"/>
      <point x="951.0" y="0"/>
      <point x="791.0" y="0"/>
      <point x="951.0" y="0" type="curve"/>
      <point x="951.0" y="241"/>
      <point x="951.0" y="481"/>
      <point x="951.0" y="722" type="curve"/>
    </contour>
    <contour>
      <point x="224.0" y="0"/>
      <point x="64.0" y="0"/>
      <point x="224.0" y="0" type="curve"/>
      <point x="224.0" y="241"/>
      <point x="224.0" y="481"/>
      <point x="224.0" y="722" type="curve"/>
      <point x="64.0" y="722"/>
      <point x="224.0" y="722"/>
      <point x="64.0" y="722" type="curve"/>
      <point x="64.0" y="481"/>
      <point x="64.0" y="241"/>
      <point x="64.0" y="0" type="curve"/>
    </contour>
    <contour>
      <point x="503.0" y="780" type="move" name="top"/>
    </contour>
    <contour>
      <point x="497.0" y="3" type="move" name="bottom"/>
    </contour>
  </outline>
</glyph>
<glyph name="P" format="1">
  <advance width="718.0"/>
  <unicode hex="0050"/>
  <outline>
    <contour>
      <point x="122.0" y="287"/>
      <point x="173.0" y="392"/>
      <point x="122.0" y="287" type="curve"/>
      <point x="196.0" y="261"/>
      <point x="291.0" y="242"/>
      <point x="370.0" y="242" type="curve"/>
      <point x="564.0" y="245"/>
      <point x="696.0" y="307"/>
      <point x="696.0" y="482" type="curve"/>
      <point x="696.0" y="658"/>
      <point x="527.0" y="722"/>
      <point x="325.0" y="722" type="curve"/>
      <point x="266.0" y="722"/>
      <point x="208.0" y="722"/>
      <point x="149.0" y="722" type="curve"/>
      <point x="149.0" y="605"/>
      <point x="149.0" y="722"/>
      <point x="149.0" y="605" type="curve"/>
      <point x="200.0" y="605"/>
      <point x="252.0" y="605"/>
      <point x="303.0" y="605" type="curve"/>
      <point x="427.0" y="605"/>
      <point x="536.0" y="583"/>
      <point x="536.0" y="485" type="curve"/>
      <point x="536.0" y="390"/>
      <point x="452.0" y="359"/>
      <point x="355.0" y="359" type="curve"/>
      <point x="287.0" y="359"/>
      <point x="237.0" y="370"/>
      <point x="173.0" y="392" type="curve"/>
    </contour>
    <contour>
      <point x="224.0" y="0"/>
      <point x="64.0" y="0"/>
      <point x="224.0" y="0" type="curve"/>
      <point x="224.0" y="241"/>
      <point x="224.0" y="481"/>
      <point x="224.0" y="722" type="curve"/>
      <point x="64.0" y="722"/>
      <point x="224.0" y="722"/>
      <point x="64.0" y="722" type="curve"/>
      <point x="64.0" y="481"/>
      <point x="64.0" y="241"/>
      <point x="64.0" y="0" type="curve"/>
    </contour>
  </outline>
</glyph>
<glyph name="Q" format="1">
  <advance width="1019.0"/>
  <unicode hex="0051"/>
  <outline>
    <contour>
      <point x="425.0" y="28"/>
      <point x="563.0" y="87"/>
      <point x="425.0" y="28" type="curve"/>
      <point x="589.0" y="-173"/>
      <point x="755.0" y="-209"/>
      <point x="999.0" y="-209" type="curve"/>
      <point x="999.0" y="-87"/>
      <point x="999.0" y="-209"/>
      <point x="999.0" y="-87" type="curve"/>
      <point x="816.0" y="-87"/>
      <point x="689.0" y="-66"/>
      <point x="563.0" y="87" type="curve"/>
    </contour>
    <contour>
      <point x="196.0" y="360"/>
      <point x="36.0" y="360"/>
      <point x="196.0" y="360" type="curve"/>
      <point x="196.0" y="518"/>
      <point x="320.0" y="601"/>
      <point x="482.0" y="601" type="curve"/>
      <point x="650.0" y="601"/>
      <point x="770.0" y="521"/>
      <point x="770.0" y="360" type="curve"/>
      <point x="770.0" y="201"/>
      <point x="651.0" y="117"/>
      <point x="489.0" y="117" type="curve"/>
      <point x="320.0" y="117"/>
      <point x="196.0" y="198"/>
      <point x="196.0" y="360" type="curve"/>
      <point x="36.0" y="360"/>
      <point x="196.0" y="360"/>
      <point x="36.0" y="360" type="curve"/>
      <point x="36.0" y="117"/>
      <point x="227.0" y="-5"/>
      <point x="481.0" y="-5" type="curve"/>
      <point x="739.0" y="-5"/>
      <point x="930.0" y="120"/>
      <point x="930.0" y="366" type="curve"/>
      <point x="930.0" y="609"/>
      <point x="744.0" y="732"/>
      <point x="490.0" y="732" type="curve"/>
      <point x="230.0" y="732"/>
      <point x="36.0" y="607"/>
      <point x="36.0" y="360" type="curve"/>
    </contour>
  </outline>
</glyph>
<glyph name="S" format="1">
  <advance width="740.0"/>
  <unicode hex="0053"/>
  <outline>
    <contour>
      <point x="30.0" y="52"/>
      <point x="99.0" y="164"/>
      <point x="30.0" y="52" type="curve"/>
      <point x="120.0" y="13"/>
      <point x="224.0" y="-5"/>
      <point x="341.0" y="-5" type="curve"/>
      <point x="540.0" y="-5"/>
      <point x="719.0" y="28"/>
      <point x="719.0" y="195" type="curve"/>
      <point x="719.0" y="339"/>
      <point x="582.0" y="375"/>
      <point x="437.0" y="421" type="curve" smooth="yes"/>
      <point x="325.0" y="457"/>
      <point x="193.0" y="485"/>
      <point x="193.0" y="543" type="curve"/>
      <point x="193.0" y="605"/>
      <point x="270.0" y="615"/>
      <point x="357.0" y="615" type="curve"/>
      <point x="443.0" y="615"/>
      <point x="531.0" y="589"/>
      <point x="597.0" y="567" type="curve"/>
      <point x="662.0" y="661"/>
      <point x="597.0" y="567"/>
      <point x="662.0" y="661" type="curve"/>
      <point x="574.0" y="695"/>
      <point x="477.0" y="727"/>
      <point x="364.0" y="727" type="curve"/>
      <point x="184.0" y="727"/>
      <point x="32.0" y="681"/>
      <point x="32.0" y="532" type="curve"/>
      <point x="32.0" y="390"/>
      <point x="175.0" y="361"/>
      <point x="322.0" y="314" type="curve" smooth="yes"/>
      <point x="432.0" y="279"/>
      <point x="558.0" y="253"/>
      <point x="558.0" y="190" type="curve"/>
      <point x="558.0" y="131"/>
      <point x="454.0" y="117"/>
      <point x="347.0" y="117" type="curve"/>
      <point x="260.0" y="117"/>
      <point x="167.0" y="137"/>
      <point x="99.0" y="164" type="curve"/>
    </contour>
    <contour>
      <point x="363.0" y="780" type="move" name="top"/>
    </contour>
    <contour>
      <point x="388.0" y="10" type="move" name="bottom"/>
    </contour>
  </outline>
</glyph>
<glyph name="T" format="1">
  <advance width="830.0"/>
  <unicode hex="0054"/>
  <outline>
    <contour>
      <point x="495.0" y="0"/>
      <point x="335.0" y="0"/>
      <point x="495.0" y="0" type="curve"/>
      <point x="495.0" y="237"/>
      <point x="495.0" y="473"/>
      <point x="495.0" y="710" type="curve"/>
      <point x="335.0" y="710"/>
      <point x="495.0" y="710"/>
      <point x="335.0" y="710" type="curve"/>
      <point x="335.0" y="473"/>
      <point x="335.0" y="237"/>
      <point x="335.0" y="0" type="curve"/>
    </contour>
    <contour>
      <point x="12.0" y="593"/>
      <point x="12.0" y="727"/>
      <point x="12.0" y="598" type="curve"/>
      <point x="280.0" y="598"/>
      <point x="549.0" y="598"/>
      <point x="818.0" y="598" type="curve"/>
      <point x="818.0" y="727"/>
      <point x="818.0" y="593"/>
      <point x="818.0" y="722" type="curve"/>
      <point x="549.0" y="722"/>
      <point x="280.0" y="722"/>
      <point x="12.0" y="722" type="curve"/>
    </contour>
    <contour>
      <point x="410.0" y="780" type="move" name="top"/>
    </contour>
    <contour>
      <point x="455.0" y="6" type="move" name="bottom"/>
    </contour>
  </outline>
</glyph>
<glyph name="V" format="1">
  <advance width="907.0"/>
  <unicode hex="0056"/>
  <outline>
    <contour>
      <point x="739.0" y="722"/>
      <point x="902.0" y="722"/>
      <point x="739.0" y="722" type="curve"/>
      <point x="618.0" y="481"/>
      <point x="498.0" y="241"/>
      <point x="378.0" y="0" type="curve"/>
      <point x="541.0" y="0"/>
      <point x="378.0" y="0"/>
      <point x="541.0" y="0" type="curve"/>
      <point x="661.0" y="241"/>
      <point x="781.0" y="481"/>
      <point x="902.0" y="722" type="curve"/>
    </contour>
    <contour>
      <point x="3.0" y="722"/>
      <point x="167.0" y="722"/>
      <point x="3.0" y="722" type="curve"/>
      <point x="125.0" y="481"/>
      <point x="248.0" y="241"/>
      <point x="370.0" y="0" type="curve"/>
      <point x="533.0" y="0"/>
      <point x="370.0" y="0"/>
      <point x="533.0" y="0" type="curve"/>
      <point x="411.0" y="241"/>
      <point x="289.0" y="481"/>
      <point x="167.0" y="722" type="curve"/>
    </contour>
  </outline>
</glyph>
<glyph name="W" format="1">
  <advance width="1189.0"/>
  <unicode hex="0057"/>
  <outline>
    <contour>
      <point x="434.0" y="0"/>
      <point x="264.0" y="0"/>
      <point x="419.0" y="0" type="curve"/>
      <point x="505.0" y="241"/>
      <point x="587.0" y="481"/>
      <point x="674.0" y="722" type="curve"/>
      <point x="514.0" y="722"/>
      <point x="679.0" y="722"/>
      <point x="519.0" y="722" type="curve"/>
      <point x="439.0" y="480"/>
      <point x="360.0" y="241"/>
      <point x="279.0" y="0" type="curve"/>
    </contour>
    <contour>
      <point x="529.0" y="722"/>
      <point x="697.0" y="722"/>
      <point x="538.0" y="722" type="curve"/>
      <point x="616.0" y="481"/>
      <point x="685.0" y="241"/>
      <point x="763.0" y="0" type="curve"/>
      <point x="918.0" y="0"/>
      <point x="748.0" y="0"/>
      <point x="903.0" y="0" type="curve"/>
      <point x="833.0" y="241"/>
      <point x="764.0" y="480"/>
      <point x="688.0" y="722" type="curve"/>
    </contour>
    <contour>
      <point x="21.0" y="722"/>
      <point x="182.0" y="722"/>
      <point x="21.0" y="722" type="curve"/>
      <point x="99.0" y="481"/>
      <point x="178.0" y="241"/>
      <point x="256.0" y="0" type="curve"/>
      <point x="411.0" y="0"/>
      <point x="247.0" y="0"/>
      <point x="402.0" y="0" type="curve"/>
      <point x="326.0" y="241"/>
      <point x="258.0" y="481"/>
      <point x="182.0" y="722" type="curve"/>
    </contour>
    <contour>
      <point x="1010.0" y="722"/>
      <point x="1171.0" y="722"/>
      <point x="1010.0" y="722" type="curve"/>
      <point x="933.0" y="481"/>
      <point x="862.0" y="241"/>
      <point x="786.0" y="0" type="curve"/>
      <point x="941.0" y="0"/>
      <point x="771.0" y="0"/>
      <point x="926.0" y="0" type="curve"/>
      <point x="1008.0" y="241"/>
      <point x="1089.0" y="481"/>
      <point x="1171.0" y="722" type="curve"/>
    </contour>
  </outline>
</glyph>
<glyph name="X" format="1">
  <advance width="880.0"/>
  <unicode hex="0058"/>
  <outline>
    <contour>
      <point x="711.0" y="721"/>
      <point x="810.0" y="722"/>
      <point x="665.0" y="722" type="curve"/>
      <point x="463.0" y="497"/>
      <point x="206.0" y="225"/>
      <point x="4.0" y="0" type="curve"/>
      <point x="160.0" y="0"/>
      <point x="53.0" y="0"/>
      <point x="209.0" y="0" type="curve"/>
      <point x="411.0" y="225"/>
      <point x="654.0" y="496"/>
      <point x="856.0" y="721" type="curve"/>
    </contour>
    <contour>
      <point x="89.0" y="722"/>
      <point x="191.0" y="722"/>
      <point x="51.0" y="722" type="curve"/>
      <point x="251.0" y="497"/>
      <point x="484.0" y="225"/>
      <point x="683.0" y="0" type="curve"/>
      <point x="842.0" y="0"/>
      <point x="715.0" y="0"/>
      <point x="874.0" y="0" type="curve"/>
      <point x="670.0" y="230"/>
      <point x="433.0" y="492"/>
      <point x="229.0" y="722" type="curve"/>
    </contour>
  </outline>
</glyph>
<glyph name="Z" format="1">
  <advance width="850.0"/>
  <unicode hex="005A"/>
  <outline>
    <contour>
      <point x="69.0" y="605"/>
      <point x="69.0" y="722"/>
      <point x="69.0" y="605" type="curve"/>
      <point x="276.0" y="605"/>
      <point x="540.0" y="605"/>
      <point x="747.0" y="605" type="curve"/>
      <point x="735.0" y="619"/>
      <point x="712.0" y="612"/>
      <point x="700.0" y="625" type="curve"/>
      <point x="692.0" y="638"/>
      <point x="687.0" y="652"/>
      <point x="679.0" y="664" type="curve"/>
      <point x="670.0" y="655"/>
      <point x="653.0" y="664"/>
      <point x="644.0" y="655" type="curve"/>
      <point x="24.0" y="117" type="line"/>
      <point x="24.0" y="58"/>
      <point x="24.0" y="117"/>
      <point x="24.0" y="58" type="curve"/>
      <point x="24.0" y="0"/>
      <point x="24.0" y="58"/>
      <point x="24.0" y="0" type="curve"/>
      <point x="81.0" y="0"/>
      <point x="24.0" y="0"/>
      <point x="81.0" y="0" type="curve"/>
      <point x="824.0" y="0"/>
      <point x="576.0" y="0"/>
      <point x="824.0" y="0" type="curve"/>
      <point x="824.0" y="117"/>
      <point x="824.0" y="0"/>
      <point x="824.0" y="117" type="curve"/>
      <point x="576.0" y="117"/>
      <point x="329.0" y="117"/>
      <point x="81.0" y="117" type="curve"/>
      <point x="93.0" y="108"/>
      <point x="110.0" y="108"/>
      <point x="122.0" y="100" type="curve"/>
      <point x="132.0" y="87"/>
      <point x="138.0" y="71"/>
      <point x="148.0" y="58" type="curve"/>
      <point x="162.0" y="70"/>
      <point x="189.0" y="55"/>
      <point x="203.0" y="67" type="curve"/>
      <point x="820.0" y="605" type="line"/>
      <point x="820.0" y="664"/>
      <point x="820.0" y="605"/>
      <point x="820.0" y="664" type="curve"/>
      <point x="820.0" y="722"/>
      <point x="820.0" y="664"/>
      <point x="820.0" y="722" type="curve"/>
      <point x="727.0" y="722"/>
      <point x="820.0" y="722"/>
      <point x="727.0" y="722" type="curve"/>
      <point x="526.0" y="722"/>
      <point x="270.0" y="722"/>
      <point x="69.0" y="722" type="curve"/>
    </contour>
    <contour>
      <point x="429.0" y="780" type="move" name="top"/>
    </contour>
  </outline>
</glyph>
<glyph name="bracketleft" format="1">
  <advance width="365.0"/>
  <unicode hex="005B"/>
  <outline>
    <contour>
      <point x="325.0" y="769"/>
      <point x="325.0" y="641"/>
      <point x="325.0" y="769" type="curve"/>
      <point x="258.0" y="769"/>
      <point x="192.0" y="769"/>
      <point x="126.0" y="769" type="curve"/>
      <point x="105.0" y="769"/>
      <point x="74.0" y="769"/>
      <point x="55.0" y="769" type="curve"/>
      <point x="55.0" y="753"/>
      <point x="55.0" y="727"/>
      <point x="55.0" y="710" type="curve"/>
      <point x="55.0" y="455"/>
      <point x="55.0" y="200"/>
      <point x="55.0" y="-55" type="curve"/>
      <point x="55.0" y="-72"/>
      <point x="55.0" y="-96"/>
      <point x="55.0" y="-112" type="curve"/>
      <point x="73.0" y="-112"/>
      <point x="103.0" y="-112"/>
      <point x="125.0" y="-112" type="curve"/>
      <point x="191.0" y="-112"/>
      <point x="258.0" y="-112"/>
      <point x="325.0" y="-112" type="curve"/>
      <point x="325.0" y="17"/>
      <point x="325.0" y="-112"/>
      <point x="325.0" y="17" type="curve"/>
      <point x="258.0" y="17"/>
      <point x="191.0" y="17"/>
      <point x="125.0" y="17" type="curve"/>
      <point x="215.0" y="17"/>
      <point x="125.0" y="17"/>
      <point x="215.0" y="17" type="curve"/>
      <point x="215.0" y="-55"/>
      <point x="215.0" y="17"/>
      <point x="215.0" y="-55" type="curve"/>
      <point x="215.0" y="200"/>
      <point x="215.0" y="455"/>
      <point x="215.0" y="710" type="curve"/>
      <point x="215.0" y="641"/>
      <point x="215.0" y="710"/>
      <point x="215.0" y="641" type="curve"/>
      <point x="126.0" y="641"/>
      <point x="215.0" y="641"/>
      <point x="126.0" y="641" type="curve"/>
      <point x="192.0" y="641"/>
      <point x="258.0" y="641"/>
      <point x="325.0" y="641" type="curve"/>
    </contour>
  </outline>
</glyph>
<glyph name="backslash" format="1">
  <advance width="716.0"/>
  <unicode hex="005C"/>
  <outline>
    <contour>
      <point x="697.0" y="-68"/>
      <point x="529.0" y="-68"/>
      <point x="697.0" y="-68" type="curve"/>
      <point x="527.0" y="236"/>
      <point x="357.0" y="540"/>
      <point x="187.0" y="844" type="curve"/>
      <point x="19.0" y="844"/>
      <point x="187.0" y="844"/>
      <point x="19.0" y="844" type="curve"/>
      <point x="189.0" y="540"/>
      <point x="359.0" y="236"/>
      <point x="529.0" y="-68" type="curve"/>
    </contour>
  </outline>
</glyph>
<glyph name="bracketright" format="1">
  <advance width="364.0"/>
  <unicode hex="005D"/>
  <outline>
    <contour>
      <point x="40.0" y="641"/>
      <point x="40.0" y="769"/>
      <point x="40.0" y="641" type="curve"/>
      <point x="106.0" y="641"/>
      <point x="172.0" y="641"/>
      <point x="239.0" y="641" type="curve"/>
      <point x="222.0" y="650"/>
      <point x="204.0" y="658"/>
      <point x="188.0" y="668" type="curve"/>
      <point x="172.0" y="679"/>
      <point x="164.0" y="698"/>
      <point x="149.0" y="710" type="curve"/>
      <point x="149.0" y="455"/>
      <point x="149.0" y="200"/>
      <point x="149.0" y="-55" type="curve"/>
      <point x="165.0" y="-43"/>
      <point x="176.0" y="-25"/>
      <point x="192.0" y="-14" type="curve"/>
      <point x="208.0" y="-3"/>
      <point x="224.0" y="6"/>
      <point x="240.0" y="17" type="curve"/>
      <point x="173.0" y="17"/>
      <point x="106.0" y="17"/>
      <point x="40.0" y="17" type="curve"/>
      <point x="40.0" y="-112"/>
      <point x="40.0" y="17"/>
      <point x="40.0" y="-112" type="curve"/>
      <point x="106.0" y="-112"/>
      <point x="173.0" y="-112"/>
      <point x="240.0" y="-112" type="curve"/>
      <point x="310.0" y="-112"/>
      <point x="240.0" y="-112"/>
      <point x="310.0" y="-112" type="curve"/>
      <point x="310.0" y="-55"/>
      <point x="310.0" y="-112"/>
      <point x="310.0" y="-55" type="curve"/>
      <point x="310.0" y="200"/>
      <point x="310.0" y="455"/>
      <point x="310.0" y="710" type="curve"/>
      <point x="310.0" y="769"/>
      <point x="310.0" y="710"/>
      <point x="310.0" y="769" type="curve"/>
      <point x="239.0" y="769"/>
      <point x="310.0" y="769"/>
      <point x="239.0" y="769" type="curve"/>
      <point x="172.0" y="769"/>
      <point x="106.0" y="769"/>
      <point x="40.0" y="769" type="curve"/>
    </contour>
  </outline>
</glyph>
<glyph name="asciicircum" format="1">
  <advance width="671.0"/>
  <unicode hex="005E"/>
  <outline>
    <contour>
      <point x="188.0" y="452"/>
      <point x="28.0" y="452"/>
      <point x="188.0" y="452" type="curve"/>
      <point x="263.0" y="551"/>
      <point x="339.0" y="650"/>
      <point x="414.0" y="749" type="curve"/>
      <point x="254.0" y="749"/>
      <point x="414.0" y="749"/>
      <point x="254.0" y="749" type="curve"/>
      <point x="178.0" y="650"/>
      <point x="103.0" y="551"/>
      <point x="28.0" y="452" type="curve"/>
    </contour>
    <contour>
      <point x="643.0" y="452"/>
      <point x="483.0" y="452"/>
      <point x="643.0" y="452" type="curve"/>
      <point x="568.0" y="551"/>
      <point x="490.0" y="650"/>
      <point x="414.0" y="749" type="curve"/>
      <point x="254.0" y="749"/>
      <point x="414.0" y="749"/>
      <point x="254.0" y="749" type="curve"/>
      <point x="329.0" y="650"/>
      <point x="407.0" y="551"/>
      <point x="483.0" y="452" type="curve"/>
    </contour>
  </outline>
</glyph>
<glyph name="underscore" format="1">
  <advance width="886.0"/>
  <unicode hex="005F"/>
  <outline>
    <contour>
      <point x="-0.25" y="-181"/>
      <point x="-0.25" y="-64"/>
      <point x="-0.25" y="-181" type="curve"/>
      <point x="294.75" y="-181"/>
      <point x="590.75" y="-181"/>
      <point x="885.75" y="-181" type="curve"/>
      <point x="885.75" y="-64"/>
      <point x="885.75" y="-181"/>
      <point x="885.75" y="-64" type="curve"/>
      <point x="590.75" y="-64"/>
      <point x="294.75" y="-64"/>
      <point x="-0.25" y="-64" type="curve"/>
    </contour>
  </outline>
</glyph>
<glyph name="grave" format="1">
  <advance width="478.0"/>
  <unicode hex="0060"/>
  <outline>
    <contour>
      <point x="363.0" y="531" type="line"/>
      <point x="215.0" y="697" type="line"/>
      <point x="6.0" y="697" type="line"/>
      <point x="200.0" y="531" type="line"/>
    </contour>
    <contour>
      <point x="269.0" y="532" type="move" name="_top"/>
    </contour>
  </outline>
</glyph>
<glyph name="b" format="1">
  <advance width="783.0"/>
  <unicode hex="0062"/>
  <outline>
    <contour>
      <point x="124.0" y="360"/>
      <point x="135.0" y="335"/>
      <point x="165.0" y="304" type="curve"/>
      <point x="228.0" y="374"/>
      <point x="294.0" y="416"/>
      <point x="402.0" y="416" type="curve"/>
      <point x="511.0" y="416"/>
      <point x="589.0" y="367"/>
      <point x="589.0" y="263" type="curve"/>
      <point x="592.0" y="161"/>
      <point x="510.0" y="116"/>
      <point x="402.0" y="117" type="curve"/>
      <point x="303.0" y="117"/>
      <point x="227.0" y="159"/>
      <point x="179.0" y="211" type="curve"/>
      <point x="142.0" y="186"/>
      <point x="119.0" y="171"/>
      <point x="82.0" y="146" type="curve"/>
      <point x="181.0" y="56"/>
      <point x="279.0" y="-5"/>
      <point x="434.0" y="-5" type="curve"/>
      <point x="622.0" y="-5"/>
      <point x="753.0" y="80"/>
      <point x="752.0" y="264" type="curve"/>
      <point x="752.0" y="451"/>
      <point x="620.0" y="539"/>
      <point x="428.0" y="539" type="curve"/>
      <point x="282.0" y="539"/>
      <point x="193.0" y="489"/>
      <point x="94.0" y="392" type="curve"/>
    </contour>
    <contour>
      <point x="115.0" y="0"/>
      <point x="152.0" y="0"/>
      <point x="214.0" y="0" type="curve"/>
      <point x="214.0" y="309"/>
      <point x="214.0" y="491"/>
      <point x="214.0" y="800" type="curve"/>
      <point x="152.0" y="800"/>
      <point x="115.0" y="800"/>
      <point x="53.0" y="800" type="curve"/>
      <point x="53.0" y="491"/>
      <point x="53.0" y="309"/>
      <point x="53.0" y="0" type="curve"/>
    </contour>
  </outline>
</glyph>
<glyph name="c" format="1">
  <advance width="663.0"/>
  <unicode hex="0063"/>
  <outline>
    <contour>
      <point x="651.0" y="469"/>
      <point x="576.0" y="381"/>
      <point x="651.0" y="469" type="curve"/>
      <point x="579.0" y="511"/>
      <point x="489.0" y="538"/>
      <point x="402.0" y="538" type="curve"/>
      <point x="188.0" y="538"/>
      <point x="31.0" y="466"/>
      <point x="31.0" y="267" type="curve"/>
      <point x="31.0" y="70"/>
      <point x="184.0" y="-5"/>
      <point x="397.0" y="-5" type="curve"/>
      <point x="494.0" y="-5"/>
      <point x="588.0" y="19"/>
      <point x="647.0" y="68" type="curve"/>
      <point x="562.0" y="167"/>
      <point x="647.0" y="68"/>
      <point x="562.0" y="167" type="curve"/>
      <point x="516.0" y="132"/>
      <point x="461.0" y="117"/>
      <point x="404.0" y="117" type="curve"/>
      <point x="283.0" y="117"/>
      <point x="192.0" y="155"/>
      <point x="192.0" y="267" type="curve"/>
      <point x="192.0" y="377"/>
      <point x="279.0" y="416"/>
      <point x="398.0" y="416" type="curve"/>
      <point x="453.0" y="416"/>
      <point x="509.0" y="411"/>
      <point x="576.0" y="381" type="curve"/>
    </contour>
    <contour>
      <point x="379.0" y="610" type="move" name="top"/>
    </contour>
    <contour>
      <point x="391.0" y="13" type="move" name="bottom"/>
    </contour>
  </outline>
</glyph>
<glyph name="f" format="1">
  <advance width="572"/>
  <unicode hex="0066"/>
  <outline>
    <contour>
      <point x="22.75" y="416"/>
      <point x="22.75" y="533"/>
      <point x="22.75" y="416" type="curve"/>
      <point x="22.75" y="416"/>
      <point x="539.75" y="416"/>
      <point x="539.75" y="416" type="curve"/>
      <point x="539.75" y="533"/>
      <point x="539.75" y="416"/>
      <point x="539.75" y="533" type="curve"/>
      <point x="539.75" y="533"/>
      <point x="22.75" y="533"/>
      <point x="22.75" y="533" type="curve"/>
    </contour>
    <contour>
      <point x="323.75" y="0"/>
      <point x="162.75" y="0"/>
      <point x="323.75" y="0" type="curve"/>
      <point x="323.75" y="0"/>
      <point x="323.75" y="602"/>
      <point x="323.75" y="602" type="curve"/>
      <point x="322.75" y="657"/>
      <point x="362.75" y="688"/>
      <point x="420.75" y="688" type="curve"/>
      <point x="454.75" y="688"/>
      <point x="489.75" y="682"/>
      <point x="521.75" y="670" type="curve"/>
      <point x="586.75" y="764"/>
      <point x="521.75" y="670"/>
      <point x="586.75" y="764" type="curve"/>
      <point x="533.75" y="784"/>
      <point x="477.75" y="800"/>
      <point x="420.75" y="800" type="curve"/>
      <point x="272.75" y="800"/>
      <point x="160.75" y="737"/>
      <point x="162.75" y="602" type="curve"/>
      <point x="162.75" y="602"/>
      <point x="162.75" y="0"/>
      <point x="162.75" y="0" type="curve"/>
    </contour>
  </outline>
</glyph>
<glyph name="h" format="1">
  <advance width="747.0"/>
  <unicode hex="0068"/>
  <outline>
    <contour>
      <point x="181.0" y="261"/>
      <point x="94.0" y="325"/>
      <point x="178.0" y="266" type="curve"/>
      <point x="216.0" y="366"/>
      <point x="304.0" y="421"/>
      <point x="395.0" y="421" type="curve"/>
      <point x="478.0" y="421"/>
      <point x="537.0" y="371"/>
      <point x="537.0" y="291" type="curve"/>
      <point x="537.0" y="190"/>
      <point x="537.0" y="102"/>
      <point x="537.0" y="0" type="curve"/>
      <point x="698.0" y="0"/>
      <point x="537.0" y="0"/>
      <point x="698.0" y="0" type="curve"/>
      <point x="698.0" y="106"/>
      <point x="698.0" y="211"/>
      <point x="698.0" y="317" type="curve"/>
      <point x="698.0" y="475"/>
      <point x="587.0" y="538"/>
      <point x="420.0" y="538" type="curve"/>
      <point x="283.0" y="538"/>
      <point x="163.0" y="462"/>
      <point x="97.0" y="320" type="curve"/>
    </contour>
    <contour>
      <point x="214.0" y="0"/>
      <point x="53.0" y="0"/>
      <point x="214.0" y="0" type="curve"/>
      <point x="214.0" y="267"/>
      <point x="214.0" y="533"/>
      <point x="214.0" y="800" type="curve"/>
      <point x="53.0" y="800"/>
      <point x="214.0" y="800"/>
      <point x="53.0" y="800" type="curve"/>
      <point x="53.0" y="533"/>
      <point x="53.0" y="267"/>
      <point x="53.0" y="0" type="curve"/>
    </contour>
  </outline>
</glyph>
<glyph name="i" format="1">
  <advance width="276.0"/>
  <unicode hex="0069"/>
  <outline>
    <contour>
      <point x="223.0" y="0"/>
      <point x="55.0" y="0"/>
      <point x="223.0" y="0" type="curve"/>
      <point x="223.0" y="178"/>
      <point x="223.0" y="355"/>
      <point x="223.0" y="533" type="curve"/>
      <point x="55.0" y="533"/>
      <point x="223.0" y="533"/>
      <point x="55.0" y="533" type="curve"/>
      <point x="55.0" y="355"/>
      <point x="55.0" y="178"/>
      <point x="55.0" y="0" type="curve"/>
    </contour>
    <contour>
      <point x="232.0" y="686"/>
      <point x="43.0" y="686"/>
      <point x="232.0" y="686" type="curve"/>
      <point x="232.0" y="738"/>
      <point x="191.0" y="762"/>
      <point x="136.0" y="762" type="curve"/>
      <point x="81.0" y="762"/>
      <point x="43.0" y="735"/>
      <point x="43.0" y="686" type="curve"/>
      <point x="232.0" y="686"/>
      <point x="43.0" y="686"/>
      <point x="232.0" y="686" type="curve"/>
      <point x="232.0" y="633"/>
      <point x="191.0" y="611"/>
      <point x="135.0" y="611" type="curve"/>
      <point x="80.0" y="611"/>
      <point x="43.0" y="636"/>
      <point x="43.0" y="686" type="curve"/>
    </contour>
    <contour>
      <point x="136.0" y="610" type="move" name="top"/>
    </contour>
    <contour>
      <point x="210.0" y="14" type="move" name="bottom"/>
    </contour>
  </outline>
</glyph>
<glyph name="j" format="1">
  <advance width="358.0"/>
  <unicode hex="006A"/>
  <outline>
    <contour>
      <point x="-17.0" y="-302"/>
      <point x="5.0" y="-191"/>
      <point x="-17.0" y="-302" type="curve"/>
      <point x="-5.0" y="-303"/>
      <point x="10.0" y="-305"/>
      <point x="27.0" y="-305" type="curve"/>
      <point x="176.0" y="-305"/>
      <point x="301.0" y="-252"/>
      <point x="301.0" y="-118" type="curve"/>
      <point x="301.0" y="99"/>
      <point x="301.0" y="316"/>
      <point x="301.0" y="534" type="curve"/>
      <point x="141.0" y="534"/>
      <point x="301.0" y="534"/>
      <point x="141.0" y="534" type="curve"/>
      <point x="141.0" y="316"/>
      <point x="141.0" y="99"/>
      <point x="141.0" y="-118" type="curve"/>
      <point x="141.0" y="-171"/>
      <point x="92.0" y="-193"/>
      <point x="34.0" y="-193" type="curve"/>
      <point x="24.0" y="-193"/>
      <point x="11.0" y="-192"/>
      <point x="5.0" y="-191" type="curve"/>
    </contour>
    <contour>
      <point x="318.0" y="686"/>
      <point x="129.0" y="686"/>
      <point x="318.0" y="686" type="curve"/>
      <point x="318.0" y="738"/>
      <point x="277.0" y="762"/>
      <point x="222.0" y="762" type="curve"/>
      <point x="167.0" y="762"/>
      <point x="129.0" y="735"/>
      <point x="129.0" y="686" type="curve"/>
      <point x="318.0" y="686"/>
      <point x="129.0" y="686"/>
      <point x="318.0" y="686" type="curve"/>
      <point x="318.0" y="633"/>
      <point x="277.0" y="611"/>
      <point x="221.0" y="611" type="curve"/>
      <point x="166.0" y="611"/>
      <point x="129.0" y="636"/>
      <point x="129.0" y="686" type="curve"/>
    </contour>
  </outline>
</glyph>
<glyph name="k" format="1">
  <advance width="743.0"/>
  <unicode hex="006B"/>
  <outline>
    <contour>
      <point x="214.0" y="0"/>
      <point x="53.0" y="0"/>
      <point x="214.0" y="0" type="curve"/>
      <point x="214.0" y="0"/>
      <point x="214.0" y="800"/>
      <point x="214.0" y="800" type="curve"/>
      <point x="53.0" y="800"/>
      <point x="214.0" y="800"/>
      <point x="53.0" y="800" type="curve"/>
      <point x="53.0" y="533"/>
      <point x="53.0" y="267"/>
      <point x="53.0" y="0" type="curve"/>
    </contour>
    <contour>
      <point x="467.0" y="533"/>
      <point x="713.0" y="533"/>
      <point x="485.0" y="533" type="curve"/>
      <point x="168.0" y="275" type="line"/>
      <point x="366.0" y="275"/>
      <point x="168.0" y="275"/>
      <point x="366.0" y="275" type="curve"/>
      <point x="695.0" y="533" type="line"/>
    </contour>
    <contour>
      <point x="746.0" y="0"/>
      <point x="502.0" y="0"/>
      <point x="730.0" y="0" type="curve"/>
      <point x="365.0" y="275" type="line"/>
      <point x="168.0" y="275"/>
      <point x="365.0" y="275"/>
      <point x="168.0" y="275" type="curve"/>
      <point x="518.0" y="0" type="line"/>
    </contour>
    <contour>
      <point x="388.0" y="-3" type="move" name="bottom"/>
    </contour>
  </outline>
</glyph>
<glyph name="l" format="1">
  <advance width="266.0"/>
  <unicode hex="006C"/>
  <outline>
    <contour>
      <point x="213.0" y="0"/>
      <point x="53.0" y="0"/>
      <point x="213.0" y="0" type="curve"/>
      <point x="213.0" y="267"/>
      <point x="213.0" y="533"/>
      <point x="213.0" y="800" type="curve"/>
      <point x="53.0" y="800"/>
      <point x="213.0" y="800"/>
      <point x="53.0" y="800" type="curve"/>
      <point x="53.0" y="533"/>
      <point x="53.0" y="267"/>
      <point x="53.0" y="0" type="curve"/>
    </contour>
    <contour>
      <point x="132.0" y="876" type="move" name="top"/>
    </contour>
    <contour>
      <point x="191.0" y="12" type="move" name="bottom"/>
    </contour>
  </outline>
</glyph>
<glyph name="m" format="1">
  <advance width="1127.0"/>
  <unicode hex="006D"/>
  <outline>
    <contour>
      <point x="609.0" y="256"/>
      <point x="526.0" y="315"/>
      <point x="609.0" y="256" type="curve"/>
      <point x="659.0" y="352"/>
      <point x="713.0" y="416"/>
      <point x="798.0" y="416" type="curve"/>
      <point x="877.0" y="416"/>
      <point x="917.0" y="383"/>
      <point x="917.0" y="305" type="curve"/>
      <point x="917.0" y="204"/>
      <point x="917.0" y="102"/>
      <point x="917.0" y="0" type="curve"/>
      <point x="1077.0" y="0"/>
      <point x="917.0" y="0"/>
      <point x="1077.0" y="0" type="curve"/>
      <point x="1077.0" y="106"/>
      <point x="1077.0" y="211"/>
      <point x="1077.0" y="317" type="curve"/>
      <point x="1077.0" y="475"/>
      <point x="993.0" y="538"/>
      <point x="831.0" y="538" type="curve"/>
      <point x="694.0" y="538"/>
      <point x="608.0" y="454"/>
      <point x="526.0" y="315" type="curve"/>
    </contour>
    <contour>
      <point x="178.0" y="262"/>
      <point x="94.0" y="321"/>
      <point x="178.0" y="262" type="curve"/>
      <point x="227.0" y="357"/>
      <point x="281.0" y="416"/>
      <point x="366.0" y="416" type="curve"/>
      <point x="445.0" y="416"/>
      <point x="485.0" y="383"/>
      <point x="485.0" y="305" type="curve"/>
      <point x="485.0" y="204"/>
      <point x="485.0" y="102"/>
      <point x="485.0" y="0" type="curve"/>
      <point x="646.0" y="0"/>
      <point x="485.0" y="0"/>
      <point x="646.0" y="0" type="curve"/>
      <point x="646.0" y="106"/>
      <point x="646.0" y="211"/>
      <point x="646.0" y="317" type="curve"/>
      <point x="646.0" y="475"/>
      <point x="563.0" y="538"/>
      <point x="402.0" y="538" type="curve"/>
      <point x="262.0" y="538"/>
      <point x="194.0" y="464"/>
      <point x="94.0" y="321" type="curve"/>
    </contour>
    <contour>
      <point x="214.0" y="0"/>
      <point x="53.0" y="0"/>
      <point x="214.0" y="0" type="curve"/>
      <point x="214.0" y="178"/>
      <point x="214.0" y="355"/>
      <point x="214.0" y="533" type="curve"/>
      <point x="53.0" y="533"/>
      <point x="214.0" y="533"/>
      <point x="53.0" y="533" type="curve"/>
      <point x="53.0" y="355"/>
      <point x="53.0" y="178"/>
      <point x="53.0" y="0" type="curve"/>
    </contour>
  </outline>
</glyph>
<glyph name="n" format="1">
  <advance width="746.0"/>
  <unicode hex="006E"/>
  <outline>
    <contour>
      <point x="123.0" y="275"/>
      <point x="148.0" y="266"/>
      <point x="177.0" y="245" type="curve"/>
      <point x="213.0" y="350"/>
      <point x="281.0" y="416"/>
      <point x="389.0" y="416" type="curve"/>
      <point x="472.0" y="416"/>
      <point x="537.0" y="381"/>
      <point x="537.0" y="305" type="curve"/>
      <point x="537.0" y="194"/>
      <point x="537.0" y="111"/>
      <point x="537.0" y="0" type="curve"/>
      <point x="595.0" y="0"/>
      <point x="639.0" y="0"/>
      <point x="697.0" y="0" type="curve"/>
      <point x="697.0" y="116"/>
      <point x="697.0" y="201"/>
      <point x="697.0" y="317" type="curve"/>
      <point x="697.0" y="470"/>
      <point x="588.0" y="538"/>
      <point x="425.0" y="538" type="curve"/>
      <point x="262.0" y="538"/>
      <point x="155.0" y="449"/>
      <point x="94.0" y="296" type="curve"/>
    </contour>
    <contour>
      <point x="214.0" y="0"/>
      <point x="53.0" y="0"/>
      <point x="214.0" y="0" type="curve"/>
      <point x="214.0" y="178"/>
      <point x="214.0" y="355"/>
      <point x="214.0" y="533" type="curve"/>
      <point x="53.0" y="533"/>
      <point x="214.0" y="533"/>
      <point x="53.0" y="533" type="curve"/>
      <point x="53.0" y="355"/>
      <point x="53.0" y="178"/>
      <point x="53.0" y="0" type="curve"/>
    </contour>
    <contour>
      <point x="391.0" y="610" type="move" name="top"/>
    </contour>
    <contour>
      <point x="375.0" y="44" type="move" name="bottom"/>
    </contour>
  </outline>
</glyph>
<glyph name="o" format="1">
  <advance width="763.0"/>
  <unicode hex="006F"/>
  <outline>
    <contour>
      <point x="192.0" y="268" type="curve"/>
      <point x="192.0" y="367"/>
      <point x="264.0" y="421"/>
      <point x="374.0" y="421" type="curve"/>
      <point x="492.0" y="421"/>
      <point x="572.0" y="368"/>
      <point x="572.0" y="266" type="curve"/>
      <point x="572.0" y="160"/>
      <point x="493.0" y="112"/>
      <point x="386.0" y="112" type="curve"/>
      <point x="273.0" y="112"/>
      <point x="192.0" y="160"/>
      <point x="192.0" y="268" type="curve"/>
      <point x="31.0" y="268"/>
      <point x="192.0" y="268"/>
      <point x="31.0" y="268" type="curve"/>
      <point x="31.0" y="78"/>
      <point x="178.0" y="-5"/>
      <point x="378.0" y="-5" type="curve"/>
      <point x="582.0" y="-5"/>
      <point x="732.0" y="74"/>
      <point x="732.0" y="266" type="curve"/>
      <point x="732.0" y="448"/>
      <point x="588.0" y="538"/>
      <point x="382.0" y="538" type="curve"/>
      <point x="176.0" y="538"/>
      <point x="31.0" y="448"/>
      <point x="31.0" y="268" type="curve"/>
      <point x="192.0" y="268"/>
      <point x="31.0" y="268"/>
    </contour>
    <contour>
      <point x="381.0" y="610" type="move" name="top"/>
    </contour>
  </outline>
</glyph>
<glyph name="p" format="1">
  <advance width="781.0"/>
  <unicode hex="0070"/>
  <outline>
    <contour>
      <point x="124.0" y="332"/>
      <point x="127.0" y="311"/>
      <point x="157.0" y="280" type="curve"/>
      <point x="230.0" y="376"/>
      <point x="302.0" y="426"/>
      <point x="417.0" y="426" type="curve"/>
      <point x="516.0" y="426"/>
      <point x="589.0" y="368"/>
      <point x="589.0" y="263" type="curve"/>
      <point x="591.0" y="161"/>
      <point x="513.0" y="111"/>
      <point x="409.0" y="112" type="curve"/>
      <point x="314.0" y="112"/>
      <point x="234.0" y="143"/>
      <point x="159.0" y="198" type="curve"/>
      <point x="124.0" y="176"/>
      <point x="118.0" y="138"/>
      <point x="83.0" y="116" type="curve"/>
      <point x="173.0" y="39"/>
      <point x="289.0" y="-5"/>
      <point x="426.0" y="-5" type="curve"/>
      <point x="614.0" y="-5"/>
      <point x="750.0" y="88"/>
      <point x="749.0" y="269" type="curve"/>
      <point x="749.0" y="444"/>
      <point x="622.0" y="540"/>
      <point x="443.0" y="540" type="curve"/>
      <point x="288.0" y="540"/>
      <point x="185.0" y="483"/>
      <point x="94.0" y="363" type="curve"/>
    </contour>
    <contour>
      <point x="213.0" y="-300"/>
      <point x="53.0" y="-300"/>
      <point x="213.0" y="-300" type="curve"/>
      <point x="213.0" y="-22"/>
      <point x="213.0" y="255"/>
      <point x="213.0" y="533" type="curve"/>
      <point x="53.0" y="533"/>
      <point x="213.0" y="533"/>
      <point x="53.0" y="533" type="curve"/>
      <point x="53.0" y="255"/>
      <point x="53.0" y="-22"/>
      <point x="53.0" y="-300" type="curve"/>
    </contour>
  </outline>
</glyph>
<glyph name="q" format="1">
  <advance width="790.0"/>
  <unicode hex="0071"/>
  <outline>
    <contour>
      <point x="661.0" y="320"/>
      <point x="662.0" y="346"/>
      <point x="693.0" y="375" type="curve"/>
      <point x="591.0" y="477"/>
      <point x="496.0" y="538"/>
      <point x="349.0" y="538" type="curve"/>
      <point x="164.0" y="538"/>
      <point x="31.0" y="443"/>
      <point x="31.0" y="262" type="curve"/>
      <point x="31.0" y="83"/>
      <point x="169.0" y="-5"/>
      <point x="355.0" y="-5" type="curve"/>
      <point x="507.0" y="-5"/>
      <point x="607.0" y="58"/>
      <point x="722.0" y="161" type="curve"/>
      <point x="687.0" y="187"/>
      <point x="661.0" y="203"/>
      <point x="625.0" y="228" type="curve"/>
      <point x="559.0" y="145"/>
      <point x="481.0" y="112"/>
      <point x="377.0" y="112" type="curve"/>
      <point x="271.0" y="112"/>
      <point x="192.0" y="164"/>
      <point x="192.0" y="268" type="curve"/>
      <point x="192.0" y="371"/>
      <point x="270.0" y="421"/>
      <point x="375.0" y="421" type="curve"/>
      <point x="486.0" y="421"/>
      <point x="567.0" y="366"/>
      <point x="630.0" y="291" type="curve"/>
    </contour>
    <contour>
      <point x="631.0" y="-300"/>
      <point x="675.0" y="-300"/>
      <point x="737.0" y="-300" type="curve"/>
      <point x="737.0" y="8"/>
      <point x="737.0" y="225"/>
      <point x="737.0" y="533" type="curve"/>
      <point x="675.0" y="533"/>
      <point x="631.0" y="533"/>
      <point x="569.0" y="533" type="curve"/>
      <point x="569.0" y="225"/>
      <point x="569.0" y="8"/>
      <point x="569.0" y="-300" type="curve"/>
    </contour>
  </outline>
</glyph>
<glyph name="r" format="1">
  <advance width="477.0"/>
  <unicode hex="0072"/>
  <outline>
    <contour>
      <point x="115.0" y="0"/>
      <point x="152.0" y="0"/>
      <point x="214.0" y="0" type="curve"/>
      <point x="214.0" y="205"/>
      <point x="214.0" y="328"/>
      <point x="214.0" y="533" type="curve"/>
      <point x="152.0" y="533"/>
      <point x="115.0" y="533"/>
      <point x="53.0" y="533" type="curve"/>
      <point x="53.0" y="328"/>
      <point x="53.0" y="205"/>
      <point x="53.0" y="0" type="curve"/>
    </contour>
    <contour>
      <point x="142.0" y="297"/>
      <point x="150.0" y="283"/>
      <point x="171.0" y="246" type="curve"/>
      <point x="243.0" y="366"/>
      <point x="327.0" y="397"/>
      <point x="467.0" y="397" type="curve"/>
      <point x="467.0" y="451"/>
      <point x="467.0" y="484"/>
      <point x="467.0" y="538" type="curve"/>
      <point x="304.0" y="538"/>
      <point x="213.0" y="472"/>
      <point x="121.0" y="334" type="curve"/>
    </contour>
    <contour>
      <point x="215.0" y="610" type="move" name="top"/>
    </contour>
    <contour>
      <point x="138.0" y="35" type="move" name="bottom"/>
    </contour>
  </outline>
</glyph>
<glyph name="t" format="1">
  <advance width="525.125"/>
  <unicode hex="0074"/>
  <outline>
    <contour>
      <point x="30.25" y="417"/>
      <point x="30.25" y="534"/>
      <point x="30.25" y="417" type="curve"/>
      <point x="30.25" y="417"/>
      <point x="486.25" y="417"/>
      <point x="486.25" y="417" type="curve"/>
      <point x="486.25" y="534"/>
      <point x="486.25" y="417"/>
      <point x="486.25" y="534" type="curve"/>
      <point x="486.25" y="534"/>
      <point x="30.25" y="534"/>
      <point x="30.25" y="534" type="curve"/>
    </contour>
    <contour>
      <point x="480.25" y="131"/>
      <point x="519.25" y="27"/>
      <point x="480.25" y="131" type="curve"/>
      <point x="447.25" y="118"/>
      <point x="421.25" y="116"/>
      <point x="386.25" y="116" type="curve"/>
      <point x="339.25" y="116"/>
      <point x="310.25" y="133"/>
      <point x="310.25" y="178" type="curve"/>
      <point x="310.25" y="178"/>
      <point x="310.25" y="694"/>
      <point x="310.25" y="694" type="curve"/>
      <point x="150.25" y="609" type="line"/>
      <point x="150.25" y="609"/>
      <point x="150.25" y="172"/>
      <point x="150.25" y="172" type="curve"/>
      <point x="150.25" y="45"/>
      <point x="239.25" y="-6"/>
      <point x="371.25" y="-6" type="curve"/>
      <point x="437.25" y="-6"/>
      <point x="482.25" y="10"/>
      <point x="519.25" y="27" type="curve"/>
    </contour>
    <contour>
      <point x="387.25" y="11" type="move" name="bottom"/>
    </contour>
  </outline>
</glyph>
<glyph name="v" format="1">
  <advance width="739.0"/>
  <unicode hex="0076"/>
  <outline>
    <contour>
      <point x="11.0" y="533"/>
      <point x="174.0" y="533"/>
      <point x="11.0" y="533" type="curve"/>
      <point x="101.0" y="355"/>
      <point x="191.0" y="178"/>
      <point x="281.0" y="0" type="curve"/>
      <point x="442.0" y="0"/>
      <point x="281.0" y="0"/>
      <point x="442.0" y="0" type="curve"/>
      <point x="353.0" y="178"/>
      <point x="263.0" y="355"/>
      <point x="174.0" y="533" type="curve"/>
    </contour>
    <contour>
      <point x="570.0" y="533"/>
      <point x="732.0" y="533"/>
      <point x="570.0" y="533" type="curve"/>
      <point x="570.0" y="533"/>
      <point x="287.0" y="0"/>
      <point x="287.0" y="0" type="curve"/>
      <point x="448.0" y="0"/>
      <point x="287.0" y="0"/>
      <point x="448.0" y="0" type="curve"/>
      <point x="543.0" y="178"/>
      <point x="637.0" y="355"/>
      <point x="732.0" y="533" type="curve"/>
    </contour>
  </outline>
</glyph>
<glyph name="w" format="1">
  <advance width="1173.0"/>
  <unicode hex="0077"/>
  <outline>
    <contour>
      <point x="409.0" y="0"/>
      <point x="250.0" y="0"/>
      <point x="409.0" y="0" type="curve"/>
      <point x="497.0" y="178"/>
      <point x="585.0" y="355"/>
      <point x="673.0" y="533" type="curve"/>
      <point x="510.0" y="533"/>
      <point x="673.0" y="533"/>
      <point x="510.0" y="533" type="curve"/>
      <point x="423.0" y="355"/>
      <point x="337.0" y="178"/>
      <point x="250.0" y="0" type="curve"/>
    </contour>
    <contour>
      <point x="1000.0" y="533"/>
      <point x="1163.0" y="533"/>
      <point x="1000.0" y="533" type="curve"/>
      <point x="919.0" y="355"/>
      <point x="838.0" y="178"/>
      <point x="757.0" y="0" type="curve"/>
      <point x="916.0" y="0"/>
      <point x="757.0" y="0"/>
      <point x="916.0" y="0" type="curve"/>
      <point x="999.0" y="178"/>
      <point x="1081.0" y="355"/>
      <point x="1163.0" y="533" type="curve"/>
    </contour>
    <contour>
      <point x="518.0" y="533"/>
      <point x="679.0" y="533"/>
      <point x="518.0" y="533" type="curve"/>
      <point x="597.0" y="355"/>
      <point x="676.0" y="178"/>
      <point x="755.0" y="0" type="curve"/>
      <point x="915.0" y="0"/>
      <point x="755.0" y="0"/>
      <point x="915.0" y="0" type="curve"/>
      <point x="837.0" y="178"/>
      <point x="758.0" y="355"/>
      <point x="679.0" y="533" type="curve"/>
    </contour>
    <contour>
      <point x="12.0" y="533"/>
      <point x="174.0" y="533"/>
      <point x="12.0" y="533" type="curve"/>
      <point x="91.0" y="355"/>
      <point x="170.0" y="178"/>
      <point x="248.0" y="0" type="curve"/>
      <point x="408.0" y="0"/>
      <point x="248.0" y="0"/>
      <point x="408.0" y="0" type="curve"/>
      <point x="330.0" y="178"/>
      <point x="252.0" y="355"/>
      <point x="174.0" y="533" type="curve"/>
    </contour>
  </outline>
</glyph>
<glyph name="x" format="1">
  <advance width="796.0"/>
  <unicode hex="0078"/>
  <outline>
    <contour>
      <point x="785.0" y="0"/>
      <point x="597.0" y="0"/>
      <point x="785.0" y="0" type="curve"/>
      <point x="186.0" y="533" type="line"/>
      <point x="-76.0" y="533"/>
      <point x="279.0" y="533"/>
      <point x="17.0" y="533" type="curve"/>
      <point x="597.0" y="0" type="line"/>
    </contour>
    <contour>
      <point x="484.0" y="533"/>
      <point x="921.0" y="533"/>
      <point x="613.0" y="533" type="curve"/>
      <point x="5.0" y="0" type="line"/>
      <point x="199.0" y="0"/>
      <point x="5.0" y="0"/>
      <point x="199.0" y="0" type="curve"/>
      <point x="792.0" y="533" type="line"/>
    </contour>
  </outline>
</glyph>
<glyph name="braceleft" format="1">
  <advance width="378.75"/>
  <unicode hex="007B"/>
  <outline>
    <contour>
      <point x="335.5" y="10"/>
      <point x="335.5" y="-107"/>
      <point x="335.5" y="10" type="curve"/>
      <point x="290.5" y="10"/>
      <point x="257.5" y="28"/>
      <point x="257.5" y="69" type="curve"/>
      <point x="257.5" y="119"/>
      <point x="257.5" y="169"/>
      <point x="257.5" y="220" type="curve"/>
      <point x="257.5" y="340"/>
      <point x="163.5" y="403"/>
      <point x="35.5" y="403" type="curve"/>
      <point x="35.5" y="280"/>
      <point x="35.5" y="403"/>
      <point x="35.5" y="280" type="curve"/>
      <point x="77.5" y="280"/>
      <point x="111.5" y="269"/>
      <point x="111.5" y="231" type="curve"/>
      <point x="111.5" y="179"/>
      <point x="111.5" y="127"/>
      <point x="111.5" y="75" type="curve"/>
      <point x="111.5" y="-47"/>
      <point x="205.5" y="-107"/>
      <point x="335.5" y="-107" type="curve"/>
    </contour>
    <contour>
      <point x="335.5" y="789"/>
      <point x="335.5" y="672"/>
      <point x="335.5" y="789" type="curve"/>
      <point x="205.5" y="789"/>
      <point x="111.5" y="732"/>
      <point x="111.5" y="611" type="curve"/>
      <point x="111.5" y="557"/>
      <point x="111.5" y="502"/>
      <point x="111.5" y="448" type="curve"/>
      <point x="111.5" y="411"/>
      <point x="76.5" y="403"/>
      <point x="35.5" y="403" type="curve"/>
      <point x="35.5" y="280"/>
      <point x="35.5" y="403"/>
      <point x="35.5" y="280" type="curve"/>
      <point x="164.5" y="280"/>
      <point x="257.5" y="342"/>
      <point x="257.5" y="465" type="curve"/>
      <point x="257.5" y="514"/>
      <point x="257.5" y="562"/>
      <point x="257.5" y="611" type="curve"/>
      <point x="257.5" y="653"/>
      <point x="290.5" y="672"/>
      <point x="335.5" y="672" type="curve"/>
    </contour>
  </outline>
</glyph>
<glyph name="braceright" format="1">
  <advance width="378.75"/>
  <unicode hex="007D"/>
  <outline>
    <contour>
      <point x="41.5" y="-107"/>
      <point x="41.5" y="10"/>
      <point x="41.5" y="-107" type="curve"/>
      <point x="171.5" y="-107"/>
      <point x="264.5" y="-47"/>
      <point x="264.5" y="75" type="curve"/>
      <point x="264.5" y="127"/>
      <point x="264.5" y="179"/>
      <point x="264.5" y="231" type="curve"/>
      <point x="264.5" y="269"/>
      <point x="299.5" y="280"/>
      <point x="341.5" y="280" type="curve"/>
      <point x="341.5" y="403"/>
      <point x="341.5" y="280"/>
      <point x="341.5" y="403" type="curve"/>
      <point x="212.5" y="403"/>
      <point x="118.5" y="340"/>
      <point x="118.5" y="220" type="curve"/>
      <point x="118.5" y="169"/>
      <point x="118.5" y="119"/>
      <point x="118.5" y="69" type="curve"/>
      <point x="118.5" y="28"/>
      <point x="85.5" y="10"/>
      <point x="41.5" y="10" type="curve"/>
    </contour>
    <contour>
      <point x="41.5" y="672"/>
      <point x="41.5" y="789"/>
      <point x="41.5" y="672" type="curve"/>
      <point x="86.5" y="672"/>
      <point x="118.5" y="653"/>
      <point x="118.5" y="611" type="curve"/>
      <point x="118.5" y="562"/>
      <point x="118.5" y="514"/>
      <point x="118.5" y="465" type="curve"/>
      <point x="118.5" y="342"/>
      <point x="211.5" y="280"/>
      <point x="341.5" y="280" type="curve"/>
      <point x="341.5" y="403"/>
      <point x="341.5" y="280"/>
      <point x="341.5" y="403" type="curve"/>
      <point x="299.5" y="403"/>
      <point x="264.5" y="411"/>
      <point x="264.5" y="448" type="curve"/>
      <point x="264.5" y="502"/>
      <point x="264.5" y="557"/>
      <point x="264.5" y="611" type="curve"/>
      <point x="264.5" y="732"/>
      <point x="171.5" y="789"/>
      <point x="41.5" y="789" type="curve"/>
    </contour>
  </outline>
</glyph>
<glyph name="asciitilde" format="1">
  <advance width="815.0"/>
  <unicode hex="007E"/>
  <outline>
    <contour>
      <point x="728.0" y="348"/>
      <point x="701.0" y="360"/>
      <point x="653.0" y="381" type="curve"/>
      <point x="632.0" y="337"/>
      <point x="617.0" y="306"/>
      <point x="570.0" y="306" type="curve"/>
      <point x="519.0" y="306"/>
      <point x="489.0" y="314"/>
      <point x="444.0" y="339" type="curve"/>
      <point x="376.0" y="378"/>
      <point x="333.0" y="396"/>
      <point x="254.0" y="396" type="curve"/>
      <point x="144.0" y="396"/>
      <point x="80.0" y="353"/>
      <point x="39.0" y="251" type="curve"/>
      <point x="81.0" y="229"/>
      <point x="107.0" y="218"/>
      <point x="150.0" y="198" type="curve"/>
      <point x="170.0" y="248"/>
      <point x="193.0" y="279"/>
      <point x="246.0" y="279" type="curve"/>
      <point x="289.0" y="279"/>
      <point x="313.0" y="272"/>
      <point x="350.0" y="251" type="curve"/>
      <point x="424.0" y="210"/>
      <point x="470.0" y="191"/>
      <point x="555.0" y="190" type="curve"/>
      <point x="664.0" y="190"/>
      <point x="726.0" y="229"/>
      <point x="775.0" y="326" type="curve"/>
    </contour>
  </outline>
</glyph>
<glyph name="exclamdown" format="1">
  <advance width="277.588547771"/>
  <unicode hex="00A1"/>
  <outline>
    <contour>
      <point x="79.5184607453" y="303" type="line"/>
      <point x="59.5184607453" y="-190" type="line"/>
      <point x="220.518460745" y="-190" type="line"/>
      <point x="200.518460745" y="303" type="line"/>
    </contour>
    <contour>
      <point x="44.5184607453" y="467"/>
      <point x="233.518460745" y="467"/>
      <point x="44.5184607453" y="467" type="curve"/>
      <point x="44.5184607453" y="415"/>
      <point x="85.5184607453" y="391"/>
      <point x="140.518460745" y="391" type="curve"/>
      <point x="195.518460745" y="391"/>
      <point x="233.518460745" y="418"/>
      <point x="233.518460745" y="467" type="curve"/>
      <point x="44.5184607453" y="467"/>
      <point x="233.518460745" y="467"/>
      <point x="44.5184607453" y="467" type="curve"/>
      <point x="44.5184607453" y="520"/>
      <point x="85.5184607453" y="542"/>
      <point x="141.518460745" y="542" type="curve"/>
      <point x="196.518460745" y="542"/>
      <point x="233.518460745" y="517"/>
      <point x="233.518460745" y="467" type="curve"/>
    </contour>
  </outline>
</glyph>
<glyph name="cent" format="1">
  <advance width="813.0"/>
  <unicode hex="00A2"/>
  <outline>
    <contour>
      <point x="518.0" y="-53"/>
      <point x="357.0" y="-53"/>
      <point x="518.0" y="-53" type="curve"/>
      <point x="518.0" y="-13"/>
      <point x="518.0" y="27"/>
      <point x="518.0" y="67" type="curve"/>
      <point x="357.0" y="67"/>
      <point x="518.0" y="67"/>
      <point x="357.0" y="67" type="curve"/>
      <point x="357.0" y="27"/>
      <point x="357.0" y="-13"/>
      <point x="357.0" y="-53" type="curve"/>
    </contour>
    <contour>
      <point x="385.0" y="778"/>
      <point x="545.0" y="778"/>
      <point x="385.0" y="778" type="curve"/>
      <point x="385.0" y="742"/>
      <point x="385.0" y="706"/>
      <point x="385.0" y="670" type="curve"/>
      <point x="545.0" y="670"/>
      <point x="385.0" y="670"/>
      <point x="545.0" y="670" type="curve"/>
      <point x="545.0" y="706"/>
      <point x="545.0" y="742"/>
      <point x="545.0" y="778" type="curve"/>
    </contour>
    <contour>
      <point x="783.0" y="620"/>
      <point x="715.0" y="511"/>
      <point x="783.0" y="620" type="curve"/>
      <point x="677.0" y="669"/>
      <point x="594.0" y="687"/>
      <point x="476.0" y="687" type="curve"/>
      <point x="225.0" y="687"/>
      <point x="31.0" y="591"/>
      <point x="31.0" y="363" type="curve"/>
      <point x="31.0" y="150"/>
      <point x="199.0" y="44"/>
      <point x="429.0" y="44" type="curve"/>
      <point x="567.0" y="44"/>
      <point x="665.0" y="68"/>
      <point x="786.0" y="133" type="curve"/>
      <point x="703.0" y="239"/>
      <point x="786.0" y="133"/>
      <point x="703.0" y="239" type="curve"/>
      <point x="603.0" y="186"/>
      <point x="537.0" y="167"/>
      <point x="444.0" y="167" type="curve"/>
      <point x="298.0" y="167"/>
      <point x="192.0" y="234"/>
      <point x="192.0" y="369" type="curve"/>
      <point x="192.0" y="507"/>
      <point x="309.0" y="565"/>
      <point x="461.0" y="565" type="curve"/>
      <point x="551.0" y="565"/>
      <point x="615.0" y="551"/>
      <point x="715.0" y="511" type="curve"/>
    </contour>
  </outline>
</glyph>
<glyph name="sterling" format="1">
  <advance width="630.5"/>
  <unicode hex="00A3"/>
  <outline>
    <contour>
      <point x="564.5" y="117"/>
      <point x="564.5" y="0"/>
      <point x="564.5" y="117" type="curve"/>
      <point x="389.5" y="117"/>
      <point x="215.5" y="117"/>
      <point x="40.5" y="117" type="curve"/>
      <point x="40.5" y="0"/>
      <point x="40.5" y="117"/>
      <point x="40.5" y="0" type="curve"/>
      <point x="215.5" y="0"/>
      <point x="389.5" y="0"/>
      <point x="564.5" y="0" type="curve"/>
    </contour>
    <contour>
      <point x="503.5" y="433"/>
      <point x="503.5" y="316"/>
      <point x="503.5" y="433" type="curve"/>
      <point x="364.5" y="433"/>
      <point x="225.5" y="433"/>
      <point x="86.5" y="433" type="curve"/>
      <point x="86.5" y="316"/>
      <point x="86.5" y="433"/>
      <point x="86.5" y="316" type="curve"/>
      <point x="225.5" y="316"/>
      <point x="364.5" y="316"/>
      <point x="503.5" y="316" type="curve"/>
    </contour>
    <contour>
      <point x="605.5" y="661"/>
      <point x="530.5" y="574"/>
      <point x="605.5" y="661" type="curve"/>
      <point x="539.5" y="707"/>
      <point x="484.5" y="720"/>
      <point x="406.5" y="720" type="curve"/>
      <point x="207.5" y="720"/>
      <point x="83.5" y="561"/>
      <point x="143.5" y="363" type="curve"/>
      <point x="183.5" y="231"/>
      <point x="146.5" y="117"/>
      <point x="40.5" y="117" type="curve"/>
      <point x="40.5" y="0"/>
      <point x="40.5" y="117"/>
      <point x="40.5" y="0" type="curve"/>
      <point x="252.5" y="0"/>
      <point x="367.5" y="175"/>
      <point x="304.5" y="386" type="curve"/>
      <point x="268.5" y="506"/>
      <point x="307.5" y="609"/>
      <point x="398.5" y="609" type="curve"/>
      <point x="449.5" y="609"/>
      <point x="484.5" y="598"/>
      <point x="530.5" y="574" type="curve"/>
    </contour>
  </outline>
</glyph>
<glyph name="currency" format="1">
  <advance width="773.0"/>
  <unicode hex="00A4"/>
  <outline>
    <contour>
      <point x="277.0" y="317"/>
      <point x="116.0" y="317"/>
      <point x="277.0" y="317" type="curve"/>
      <point x="277.0" y="371"/>
      <point x="324.0" y="396"/>
      <point x="384.0" y="396" type="curve"/>
      <point x="449.0" y="396"/>
      <point x="498.0" y="372"/>
      <point x="498.0" y="315" type="curve"/>
      <point x="498.0" y="260"/>
      <point x="455.0" y="233"/>
      <point x="397.0" y="233" type="curve"/>
      <point x="329.0" y="233"/>
      <point x="277.0" y="257"/>
      <point x="277.0" y="317" type="curve"/>
      <point x="116.0" y="317"/>
      <point x="277.0" y="317"/>
      <point x="116.0" y="317" type="curve"/>
      <point x="116.0" y="176"/>
      <point x="235.0" y="116"/>
      <point x="390.0" y="116" type="curve"/>
      <point x="543.0" y="116"/>
      <point x="659.0" y="181"/>
      <point x="659.0" y="320" type="curve"/>
      <point x="659.0" y="454"/>
      <point x="545.0" y="513"/>
      <point x="399.0" y="513" type="curve"/>
      <point x="240.0" y="513"/>
      <point x="116.0" y="458"/>
      <point x="116.0" y="317" type="curve"/>
    </contour>
    <contour>
      <point x="563.0" y="288" type="line"/>
      <point x="737.0" y="448" type="line"/>
      <point x="610.0" y="575" type="line"/>
      <point x="450.0" y="401" type="line"/>
    </contour>
    <contour>
      <point x="451.0" y="233" type="line"/>
      <point x="611.0" y="59" type="line"/>
      <point x="738.0" y="186" type="line"/>
      <point x="564.0" y="346" type="line"/>
    </contour>
    <contour>
      <point x="210.0" y="349" type="line"/>
      <point x="36.0" y="189" type="line"/>
      <point x="163.0" y="62" type="line"/>
      <point x="323.0" y="236" type="line"/>
    </contour>
    <contour>
      <point x="323.0" y="403" type="line"/>
      <point x="163.0" y="577" type="line"/>
      <point x="36.0" y="450" type="line"/>
      <point x="210.0" y="290" type="line"/>
    </contour>
  </outline>
</glyph>
<glyph name="yen" format="1">
  <advance width="853.0"/>
  <unicode hex="00A5"/>
  <outline>
    <contour>
      <point x="725.0" y="454"/>
      <point x="725.0" y="325"/>
      <point x="725.0" y="454" type="curve"/>
      <point x="634.0" y="454"/>
      <point x="543.0" y="454"/>
      <point x="451.0" y="454" type="curve"/>
      <point x="451.0" y="325"/>
      <point x="451.0" y="454"/>
      <point x="451.0" y="325" type="curve"/>
      <point x="543.0" y="325"/>
      <point x="634.0" y="325"/>
      <point x="725.0" y="325" type="curve"/>
    </contour>
    <contour>
      <point x="413.0" y="454"/>
      <point x="413.0" y="325"/>
      <point x="413.0" y="454" type="curve"/>
      <point x="324.0" y="454"/>
      <point x="234.0" y="454"/>
      <point x="144.0" y="454" type="curve"/>
      <point x="144.0" y="325"/>
      <point x="144.0" y="454"/>
      <point x="144.0" y="325" type="curve"/>
      <point x="234.0" y="325"/>
      <point x="324.0" y="325"/>
      <point x="413.0" y="325" type="curve"/>
    </contour>
    <contour>
      <point x="725.0" y="283"/>
      <point x="725.0" y="154"/>
      <point x="725.0" y="283" type="curve"/>
      <point x="532.0" y="283"/>
      <point x="338.0" y="283"/>
      <point x="144.0" y="283" type="curve"/>
      <point x="144.0" y="154"/>
      <point x="144.0" y="283"/>
      <point x="144.0" y="154" type="curve"/>
      <point x="338.0" y="154"/>
      <point x="532.0" y="154"/>
      <point x="725.0" y="154" type="curve"/>
    </contour>
    <contour>
      <point x="74.0" y="722"/>
      <point x="151.0" y="722"/>
      <point x="22.0" y="722" type="curve"/>
      <point x="113.0" y="608"/>
      <point x="255.0" y="451"/>
      <point x="346.0" y="337" type="curve"/>
      <point x="508.0" y="337"/>
      <point x="346.0" y="337"/>
      <point x="508.0" y="337" type="curve"/>
      <point x="406.0" y="465"/>
      <point x="305.0" y="594"/>
      <point x="203.0" y="722" type="curve"/>
    </contour>
    <contour>
      <point x="704.0" y="722"/>
      <point x="798.0" y="722"/>
      <point x="668.0" y="722" type="curve"/>
      <point x="561.0" y="594"/>
      <point x="453.0" y="465"/>
      <point x="346.0" y="337" type="curve"/>
      <point x="508.0" y="337"/>
      <point x="346.0" y="337"/>
      <point x="508.0" y="337" type="curve"/>
      <point x="605.0" y="452"/>
      <point x="737.0" y="607"/>
      <point x="834.0" y="722" type="curve"/>
    </contour>
    <contour>
      <point x="515.0" y="0"/>
      <point x="339.0" y="0"/>
      <point x="515.0" y="0" type="curve"/>
      <point x="515.0" y="115"/>
      <point x="515.0" y="231"/>
      <point x="515.0" y="346" type="curve"/>
      <point x="339.0" y="346"/>
      <point x="515.0" y="346"/>
      <point x="339.0" y="346" type="curve"/>
      <point x="339.0" y="231"/>
      <point x="339.0" y="115"/>
      <point x="339.0" y="0" type="curve"/>
    </contour>
  </outline>
</glyph>
<glyph name="section" format="1">
  <advance width="645.0"/>
  <unicode hex="00A7"/>
  <outline>
    <contour>
      <point x="541.0" y="703"/>
      <point x="481.0" y="601"/>
      <point x="541.0" y="703" type="curve"/>
      <point x="465.0" y="732"/>
      <point x="409.0" y="748"/>
      <point x="328.0" y="748" type="curve"/>
      <point x="186.0" y="748"/>
      <point x="75.0" y="709"/>
      <point x="75.0" y="591" type="curve"/>
      <point x="75.0" y="488"/>
      <point x="160.0" y="447"/>
      <point x="268.0" y="421" type="curve"/>
      <point x="351.0" y="402"/>
      <point x="456.0" y="406"/>
      <point x="456.0" y="352" type="curve"/>
      <point x="456.0" y="297"/>
      <point x="391.0" y="294"/>
      <point x="322.0" y="285" type="curve"/>
      <point x="416.0" y="192"/>
      <point x="322.0" y="285"/>
      <point x="416.0" y="192" type="curve"/>
      <point x="530.0" y="211"/>
      <point x="616.0" y="255"/>
      <point x="616.0" y="361" type="curve"/>
      <point x="615.0" y="490"/>
      <point x="486.0" y="504"/>
      <point x="348.0" y="532" type="curve"/>
      <point x="294.0" y="545"/>
      <point x="235.0" y="546"/>
      <point x="235.0" y="591" type="curve"/>
      <point x="235.0" y="626"/>
      <point x="271.0" y="631"/>
      <point x="313.0" y="631" type="curve"/>
      <point x="372.0" y="631"/>
      <point x="413.0" y="625"/>
      <point x="481.0" y="601" type="curve"/>
    </contour>
    <contour>
      <point x="226.0" y="529"/>
      <point x="306.0" y="442"/>
      <point x="226.0" y="529" type="curve"/>
      <point x="118.0" y="507"/>
      <point x="31.0" y="469"/>
      <point x="31.0" y="366" type="curve"/>
      <point x="31.0" y="246"/>
      <point x="142.0" y="219"/>
      <point x="270.0" y="192" type="curve"/>
      <point x="338.0" y="176"/>
      <point x="418.0" y="172"/>
      <point x="418.0" y="129" type="curve"/>
      <point x="418.0" y="93"/>
      <point x="375.0" y="91"/>
      <point x="327.0" y="91" type="curve"/>
      <point x="263.0" y="91"/>
      <point x="218.0" y="100"/>
      <point x="142.0" y="129" type="curve"/>
      <point x="72.0" y="33"/>
      <point x="142.0" y="129"/>
      <point x="72.0" y="33" type="curve"/>
      <point x="157.0" y="-9"/>
      <point x="225.0" y="-26"/>
      <point x="320.0" y="-26" type="curve"/>
      <point x="461.0" y="-26"/>
      <point x="579.0" y="10"/>
      <point x="579.0" y="135" type="curve"/>
      <point x="577.0" y="242"/>
      <point x="485.0" y="280"/>
      <point x="373.0" y="303" type="curve"/>
      <point x="290.0" y="322"/>
      <point x="191.0" y="317"/>
      <point x="191.0" y="379" type="curve"/>
      <point x="191.0" y="425"/>
      <point x="247.0" y="429"/>
      <point x="306.0" y="442" type="curve"/>
    </contour>
  </outline>
</glyph>
<glyph name="dieresis" format="1">
  <advance width="458.65"/>
  <unicode hex="00A8"/>
  <outline>
    <contour>
      <point x="206.7" y="568"/>
      <point x="17.7" y="568"/>
      <point x="206.7" y="568" type="curve"/>
      <point x="206.7" y="620"/>
      <point x="165.7" y="644"/>
      <point x="110.7" y="644" type="curve"/>
      <point x="55.7" y="644"/>
      <point x="17.7" y="617"/>
      <point x="17.7" y="568" type="curve"/>
      <point x="206.7" y="568"/>
      <point x="17.7" y="568"/>
      <point x="206.7" y="568" type="curve"/>
      <point x="206.7" y="515"/>
      <point x="165.7" y="493"/>
      <point x="109.7" y="493" type="curve"/>
      <point x="54.7" y="493"/>
      <point x="17.7" y="518"/>
      <point x="17.7" y="568" type="curve"/>
    </contour>
    <contour>
      <point x="447.7" y="568"/>
      <point x="258.7" y="568"/>
      <point x="447.7" y="568" type="curve"/>
      <point x="447.7" y="620"/>
      <point x="406.7" y="644"/>
      <point x="351.7" y="644" type="curve"/>
      <point x="296.7" y="644"/>
      <point x="258.7" y="617"/>
      <point x="258.7" y="568" type="curve"/>
      <point x="447.7" y="568"/>
      <point x="258.7" y="568"/>
      <point x="447.7" y="568" type="curve"/>
      <point x="447.7" y="515"/>
      <point x="406.7" y="493"/>
      <point x="350.7" y="493" type="curve"/>
      <point x="295.7" y="493"/>
      <point x="258.7" y="518"/>
      <point x="258.7" y="568" type="curve"/>
    </contour>
    <contour>
      <point x="232.7" y="496" type="move" name="_top"/>
    </contour>
  </outline>
</glyph>
<glyph name="copyright" format="1">
  <advance width="987.0"/>
  <unicode hex="00A9"/>
  <outline>
    <contour>
      <point x="163.0" y="325"/>
      <point x="34.0" y="325"/>
      <point x="163.0" y="325" type="curve"/>
      <point x="163.0" y="485"/>
      <point x="317.0" y="551"/>
      <point x="496.0" y="551" type="curve"/>
      <point x="671.0" y="551"/>
      <point x="821.0" y="481"/>
      <point x="821.0" y="322" type="curve"/>
      <point x="821.0" y="169"/>
      <point x="676.0" y="100"/>
      <point x="506.0" y="100" type="curve"/>
      <point x="325.0" y="100"/>
      <point x="163.0" y="162"/>
      <point x="163.0" y="325" type="curve"/>
      <point x="34.0" y="325"/>
      <point x="163.0" y="325"/>
      <point x="34.0" y="325" type="curve"/>
      <point x="34.0" y="101"/>
      <point x="249.0" y="7"/>
      <point x="501.0" y="7" type="curve"/>
      <point x="744.0" y="7"/>
      <point x="949.0" y="107"/>
      <point x="949.0" y="327" type="curve"/>
      <point x="949.0" y="547"/>
      <point x="741.0" y="645"/>
      <point x="496.0" y="645" type="curve"/>
      <point x="248.0" y="645"/>
      <point x="34.0" y="549"/>
      <point x="34.0" y="325" type="curve"/>
    </contour>
    <contour>
      <point x="686.0" y="465"/>
      <point x="630.0" y="391"/>
      <point x="686.0" y="465" type="curve"/>
      <point x="642.0" y="491"/>
      <point x="574.0" y="515"/>
      <point x="501.0" y="515" type="curve"/>
      <point x="353.0" y="515"/>
      <point x="237.0" y="457"/>
      <point x="237.0" y="323" type="curve"/>
      <point x="237.0" y="195"/>
      <point x="343.0" y="138"/>
      <point x="481.0" y="138" type="curve"/>
      <point x="563.0" y="138"/>
      <point x="620.0" y="149"/>
      <point x="685.0" y="181" type="curve"/>
      <point x="634.0" y="261"/>
      <point x="685.0" y="181"/>
      <point x="634.0" y="261" type="curve"/>
      <point x="576.0" y="237"/>
      <point x="535.0" y="231"/>
      <point x="487.0" y="231" type="curve"/>
      <point x="417.0" y="231"/>
      <point x="366.0" y="263"/>
      <point x="366.0" y="328" type="curve"/>
      <point x="366.0" y="394"/>
      <point x="422.0" y="421"/>
      <point x="496.0" y="421" type="curve"/>
      <point x="527.0" y="421"/>
      <point x="576.0" y="415"/>
      <point x="630.0" y="391" type="curve"/>
    </contour>
  </outline>
</glyph>
<glyph name="ordfeminine" format="1">
  <advance width="495.0"/>
  <unicode hex="00AA"/>
  <outline>
    <contour>
      <point x="447.0" y="426"/>
      <point x="339.0" y="426"/>
      <point x="447.0" y="426" type="curve"/>
      <point x="447.0" y="509"/>
      <point x="447.0" y="586"/>
      <point x="447.0" y="669" type="curve"/>
      <point x="447.0" y="768"/>
      <point x="358.0" y="788"/>
      <point x="250.0" y="788" type="curve"/>
      <point x="169.0" y="788"/>
      <point x="108.0" y="768"/>
      <point x="57.0" y="737" type="curve"/>
      <point x="98.0" y="670"/>
      <point x="64.0" y="733"/>
      <point x="105.0" y="666" type="curve"/>
      <point x="133.0" y="688"/>
      <point x="177.0" y="709"/>
      <point x="235.0" y="709" type="curve"/>
      <point x="289.0" y="709"/>
      <point x="339.0" y="701"/>
      <point x="339.0" y="651" type="curve"/>
      <point x="339.0" y="575"/>
      <point x="339.0" y="501"/>
      <point x="339.0" y="426" type="curve"/>
    </contour>
    <contour>
      <point x="390.0" y="661"/>
      <point x="395.0" y="594"/>
      <point x="390.0" y="661" type="curve"/>
      <point x="322.0" y="655"/>
      <point x="281.0" y="653"/>
      <point x="212.0" y="647" type="curve"/>
      <point x="111.0" y="638"/>
      <point x="31.0" y="626"/>
      <point x="31.0" y="537" type="curve"/>
      <point x="31.0" y="451"/>
      <point x="101.0" y="422"/>
      <point x="198.0" y="422" type="curve"/>
      <point x="294.0" y="422"/>
      <point x="340.0" y="459"/>
      <point x="416.0" y="529" type="curve"/>
      <point x="366.0" y="569"/>
      <point x="415.0" y="528"/>
      <point x="365.0" y="568" type="curve"/>
      <point x="315.0" y="527"/>
      <point x="274.0" y="499"/>
      <point x="214.0" y="499" type="curve"/>
      <point x="171.0" y="499"/>
      <point x="138.0" y="506"/>
      <point x="138.0" y="537" type="curve"/>
      <point x="138.0" y="569"/>
      <point x="172.0" y="573"/>
      <point x="208.0" y="576" type="curve"/>
      <point x="280.0" y="582"/>
      <point x="322.0" y="587"/>
      <point x="395.0" y="594" type="curve"/>
    </contour>
  </outline>
</glyph>
<glyph name="guillemotleft" format="1">
  <advance width="667.25"/>
  <unicode hex="00AB"/>
  <outline>
    <contour>
      <point x="306.25" y="482"/>
      <point x="306.25" y="354"/>
      <point x="306.25" y="482" type="curve"/>
      <point x="232.25" y="448"/>
      <point x="108.25" y="386"/>
      <point x="34.25" y="352" type="curve"/>
      <point x="34.25" y="223"/>
      <point x="34.25" y="352"/>
      <point x="34.25" y="223" type="curve"/>
      <point x="108.25" y="258"/>
      <point x="232.25" y="319"/>
      <point x="306.25" y="354" type="curve"/>
    </contour>
    <contour>
      <point x="306.25" y="224"/>
      <point x="306.25" y="95"/>
      <point x="306.25" y="224" type="curve"/>
      <point x="232.25" y="258"/>
      <point x="108.25" y="317"/>
      <point x="34.25" y="352" type="curve"/>
      <point x="34.25" y="223"/>
      <point x="34.25" y="352"/>
      <point x="34.25" y="223" type="curve"/>
      <point x="108.25" y="189"/>
      <point x="232.25" y="130"/>
      <point x="306.25" y="95" type="curve"/>
    </contour>
    <contour>
      <point x="613.25" y="482"/>
      <point x="613.25" y="354"/>
      <point x="613.25" y="482" type="curve"/>
      <point x="539.25" y="448"/>
      <point x="415.25" y="386"/>
      <point x="341.25" y="352" type="curve"/>
      <point x="341.25" y="223"/>
      <point x="341.25" y="352"/>
      <point x="341.25" y="223" type="curve"/>
      <point x="415.25" y="258"/>
      <point x="539.25" y="319"/>
      <point x="613.25" y="354" type="curve"/>
    </contour>
    <contour>
      <point x="613.25" y="224"/>
      <point x="613.25" y="95"/>
      <point x="613.25" y="224" type="curve"/>
      <point x="539.25" y="258"/>
      <point x="415.25" y="317"/>
      <point x="341.25" y="352" type="curve"/>
      <point x="341.25" y="223"/>
      <point x="341.25" y="352"/>
      <point x="341.25" y="223" type="curve"/>
      <point x="415.25" y="189"/>
      <point x="539.25" y="130"/>
      <point x="613.25" y="95" type="curve"/>
    </contour>
  </outline>
</glyph>
<glyph name="registered" format="1">
  <advance width="971.0"/>
  <unicode hex="00AE"/>
  <outline>
    <contour>
      <point x="82.0" y="325"/>
      <point x="113.0" y="325"/>
      <point x="157.0" y="325" type="curve"/>
      <point x="157.0" y="498"/>
      <point x="303.0" y="561"/>
      <point x="490.0" y="561" type="curve"/>
      <point x="674.0" y="561"/>
      <point x="815.0" y="493"/>
      <point x="815.0" y="322" type="curve"/>
      <point x="815.0" y="156"/>
      <point x="678.0" y="90"/>
      <point x="500.0" y="90" type="curve"/>
      <point x="308.0" y="90"/>
      <point x="157.0" y="150"/>
      <point x="157.0" y="325" type="curve"/>
      <point x="113.0" y="325"/>
      <point x="82.0" y="325"/>
      <point x="38.0" y="325" type="curve"/>
      <point x="38.0" y="91"/>
      <point x="239.0" y="7"/>
      <point x="495.0" y="7" type="curve"/>
      <point x="743.0" y="7"/>
      <point x="933.0" y="98"/>
      <point x="933.0" y="327" type="curve"/>
      <point x="933.0" y="557"/>
      <point x="740.0" y="645"/>
      <point x="490.0" y="645" type="curve"/>
      <point x="236.0" y="645"/>
      <point x="38.0" y="558"/>
      <point x="38.0" y="325" type="curve"/>
    </contour>
    <contour>
      <point x="415.0" y="312"/>
      <point x="559.0" y="316"/>
      <point x="415.0" y="316" type="curve"/>
      <point x="463.0" y="259"/>
      <point x="507.0" y="198"/>
      <point x="554.0" y="140" type="curve"/>
      <point x="626.0" y="140"/>
      <point x="603.0" y="139"/>
      <point x="693.0" y="139" type="curve"/>
      <point x="645.0" y="202"/>
      <point x="605.0" y="252"/>
      <point x="559.0" y="312" type="curve"/>
    </contour>
    <contour>
      <point x="398.0" y="140"/>
      <point x="374.0" y="140"/>
      <point x="446.0" y="140" type="curve"/>
      <point x="446.0" y="263"/>
      <point x="446.0" y="387"/>
      <point x="446.0" y="510" type="curve"/>
      <point x="373.0" y="510"/>
      <point x="390.0" y="510"/>
      <point x="317.0" y="510" type="curve"/>
      <point x="317.0" y="387"/>
      <point x="317.0" y="263"/>
      <point x="317.0" y="140" type="curve"/>
    </contour>
    <contour>
      <point x="384.0" y="267"/>
      <point x="384.0" y="360"/>
      <point x="384.0" y="267" type="curve"/>
      <point x="409.0" y="267"/>
      <point x="434.0" y="267"/>
      <point x="459.0" y="267" type="curve"/>
      <point x="574.0" y="267"/>
      <point x="664.0" y="287"/>
      <point x="664.0" y="392" type="curve"/>
      <point x="664.0" y="480"/>
      <point x="584.0" y="510"/>
      <point x="486.0" y="510" type="curve"/>
      <point x="472.0" y="510"/>
      <point x="459.0" y="510"/>
      <point x="446.0" y="510" type="curve"/>
      <point x="317.0" y="417"/>
      <point x="446.0" y="510"/>
      <point x="317.0" y="417" type="curve"/>
      <point x="366.0" y="417"/>
      <point x="414.0" y="417"/>
      <point x="462.0" y="417" type="curve"/>
      <point x="501.0" y="417"/>
      <point x="536.0" y="419"/>
      <point x="536.0" y="387" type="curve"/>
      <point x="536.0" y="359"/>
      <point x="508.0" y="360"/>
      <point x="477.0" y="360" type="curve"/>
      <point x="446.0" y="360"/>
      <point x="415.0" y="360"/>
      <point x="384.0" y="360" type="curve"/>
    </contour>
  </outline>
</glyph>
<glyph name="degree" format="1">
  <advance width="576.0"/>
  <unicode hex="00B0"/>
  <outline>
    <contour>
      <point x="548.0" y="484" type="curve"/>
      <point x="548.0" y="626"/>
      <point x="441.0" y="701"/>
      <point x="291.0" y="701" type="curve"/>
      <point x="139.0" y="701"/>
      <point x="29.0" y="629"/>
      <point x="29.0" y="486" type="curve"/>
      <point x="171.0" y="486"/>
      <point x="29.0" y="486"/>
      <point x="171.0" y="486" type="curve"/>
      <point x="171.0" y="549"/>
      <point x="217.0" y="587"/>
      <point x="288.0" y="587" type="curve"/>
      <point x="355.0" y="587"/>
      <point x="405.0" y="552"/>
      <point x="405.0" y="484" type="curve"/>
      <point x="405.0" y="416"/>
      <point x="359.0" y="375"/>
      <point x="290.0" y="375" type="curve"/>
      <point x="219.0" y="375"/>
      <point x="171.0" y="417"/>
      <point x="171.0" y="486" type="curve"/>
      <point x="29.0" y="486"/>
      <point x="171.0" y="486"/>
      <point x="29.0" y="486" type="curve"/>
      <point x="29.0" y="341"/>
      <point x="134.0" y="262"/>
      <point x="285.0" y="262" type="curve"/>
      <point x="438.0" y="262"/>
      <point x="548.0" y="339"/>
    </contour>
  </outline>
</glyph>
<glyph name="plusminus" format="1">
  <advance width="694.0"/>
  <unicode hex="00B1"/>
  <outline>
    <contour>
      <point x="44.0" y="18" type="line"/>
      <point x="650.0" y="18" type="line"/>
      <point x="650.0" y="146" type="line"/>
      <point x="44.0" y="146" type="line"/>
    </contour>
    <contour>
      <point x="44.0" y="249"/>
      <point x="44.0" y="377"/>
      <point x="44.0" y="249" type="curve"/>
      <point x="44.0" y="249"/>
      <point x="650.0" y="249"/>
      <point x="650.0" y="249" type="curve"/>
      <point x="650.0" y="377"/>
      <point x="650.0" y="249"/>
      <point x="650.0" y="377" type="curve"/>
      <point x="650.0" y="377"/>
      <point x="44.0" y="377"/>
      <point x="44.0" y="377" type="curve"/>
    </contour>
    <contour>
      <point x="437.0" y="18"/>
      <point x="267.0" y="18"/>
      <point x="427.0" y="18" type="curve"/>
      <point x="427.0" y="18"/>
      <point x="427.0" y="588"/>
      <point x="427.0" y="588" type="curve"/>
      <point x="267.0" y="588"/>
      <point x="437.0" y="588"/>
      <point x="277.0" y="588" type="curve"/>
      <point x="277.0" y="588"/>
      <point x="277.0" y="18"/>
      <point x="277.0" y="18" type="curve"/>
    </contour>
  </outline>
</glyph>
<glyph name="twosuperior" format="1">
  <advance width="572.0"/>
  <unicode hex="00B2"/>
  <outline>
    <contour>
      <point x="34.0" y="248"/>
      <point x="34.0" y="365"/>
      <point x="34.0" y="248" type="curve"/>
      <point x="249.0" y="248"/>
      <point x="390.0" y="248"/>
      <point x="533.0" y="248" type="curve"/>
      <point x="533.0" y="312"/>
      <point x="533.0" y="317"/>
      <point x="533.0" y="365" type="curve"/>
      <point x="367.0" y="365"/>
      <point x="200.0" y="365"/>
      <point x="34.0" y="365" type="curve"/>
    </contour>
    <contour>
      <point x="143.0" y="540"/>
      <point x="37.0" y="612"/>
      <point x="143.0" y="540" type="curve"/>
      <point x="182.0" y="574"/>
      <point x="214.0" y="587"/>
      <point x="256.0" y="587" type="curve"/>
      <point x="299.0" y="587"/>
      <point x="337.0" y="579"/>
      <point x="337.0" y="551" type="curve"/>
      <point x="337.0" y="518"/>
      <point x="306.0" y="505"/>
      <point x="277.0" y="487" type="curve"/>
      <point x="196.0" y="445"/>
      <point x="115.0" y="406"/>
      <point x="34.0" y="365" type="curve"/>
      <point x="34.0" y="252"/>
      <point x="39.0" y="365"/>
      <point x="39.0" y="252" type="curve"/>
      <point x="175.0" y="317"/>
      <point x="271.0" y="353"/>
      <point x="356.0" y="398" type="curve"/>
      <point x="433.0" y="444"/>
      <point x="499.0" y="475"/>
      <point x="499.0" y="555" type="curve"/>
      <point x="499.0" y="666"/>
      <point x="399.0" y="704"/>
      <point x="276.0" y="704" type="curve"/>
      <point x="174.0" y="704"/>
      <point x="93.0" y="677"/>
      <point x="37.0" y="612" type="curve"/>
    </contour>
    <contour>
      <point x="257.0" y="703" type="move" name="_top"/>
    </contour>
    <contour>
      <point x="293.0" y="249" type="move" name="_bottom"/>
    </contour>
  </outline>
</glyph>
<glyph name="threesuperior" format="1">
  <advance width="505.0"/>
  <unicode hex="00B3"/>
  <outline>
    <contour>
      <point x="95.0" y="553"/>
      <point x="30.0" y="638"/>
      <point x="95.0" y="553" type="curve"/>
      <point x="136.0" y="583"/>
      <point x="182.0" y="590"/>
      <point x="211.0" y="590" type="curve"/>
      <point x="256.0" y="590"/>
      <point x="292.0" y="587"/>
      <point x="292.0" y="559" type="curve"/>
      <point x="292.0" y="525"/>
      <point x="219.0" y="524"/>
      <point x="158.0" y="524" type="curve"/>
      <point x="158.0" y="428"/>
      <point x="158.0" y="524"/>
      <point x="158.0" y="428" type="curve"/>
      <point x="312.0" y="429"/>
      <point x="453.0" y="438"/>
      <point x="453.0" y="566" type="curve"/>
      <point x="453.0" y="675"/>
      <point x="352.0" y="702"/>
      <point x="228.0" y="702" type="curve"/>
      <point x="154.0" y="702"/>
      <point x="85.0" y="679"/>
      <point x="30.0" y="638" type="curve"/>
    </contour>
    <contour>
      <point x="28.0" y="282"/>
      <point x="88.0" y="373"/>
      <point x="28.0" y="282" type="curve"/>
      <point x="85.0" y="258"/>
      <point x="139.0" y="241"/>
      <point x="200.0" y="241" type="curve"/>
      <point x="351.0" y="237"/>
      <point x="477.0" y="262"/>
      <point x="473.0" y="390" type="curve"/>
      <point x="473.0" y="529"/>
      <point x="318.0" y="512"/>
      <point x="158.0" y="514" type="curve"/>
      <point x="158.0" y="427"/>
      <point x="158.0" y="514"/>
      <point x="158.0" y="427" type="curve"/>
      <point x="234.0" y="427"/>
      <point x="312.0" y="429"/>
      <point x="312.0" y="391" type="curve"/>
      <point x="312.0" y="354"/>
      <point x="266.0" y="348"/>
      <point x="216.0" y="349" type="curve"/>
      <point x="179.0" y="349"/>
      <point x="143.0" y="356"/>
      <point x="88.0" y="373" type="curve"/>
    </contour>
    <contour>
      <point x="228.0" y="240" type="move" name="_bottom"/>
    </contour>
    <contour>
      <point x="245.0" y="704" type="move" name="_top"/>
    </contour>
  </outline>
</glyph>
<glyph name="acute" format="1">
  <advance width="301.0"/>
  <unicode hex="00B4"/>
  <outline>
    <contour>
      <point x="105.0" y="586" type="line"/>
      <point x="299.0" y="752" type="line"/>
      <point x="90.0" y="752" type="line"/>
      <point x="-54.0" y="586" type="line"/>
    </contour>
    <contour>
      <point x="41.0" y="587" type="move" name="_top"/>
    </contour>
  </outline>
</glyph>
<glyph name="paragraph" format="1">
  <advance width="980.0"/>
  <unicode hex="00B6"/>
  <outline>
    <contour>
      <point x="576.0" y="605"/>
      <point x="576.0" y="722"/>
      <point x="576.0" y="605" type="curve"/>
      <point x="770.0" y="605"/>
      <point x="576.0" y="605"/>
      <point x="770.0" y="605" type="curve"/>
      <point x="770.0" y="722"/>
      <point x="770.0" y="605"/>
      <point x="770.0" y="722" type="curve"/>
      <point x="705.0" y="722"/>
      <point x="640.0" y="722"/>
      <point x="576.0" y="722" type="curve"/>
    </contour>
    <contour>
      <point x="548.0" y="392"/>
      <point x="599.0" y="287"/>
      <point x="548.0" y="392" type="curve"/>
      <point x="484.0" y="370"/>
      <point x="434.0" y="359"/>
      <point x="366.0" y="359" type="curve"/>
      <point x="269.0" y="359"/>
      <point x="185.0" y="387"/>
      <point x="185.0" y="472" type="curve"/>
      <point x="185.0" y="580"/>
      <point x="294.0" y="605"/>
      <point x="418.0" y="605" type="curve"/>
      <point x="469.0" y="605"/>
      <point x="521.0" y="605"/>
      <point x="572.0" y="605" type="curve"/>
      <point x="572.0" y="722"/>
      <point x="572.0" y="605"/>
      <point x="572.0" y="722" type="curve"/>
      <point x="513.0" y="722"/>
      <point x="455.0" y="722"/>
      <point x="396.0" y="722" type="curve"/>
      <point x="194.0" y="722"/>
      <point x="25.0" y="657"/>
      <point x="25.0" y="478" type="curve"/>
      <point x="25.0" y="306"/>
      <point x="186.0" y="245"/>
      <point x="380.0" y="242" type="curve"/>
      <point x="459.0" y="242"/>
      <point x="525.0" y="261"/>
      <point x="599.0" y="287" type="curve"/>
    </contour>
    <contour>
      <point x="657.0" y="0"/>
      <point x="497.0" y="0"/>
      <point x="657.0" y="0" type="curve"/>
      <point x="657.0" y="241"/>
      <point x="657.0" y="481"/>
      <point x="657.0" y="722" type="curve"/>
      <point x="497.0" y="722"/>
      <point x="657.0" y="722"/>
      <point x="497.0" y="722" type="curve"/>
      <point x="497.0" y="481"/>
      <point x="497.0" y="241"/>
      <point x="497.0" y="0" type="curve"/>
    </contour>
    <contour>
      <point x="922.0" y="0"/>
      <point x="762.0" y="0"/>
      <point x="922.0" y="0" type="curve"/>
      <point x="922.0" y="241"/>
      <point x="922.0" y="481"/>
      <point x="922.0" y="722" type="curve"/>
      <point x="762.0" y="722"/>
      <point x="922.0" y="722"/>
      <point x="762.0" y="722" type="curve"/>
      <point x="762.0" y="481"/>
      <point x="762.0" y="241"/>
      <point x="762.0" y="0" type="curve"/>
    </contour>
  </outline>
</glyph>
<glyph name="periodcentered" format="1">
  <advance width="260.65"/>
  <unicode hex="00B7"/>
  <outline>
    <contour>
      <point x="224.7" y="440"/>
      <point x="35.7" y="440"/>
      <point x="224.7" y="440" type="curve"/>
      <point x="224.7" y="492"/>
      <point x="183.7" y="516"/>
      <point x="128.7" y="516" type="curve"/>
      <point x="73.7" y="516"/>
      <point x="35.7" y="489"/>
      <point x="35.7" y="440" type="curve"/>
      <point x="224.7" y="440"/>
      <point x="35.7" y="440"/>
      <point x="224.7" y="440" type="curve"/>
      <point x="224.7" y="387"/>
      <point x="183.7" y="365"/>
      <point x="127.7" y="365" type="curve"/>
      <point x="72.7" y="365"/>
      <point x="35.7" y="390"/>
      <point x="35.7" y="440" type="curve"/>
    </contour>
  </outline>
</glyph>
<glyph name="cedilla" format="1">
  <advance width="381.0"/>
  <unicode hex="00B8"/>
  <outline>
    <contour>
      <point x="171.0" y="183"/>
      <point x="295.0" y="102"/>
      <point x="171.0" y="183" type="curve"/>
      <point x="154.0" y="162"/>
      <point x="70.0" y="55"/>
      <point x="53.0" y="34" type="curve"/>
      <point x="162.0" y="-60"/>
      <point x="53.0" y="34"/>
      <point x="162.0" y="-60" type="curve"/>
      <point x="184.0" y="-34"/>
      <point x="274.0" y="76"/>
      <point x="295.0" y="102" type="curve"/>
    </contour>
    <contour>
      <point x="162.0" y="-60"/>
      <point x="53.0" y="34"/>
      <point x="162.0" y="-60" type="curve"/>
      <point x="166.0" y="-57"/>
      <point x="170.0" y="-55"/>
      <point x="175.0" y="-55" type="curve"/>
      <point x="183.0" y="-55"/>
      <point x="190.0" y="-57"/>
      <point x="190.0" y="-64" type="curve"/>
      <point x="190.0" y="-76"/>
      <point x="177.0" y="-79"/>
      <point x="163.0" y="-79" type="curve"/>
      <point x="136.0" y="-79"/>
      <point x="113.0" y="-70"/>
      <point x="74.0" y="-56" type="curve"/>
      <point x="31.0" y="-146"/>
      <point x="74.0" y="-56"/>
      <point x="31.0" y="-146" type="curve"/>
      <point x="75.0" y="-163"/>
      <point x="109.0" y="-174"/>
      <point x="156.0" y="-174" type="curve"/>
      <point x="259.0" y="-174"/>
      <point x="342.0" y="-149"/>
      <point x="342.0" y="-59" type="curve"/>
      <point x="342.0" y="22"/>
      <point x="274.0" y="58"/>
      <point x="186.0" y="58" type="curve"/>
      <point x="136.0" y="58"/>
      <point x="101.0" y="49"/>
      <point x="53.0" y="34" type="curve"/>
    </contour>
    <contour>
      <point x="266.0" y="102" type="move" name="_bottom"/>
    </contour>
  </outline>
</glyph>
<glyph name="onesuperior" format="1">
  <advance width="361.0"/>
  <unicode hex="00B9"/>
  <outline>
    <contour>
      <point x="74.0" y="499" type="line"/>
      <point x="308.0" y="694" type="line"/>
      <point x="147.0" y="694" type="line"/>
      <point x="6.0" y="583" type="line"/>
    </contour>
    <contour>
      <point x="271.0" y="249"/>
      <point x="209.0" y="249"/>
      <point x="308.0" y="249" type="curve"/>
      <point x="308.0" y="694" type="line"/>
      <point x="147.0" y="694" type="line"/>
      <point x="147.0" y="249" type="line"/>
    </contour>
    <contour>
      <point x="217.0" y="693" type="move" name="_top"/>
    </contour>
    <contour>
      <point x="232.0" y="249" type="move" name="_bottom"/>
    </contour>
  </outline>
</glyph>
<glyph name="ordmasculine" format="1">
  <advance width="537.0"/>
  <unicode hex="00BA"/>
  <outline>
    <contour>
      <point x="139.0" y="607" type="curve"/>
      <point x="139.0" y="675"/>
      <point x="189.0" y="712"/>
      <point x="264.0" y="712" type="curve"/>
      <point x="345.0" y="712"/>
      <point x="399.0" y="676"/>
      <point x="399.0" y="606" type="curve"/>
      <point x="399.0" y="533"/>
      <point x="345.0" y="501"/>
      <point x="272.0" y="501" type="curve"/>
      <point x="195.0" y="501"/>
      <point x="139.0" y="533"/>
      <point x="139.0" y="607" type="curve"/>
      <point x="29.0" y="607"/>
      <point x="139.0" y="607"/>
      <point x="29.0" y="607" type="curve"/>
      <point x="29.0" y="477"/>
      <point x="130.0" y="421"/>
      <point x="267.0" y="421" type="curve"/>
      <point x="406.0" y="421"/>
      <point x="509.0" y="475"/>
      <point x="509.0" y="606" type="curve"/>
      <point x="509.0" y="730"/>
      <point x="410.0" y="792"/>
      <point x="269.0" y="792" type="curve"/>
      <point x="128.0" y="792"/>
      <point x="29.0" y="730"/>
      <point x="29.0" y="607" type="curve"/>
      <point x="139.0" y="607"/>
      <point x="29.0" y="607"/>
    </contour>
  </outline>
</glyph>
<glyph name="guillemotright" format="1">
  <advance width="663.5"/>
  <unicode hex="00BB"/>
  <outline>
    <contour>
      <point x="358.5" y="482"/>
      <point x="358.5" y="354"/>
      <point x="358.5" y="482" type="curve"/>
      <point x="432.5" y="448"/>
      <point x="556.5" y="386"/>
      <point x="630.5" y="352" type="curve"/>
      <point x="630.5" y="223"/>
      <point x="630.5" y="352"/>
      <point x="630.5" y="223" type="curve"/>
      <point x="556.5" y="258"/>
      <point x="432.5" y="319"/>
      <point x="358.5" y="354" type="curve"/>
    </contour>
    <contour>
      <point x="358.5" y="224"/>
      <point x="358.5" y="95"/>
      <point x="358.5" y="224" type="curve"/>
      <point x="432.5" y="258"/>
      <point x="556.5" y="317"/>
      <point x="630.5" y="352" type="curve"/>
      <point x="630.5" y="223"/>
      <point x="630.5" y="352"/>
      <point x="630.5" y="223" type="curve"/>
      <point x="556.5" y="189"/>
      <point x="432.5" y="130"/>
      <point x="358.5" y="95" type="curve"/>
    </contour>
    <contour>
      <point x="51.5" y="482"/>
      <point x="51.5" y="354"/>
      <point x="51.5" y="482" type="curve"/>
      <point x="125.5" y="448"/>
      <point x="249.5" y="386"/>
      <point x="323.5" y="352" type="curve"/>
      <point x="323.5" y="223"/>
      <point x="323.5" y="352"/>
      <point x="323.5" y="223" type="curve"/>
      <point x="249.5" y="258"/>
      <point x="125.5" y="319"/>
      <point x="51.5" y="354" type="curve"/>
    </contour>
    <contour>
      <point x="51.5" y="224"/>
      <point x="51.5" y="95"/>
      <point x="51.5" y="224" type="curve"/>
      <point x="125.5" y="258"/>
      <point x="249.5" y="317"/>
      <point x="323.5" y="352" type="curve"/>
      <point x="323.5" y="223"/>
      <point x="323.5" y="352"/>
      <point x="323.5" y="223" type="curve"/>
      <point x="249.5" y="189"/>
      <point x="125.5" y="130"/>
      <point x="51.5" y="95" type="curve"/>
    </contour>
  </outline>
</glyph>
<glyph name="onequarter" format="1">
  <advance width="1162.0"/>
  <unicode hex="00BC"/>
  <outline>
    <contour>
      <point x="379.0" y="-31" type="line"/>
      <point x="933.0" y="703" type="line"/>
      <point x="787.0" y="703" type="line"/>
      <point x="233.0" y="-31" type="line"/>
    </contour>
    <contour>
      <point x="89.0" y="510" type="line"/>
      <point x="323.0" y="705" type="line"/>
      <point x="162.0" y="705" type="line"/>
      <point x="21.0" y="594" type="line"/>
    </contour>
    <contour>
      <point x="286.0" y="260"/>
      <point x="224.0" y="260"/>
      <point x="323.0" y="260" type="curve"/>
      <point x="323.0" y="705" type="line"/>
      <point x="162.0" y="705" type="line"/>
      <point x="162.0" y="260" type="line"/>
    </contour>
    <contour>
      <point x="1131.0" y="217" type="line"/>
      <point x="651.0" y="217" type="line"/>
      <point x="651.0" y="106" type="line"/>
      <point x="1131.0" y="106" type="line"/>
    </contour>
    <contour>
      <point x="682.0" y="121" type="line"/>
      <point x="1006.0" y="414" type="line"/>
      <point x="880.0" y="430" type="line"/>
      <point x="651.0" y="217" type="line"/>
    </contour>
    <contour>
      <point x="1041.0" y="-36" type="line"/>
      <point x="1041.0" y="430" type="line"/>
      <point x="880.0" y="430" type="line"/>
      <point x="880.0" y="-36" type="line"/>
    </contour>
  </outline>
</glyph>
<glyph name="onehalf" format="1">
  <advance width="1222.0"/>
  <unicode hex="00BD"/>
  <outline>
    <contour>
      <point x="379.0" y="-31" type="line"/>
      <point x="933.0" y="703" type="line"/>
      <point x="787.0" y="703" type="line"/>
      <point x="233.0" y="-31" type="line"/>
    </contour>
    <contour>
      <point x="89.0" y="510" type="line"/>
      <point x="323.0" y="705" type="line"/>
      <point x="162.0" y="705" type="line"/>
      <point x="21.0" y="594" type="line"/>
    </contour>
    <contour>
      <point x="286.0" y="260"/>
      <point x="224.0" y="260"/>
      <point x="323.0" y="260" type="curve"/>
      <point x="323.0" y="705" type="line"/>
      <point x="162.0" y="705" type="line"/>
      <point x="162.0" y="260" type="line"/>
    </contour>
    <contour>
      <point x="690.0" y="-38"/>
      <point x="690.0" y="79"/>
      <point x="690.0" y="-38" type="curve"/>
      <point x="905.0" y="-38"/>
      <point x="1046.0" y="-38"/>
      <point x="1189.0" y="-38" type="curve"/>
      <point x="1189.0" y="26"/>
      <point x="1189.0" y="31"/>
      <point x="1189.0" y="79" type="curve"/>
      <point x="1023.0" y="79"/>
      <point x="856.0" y="79"/>
      <point x="690.0" y="79" type="curve"/>
    </contour>
    <contour>
      <point x="799.0" y="254"/>
      <point x="693.0" y="326"/>
      <point x="799.0" y="254" type="curve"/>
      <point x="838.0" y="288"/>
      <point x="870.0" y="301"/>
      <point x="912.0" y="301" type="curve"/>
      <point x="955.0" y="301"/>
      <point x="993.0" y="293"/>
      <point x="993.0" y="265" type="curve"/>
      <point x="993.0" y="232"/>
      <point x="962.0" y="219"/>
      <point x="933.0" y="201" type="curve"/>
      <point x="852.0" y="159"/>
      <point x="771.0" y="120"/>
      <point x="690.0" y="79" type="curve"/>
      <point x="690.0" y="-34"/>
      <point x="695.0" y="79"/>
      <point x="695.0" y="-34" type="curve"/>
      <point x="831.0" y="31"/>
      <point x="927.0" y="67"/>
      <point x="1012.0" y="112" type="curve"/>
      <point x="1089.0" y="158"/>
      <point x="1155.0" y="189"/>
      <point x="1155.0" y="269" type="curve"/>
      <point x="1155.0" y="380"/>
      <point x="1055.0" y="418"/>
      <point x="932.0" y="418" type="curve"/>
      <point x="830.0" y="418"/>
      <point x="749.0" y="391"/>
      <point x="693.0" y="326" type="curve"/>
    </contour>
  </outline>
</glyph>
<glyph name="threequarters" format="1">
  <advance width="1151.0"/>
  <unicode hex="00BE"/>
  <outline>
    <contour>
      <point x="393.0" y="-31" type="line"/>
      <point x="947.0" y="703" type="line"/>
      <point x="801.0" y="703" type="line"/>
      <point x="247.0" y="-31" type="line"/>
    </contour>
    <contour>
      <point x="96.0" y="553"/>
      <point x="31.0" y="638"/>
      <point x="96.0" y="553" type="curve"/>
      <point x="137.0" y="583"/>
      <point x="183.0" y="590"/>
      <point x="212.0" y="590" type="curve"/>
      <point x="257.0" y="590"/>
      <point x="293.0" y="587"/>
      <point x="293.0" y="559" type="curve"/>
      <point x="293.0" y="525"/>
      <point x="220.0" y="524"/>
      <point x="159.0" y="524" type="curve"/>
      <point x="159.0" y="428"/>
      <point x="159.0" y="524"/>
      <point x="159.0" y="428" type="curve"/>
      <point x="313.0" y="429"/>
      <point x="454.0" y="438"/>
      <point x="454.0" y="566" type="curve"/>
      <point x="454.0" y="675"/>
      <point x="353.0" y="702"/>
      <point x="229.0" y="702" type="curve"/>
      <point x="155.0" y="702"/>
      <point x="86.0" y="679"/>
      <point x="31.0" y="638" type="curve"/>
    </contour>
    <contour>
      <point x="29.0" y="282"/>
      <point x="89.0" y="373"/>
      <point x="29.0" y="282" type="curve"/>
      <point x="86.0" y="258"/>
      <point x="140.0" y="241"/>
      <point x="201.0" y="241" type="curve"/>
      <point x="352.0" y="237"/>
      <point x="478.0" y="262"/>
      <point x="474.0" y="390" type="curve"/>
      <point x="474.0" y="529"/>
      <point x="319.0" y="512"/>
      <point x="159.0" y="514" type="curve"/>
      <point x="159.0" y="427"/>
      <point x="159.0" y="514"/>
      <point x="159.0" y="427" type="curve"/>
      <point x="235.0" y="427"/>
      <point x="313.0" y="429"/>
      <point x="313.0" y="391" type="curve"/>
      <point x="313.0" y="354"/>
      <point x="267.0" y="348"/>
      <point x="217.0" y="349" type="curve"/>
      <point x="180.0" y="349"/>
      <point x="144.0" y="356"/>
      <point x="89.0" y="373" type="curve"/>
    </contour>
    <contour>
      <point x="1126.0" y="217" type="line"/>
      <point x="646.0" y="217" type="line"/>
      <point x="646.0" y="106" type="line"/>
      <point x="1126.0" y="106" type="line"/>
    </contour>
    <contour>
      <point x="677.0" y="121" type="line"/>
      <point x="1001.0" y="414" type="line"/>
      <point x="875.0" y="430" type="line"/>
      <point x="646.0" y="217" type="line"/>
    </contour>
    <contour>
      <point x="1036.0" y="-36" type="line"/>
      <point x="1036.0" y="430" type="line"/>
      <point x="875.0" y="430" type="line"/>
      <point x="875.0" y="-36" type="line"/>
    </contour>
  </outline>
</glyph>
<glyph name="questiondown" format="1">
  <advance width="647.0"/>
  <unicode hex="00BF"/>
  <outline>
    <contour>
      <point x="431.0" y="315"/>
      <point x="271.0" y="315"/>
      <point x="431.0" y="315" type="curve"/>
      <point x="431.0" y="352"/>
      <point x="431.0" y="441"/>
      <point x="431.0" y="478" type="curve"/>
      <point x="271.0" y="478"/>
      <point x="431.0" y="478"/>
      <point x="271.0" y="478" type="curve"/>
      <point x="271.0" y="441"/>
      <point x="271.0" y="352"/>
      <point x="271.0" y="315" type="curve"/>
    </contour>
    <contour>
      <point x="530.0" y="140" type="line"/>
      <point x="489.0" y="100"/>
      <point x="419.0" y="63"/>
      <point x="342.0" y="63" type="curve"/>
      <point x="252.0" y="63"/>
      <point x="178.0" y="96"/>
      <point x="178.0" y="180" type="curve"/>
      <point x="178.0" y="274"/>
      <point x="282.0" y="315"/>
      <point x="413.0" y="315" type="curve"/>
      <point x="413.0" y="358"/>
      <point x="413.0" y="389"/>
      <point x="413.0" y="432" type="curve"/>
      <point x="195.0" y="432"/>
      <point x="25.0" y="351"/>
      <point x="25.0" y="180" type="curve"/>
      <point x="25.0" y="20"/>
      <point x="160.0" y="-58"/>
      <point x="334.0" y="-58" type="curve"/>
      <point x="446.0" y="-58"/>
      <point x="532.0" y="-23"/>
      <point x="611.0" y="51" type="curve"/>
    </contour>
    <contour>
      <point x="254.0" y="681"/>
      <point x="443.0" y="681"/>
      <point x="254.0" y="681" type="curve"/>
      <point x="254.0" y="629"/>
      <point x="295.0" y="605"/>
      <point x="350.0" y="605" type="curve"/>
      <point x="405.0" y="605"/>
      <point x="443.0" y="632"/>
      <point x="443.0" y="681" type="curve"/>
      <point x="254.0" y="681"/>
      <point x="443.0" y="681"/>
      <point x="254.0" y="681" type="curve"/>
      <point x="254.0" y="734"/>
      <point x="295.0" y="756"/>
      <point x="351.0" y="756" type="curve"/>
      <point x="406.0" y="756"/>
      <point x="443.0" y="731"/>
      <point x="443.0" y="681" type="curve"/>
    </contour>
  </outline>
</glyph>
<glyph name="Acircumflex" format="1">
  <advance width="915.0"/>
  <unicode hex="00C2"/>
  <outline>
    <contour>
      <point x="670.0" y="317"/>
      <point x="721.0" y="194"/>
      <point x="670.0" y="317" type="curve"/>
      <point x="534.0" y="317"/>
      <point x="398.0" y="317"/>
      <point x="262.0" y="317" type="curve"/>
      <point x="196.0" y="194"/>
      <point x="262.0" y="317"/>
      <point x="196.0" y="194" type="curve"/>
      <point x="371.0" y="194"/>
      <point x="546.0" y="194"/>
      <point x="721.0" y="194" type="curve"/>
    </contour>
    <contour>
      <point x="907.0" y="0"/>
      <point x="739.0" y="0"/>
      <point x="907.0" y="0" type="curve"/>
      <point x="790.0" y="242"/>
      <point x="665.0" y="480"/>
      <point x="547.0" y="722" type="curve"/>
      <point x="401.0" y="722"/>
      <point x="547.0" y="722"/>
      <point x="401.0" y="722" type="curve"/>
      <point x="516.0" y="483"/>
      <point x="624.0" y="239"/>
      <point x="739.0" y="0" type="curve"/>
    </contour>
    <contour>
      <point x="169.0" y="0"/>
      <point x="-6.0" y="0"/>
      <point x="169.0" y="0" type="curve"/>
      <point x="298.0" y="239"/>
      <point x="416.0" y="483"/>
      <point x="545.0" y="722" type="curve"/>
      <point x="399.0" y="722"/>
      <point x="545.0" y="722"/>
      <point x="399.0" y="722" type="curve"/>
      <point x="267.0" y="480"/>
      <point x="126.0" y="242"/>
      <point x="-6.0" y="0" type="curve"/>
    </contour>
    <contour>
      <point x="357.0" y="781" type="line"/>
      <point x="551.0" y="947" type="line"/>
      <point x="342.0" y="947" type="line"/>
      <point x="198.0" y="781" type="line"/>
    </contour>
    <contour>
      <point x="748.0" y="781" type="line"/>
      <point x="600.0" y="947" type="line"/>
      <point x="391.0" y="947" type="line"/>
      <point x="585.0" y="781" type="line"/>
    </contour>
  </outline>
</glyph>
<glyph name="Atilde" format="1">
  <advance width="915.0"/>
  <unicode hex="00C3"/>
  <outline>
    <contour>
      <point x="670.0" y="317"/>
      <point x="721.0" y="194"/>
      <point x="670.0" y="317" type="curve"/>
      <point x="534.0" y="317"/>
      <point x="398.0" y="317"/>
      <point x="262.0" y="317" type="curve"/>
      <point x="196.0" y="194"/>
      <point x="262.0" y="317"/>
      <point x="196.0" y="194" type="curve"/>
      <point x="371.0" y="194"/>
      <point x="546.0" y="194"/>
      <point x="721.0" y="194" type="curve"/>
    </contour>
    <contour>
      <point x="907.0" y="0"/>
      <point x="739.0" y="0"/>
      <point x="907.0" y="0" type="curve"/>
      <point x="790.0" y="242"/>
      <point x="665.0" y="480"/>
      <point x="547.0" y="722" type="curve"/>
      <point x="401.0" y="722"/>
      <point x="547.0" y="722"/>
      <point x="401.0" y="722" type="curve"/>
      <point x="516.0" y="483"/>
      <point x="624.0" y="239"/>
      <point x="739.0" y="0" type="curve"/>
    </contour>
    <contour>
      <point x="169.0" y="0"/>
      <point x="-6.0" y="0"/>
      <point x="169.0" y="0" type="curve"/>
      <point x="298.0" y="239"/>
      <point x="416.0" y="483"/>
      <point x="545.0" y="722" type="curve"/>
      <point x="399.0" y="722"/>
      <point x="545.0" y="722"/>
      <point x="399.0" y="722" type="curve"/>
      <point x="267.0" y="480"/>
      <point x="126.0" y="242"/>
      <point x="-6.0" y="0" type="curve"/>
    </contour>
    <contour>
      <point x="648.0" y="958"/>
      <point x="771.0" y="904"/>
      <point x="647.0" y="959" type="curve"/>
      <point x="636.0" y="923"/>
      <point x="615.0" y="887"/>
      <point x="584.0" y="887" type="curve"/>
      <point x="548.0" y="887"/>
      <point x="527.0" y="897"/>
      <point x="498.0" y="919" type="curve"/>
      <point x="452.0" y="954"/>
      <point x="415.0" y="968"/>
      <point x="358.0" y="968" type="curve"/>
      <point x="267.0" y="968"/>
      <point x="211.0" y="921"/>
      <point x="172.0" y="828" type="curve"/>
      <point x="291.0" y="772"/>
      <point x="174.0" y="827"/>
      <point x="292.0" y="772" type="curve"/>
      <point x="310.0" y="817"/>
      <point x="331.0" y="845"/>
      <point x="361.0" y="845" type="curve"/>
      <point x="396.0" y="845"/>
      <point x="415.0" y="831"/>
      <point x="442.0" y="812" type="curve" smooth="yes"/>
      <point x="493.0" y="775"/>
      <point x="527.0" y="765"/>
      <point x="586.0" y="765" type="curve"/>
      <point x="682.0" y="765"/>
      <point x="739.0" y="815"/>
      <point x="772.0" y="905" type="curve"/>
    </contour>
  </outline>
</glyph>
<glyph name="Aring" format="1">
  <advance width="915.0"/>
  <unicode hex="00C5"/>
  <outline>
    <contour>
      <point x="670.0" y="317"/>
      <point x="721.0" y="194"/>
      <point x="670.0" y="317" type="curve"/>
      <point x="534.0" y="317"/>
      <point x="398.0" y="317"/>
      <point x="262.0" y="317" type="curve"/>
      <point x="196.0" y="194"/>
      <point x="262.0" y="317"/>
      <point x="196.0" y="194" type="curve"/>
      <point x="371.0" y="194"/>
      <point x="546.0" y="194"/>
      <point x="721.0" y="194" type="curve"/>
    </contour>
    <contour>
      <point x="907.0" y="0"/>
      <point x="739.0" y="0"/>
      <point x="907.0" y="0" type="curve"/>
      <point x="790.0" y="242"/>
      <point x="665.0" y="480"/>
      <point x="547.0" y="722" type="curve"/>
      <point x="401.0" y="722"/>
      <point x="547.0" y="722"/>
      <point x="401.0" y="722" type="curve"/>
      <point x="516.0" y="483"/>
      <point x="624.0" y="239"/>
      <point x="739.0" y="0" type="curve"/>
    </contour>
    <contour>
      <point x="169.0" y="0"/>
      <point x="-6.0" y="0"/>
      <point x="169.0" y="0" type="curve"/>
      <point x="298.0" y="239"/>
      <point x="416.0" y="483"/>
      <point x="545.0" y="722" type="curve"/>
      <point x="399.0" y="722"/>
      <point x="545.0" y="722"/>
      <point x="399.0" y="722" type="curve"/>
      <point x="267.0" y="480"/>
      <point x="126.0" y="242"/>
      <point x="-6.0" y="0" type="curve"/>
    </contour>
    <contour>
      <point x="266.0" y="926"/>
      <point x="399.0" y="926"/>
      <point x="266.0" y="926" type="curve"/>
      <point x="266.0" y="820"/>
      <point x="357.0" y="776"/>
      <point x="474.0" y="776" type="curve"/>
      <point x="594.0" y="776"/>
      <point x="687.0" y="819"/>
      <point x="687.0" y="926" type="curve"/>
      <point x="687.0" y="1034"/>
      <point x="593.0" y="1076"/>
      <point x="472.0" y="1076" type="curve"/>
      <point x="355.0" y="1076"/>
      <point x="266.0" y="1032"/>
      <point x="266.0" y="926" type="curve"/>
      <point x="399.0" y="926"/>
      <point x="266.0" y="926"/>
      <point x="399.0" y="926" type="curve"/>
      <point x="399.0" y="967"/>
      <point x="433.0" y="979"/>
      <point x="472.0" y="979" type="curve"/>
      <point x="515.0" y="979"/>
      <point x="553.0" y="973"/>
      <point x="553.0" y="926" type="curve"/>
      <point x="553.0" y="883"/>
      <point x="516.0" y="873"/>
      <point x="474.0" y="873" type="curve"/>
      <point x="434.0" y="873"/>
      <point x="399.0" y="884"/>
      <point x="399.0" y="926" type="curve"/>
    </contour>
  </outline>
</glyph>
<glyph name="AE" format="1">
  <advance width="1217.0"/>
  <unicode hex="00C6"/>
  <outline>
    <contour>
      <point x="580.0" y="297"/>
      <point x="631.0" y="174"/>
      <point x="580.0" y="297" type="curve"/>
      <point x="444.0" y="297"/>
      <point x="389.0" y="297"/>
      <point x="253.0" y="297" type="curve"/>
      <point x="187.0" y="174"/>
      <point x="253.0" y="297"/>
      <point x="187.0" y="174" type="curve"/>
      <point x="362.0" y="174"/>
      <point x="456.0" y="174"/>
      <point x="631.0" y="174" type="curve"/>
    </contour>
    <contour>
      <point x="160.0" y="0"/>
      <point x="-15.0" y="0"/>
      <point x="160.0" y="0" type="curve"/>
      <point x="701.0" y="722" type="line"/>
      <point x="555.0" y="722"/>
      <point x="701.0" y="722"/>
      <point x="555.0" y="722" type="curve"/>
      <point x="-15.0" y="0" type="line"/>
    </contour>
    <contour>
      <point x="642.0" y="314"/>
      <point x="642.0" y="431"/>
      <point x="642.0" y="314" type="curve"/>
      <point x="784.0" y="314"/>
      <point x="926.0" y="314"/>
      <point x="1068.0" y="314" type="curve"/>
      <point x="1068.0" y="431"/>
      <point x="1068.0" y="314"/>
      <point x="1068.0" y="431" type="curve"/>
      <point x="926.0" y="431"/>
      <point x="784.0" y="431"/>
      <point x="642.0" y="431" type="curve"/>
    </contour>
    <contour>
      <point x="622.0" y="605"/>
      <point x="622.0" y="722"/>
      <point x="622.0" y="605" type="curve"/>
      <point x="798.0" y="605"/>
      <point x="974.0" y="605"/>
      <point x="1150.0" y="605" type="curve"/>
      <point x="1150.0" y="722"/>
      <point x="1150.0" y="605"/>
      <point x="1150.0" y="722" type="curve"/>
      <point x="974.0" y="722"/>
      <point x="798.0" y="722"/>
      <point x="622.0" y="722" type="curve"/>
    </contour>
    <contour>
      <point x="717.0" y="0"/>
      <point x="556.0" y="0"/>
      <point x="717.0" y="0" type="curve"/>
      <point x="717.0" y="0"/>
      <point x="717.0" y="722"/>
      <point x="717.0" y="722" type="curve"/>
      <point x="556.0" y="722"/>
      <point x="717.0" y="722"/>
      <point x="556.0" y="722" type="curve"/>
      <point x="556.0" y="481"/>
      <point x="556.0" y="241"/>
      <point x="556.0" y="0" type="curve"/>
    </contour>
    <contour>
      <point x="622.0" y="0"/>
      <point x="622.0" y="117"/>
      <point x="622.0" y="0" type="curve"/>
      <point x="813.0" y="0"/>
      <point x="1003.0" y="0"/>
      <point x="1194.0" y="0" type="curve"/>
      <point x="1194.0" y="117"/>
      <point x="1194.0" y="0"/>
      <point x="1194.0" y="117" type="curve"/>
      <point x="1003.0" y="117"/>
      <point x="813.0" y="117"/>
      <point x="622.0" y="117" type="curve"/>
    </contour>
  </outline>
</glyph>
<glyph name="Ccedilla" format="1">
  <advance width="854.0"/>
  <unicode hex="00C7"/>
  <outline>
    <contour>
      <point x="848.0" y="654"/>
      <point x="787.0" y="552"/>
      <point x="848.0" y="654" type="curve"/>
      <point x="747.0" y="696"/>
      <point x="641.0" y="727"/>
      <point x="523.0" y="727" type="curve"/>
      <point x="240.0" y="727"/>
      <point x="36.0" y="608"/>
      <point x="36.0" y="344" type="curve"/>
      <point x="36.0" y="100"/>
      <point x="225.0" y="-5"/>
      <point x="489.0" y="-5" type="curve"/>
      <point x="644.0" y="-5"/>
      <point x="738.0" y="22"/>
      <point x="848.0" y="87" type="curve"/>
      <point x="789.0" y="190"/>
      <point x="847.0" y="87"/>
      <point x="788.0" y="190" type="curve"/>
      <point x="681.0" y="135"/>
      <point x="604.0" y="119"/>
      <point x="495.0" y="119" type="curve"/>
      <point x="321.0" y="119"/>
      <point x="197.0" y="189"/>
      <point x="197.0" y="350" type="curve"/>
      <point x="197.0" y="524"/>
      <point x="329.0" y="605"/>
      <point x="515.0" y="605" type="curve"/>
      <point x="604.0" y="605"/>
      <point x="685.0" y="593"/>
      <point x="787.0" y="552" type="curve"/>
    </contour>
    <contour>
      <point x="433.0" y="87"/>
      <point x="557.0" y="6"/>
      <point x="433.0" y="87" type="curve"/>
      <point x="416.0" y="66"/>
      <point x="332.0" y="-41"/>
      <point x="315.0" y="-62" type="curve"/>
      <point x="424.0" y="-156"/>
      <point x="315.0" y="-62"/>
      <point x="424.0" y="-156" type="curve"/>
      <point x="446.0" y="-130"/>
      <point x="536.0" y="-20"/>
      <point x="557.0" y="6" type="curve"/>
    </contour>
    <contour>
      <point x="424.0" y="-156"/>
      <point x="315.0" y="-62"/>
      <point x="424.0" y="-156" type="curve"/>
      <point x="428.0" y="-153"/>
      <point x="432.0" y="-151"/>
      <point x="437.0" y="-151" type="curve"/>
      <point x="445.0" y="-151"/>
      <point x="452.0" y="-153"/>
      <point x="452.0" y="-160" type="curve"/>
      <point x="452.0" y="-172"/>
      <point x="439.0" y="-175"/>
      <point x="425.0" y="-175" type="curve"/>
      <point x="398.0" y="-175"/>
      <point x="375.0" y="-166"/>
      <point x="336.0" y="-152" type="curve"/>
      <point x="293.0" y="-242"/>
      <point x="336.0" y="-152"/>
      <point x="293.0" y="-242" type="curve"/>
      <point x="337.0" y="-259"/>
      <point x="371.0" y="-270"/>
      <point x="418.0" y="-270" type="curve"/>
      <point x="521.0" y="-270"/>
      <point x="604.0" y="-245"/>
      <point x="604.0" y="-155" type="curve"/>
      <point x="604.0" y="-74"/>
      <point x="536.0" y="-38"/>
      <point x="448.0" y="-38" type="curve"/>
      <point x="398.0" y="-38"/>
      <point x="363.0" y="-47"/>
      <point x="315.0" y="-62" type="curve"/>
    </contour>
  </outline>
</glyph>
<glyph name="Egrave" format="1">
  <advance width="726.0"/>
  <unicode hex="00C8"/>
  <outline>
    <contour>
      <point x="151.0" y="314"/>
      <point x="151.0" y="431"/>
      <point x="151.0" y="314" type="curve"/>
      <point x="293.0" y="314"/>
      <point x="435.0" y="314"/>
      <point x="577.0" y="314" type="curve"/>
      <point x="577.0" y="431"/>
      <point x="577.0" y="314"/>
      <point x="577.0" y="431" type="curve"/>
      <point x="435.0" y="431"/>
      <point x="293.0" y="431"/>
      <point x="151.0" y="431" type="curve"/>
    </contour>
    <contour>
      <point x="131.0" y="605"/>
      <point x="131.0" y="722"/>
      <point x="131.0" y="605" type="curve"/>
      <point x="307.0" y="605"/>
      <point x="483.0" y="605"/>
      <point x="659.0" y="605" type="curve"/>
      <point x="659.0" y="722"/>
      <point x="659.0" y="605"/>
      <point x="659.0" y="722" type="curve"/>
      <point x="483.0" y="722"/>
      <point x="307.0" y="722"/>
      <point x="131.0" y="722" type="curve"/>
    </contour>
    <contour>
      <point x="226.0" y="0"/>
      <point x="65.0" y="0"/>
      <point x="226.0" y="0" type="curve"/>
      <point x="226.0" y="0"/>
      <point x="226.0" y="722"/>
      <point x="226.0" y="722" type="curve"/>
      <point x="65.0" y="722"/>
      <point x="226.0" y="722"/>
      <point x="65.0" y="722" type="curve"/>
      <point x="65.0" y="481"/>
      <point x="65.0" y="241"/>
      <point x="65.0" y="0" type="curve"/>
    </contour>
    <contour>
      <point x="131.0" y="0"/>
      <point x="131.0" y="117"/>
      <point x="131.0" y="0" type="curve"/>
      <point x="322.0" y="0"/>
      <point x="512.0" y="0"/>
      <point x="703.0" y="0" type="curve"/>
      <point x="703.0" y="117"/>
      <point x="703.0" y="0"/>
      <point x="703.0" y="117" type="curve"/>
      <point x="512.0" y="117"/>
      <point x="322.0" y="117"/>
      <point x="131.0" y="117" type="curve"/>
    </contour>
    <contour>
      <point x="421.0" y="779" type="line"/>
      <point x="273.0" y="945" type="line"/>
      <point x="64.0" y="945" type="line"/>
      <point x="258.0" y="779" type="line"/>
    </contour>
  </outline>
</glyph>
<glyph name="Eacute" format="1">
  <advance width="725.0"/>
  <unicode hex="00C9"/>
  <outline>
    <contour>
      <point x="150.0" y="314"/>
      <point x="150.0" y="431"/>
      <point x="150.0" y="314" type="curve"/>
      <point x="292.0" y="314"/>
      <point x="434.0" y="314"/>
      <point x="576.0" y="314" type="curve"/>
      <point x="576.0" y="431"/>
      <point x="576.0" y="314"/>
      <point x="576.0" y="431" type="curve"/>
      <point x="434.0" y="431"/>
      <point x="292.0" y="431"/>
      <point x="150.0" y="431" type="curve"/>
    </contour>
    <contour>
      <point x="130.0" y="605"/>
      <point x="130.0" y="722"/>
      <point x="130.0" y="605" type="curve"/>
      <point x="306.0" y="605"/>
      <point x="482.0" y="605"/>
      <point x="658.0" y="605" type="curve"/>
      <point x="658.0" y="722"/>
      <point x="658.0" y="605"/>
      <point x="658.0" y="722" type="curve"/>
      <point x="482.0" y="722"/>
      <point x="306.0" y="722"/>
      <point x="130.0" y="722" type="curve"/>
    </contour>
    <contour>
      <point x="225.0" y="0"/>
      <point x="64.0" y="0"/>
      <point x="225.0" y="0" type="curve"/>
      <point x="225.0" y="0"/>
      <point x="225.0" y="722"/>
      <point x="225.0" y="722" type="curve"/>
      <point x="64.0" y="722"/>
      <point x="225.0" y="722"/>
      <point x="64.0" y="722" type="curve"/>
      <point x="64.0" y="481"/>
      <point x="64.0" y="241"/>
      <point x="64.0" y="0" type="curve"/>
    </contour>
    <contour>
      <point x="130.0" y="0"/>
      <point x="130.0" y="117"/>
      <point x="130.0" y="0" type="curve"/>
      <point x="321.0" y="0"/>
      <point x="511.0" y="0"/>
      <point x="702.0" y="0" type="curve"/>
      <point x="702.0" y="117"/>
      <point x="702.0" y="0"/>
      <point x="702.0" y="117" type="curve"/>
      <point x="511.0" y="117"/>
      <point x="321.0" y="117"/>
      <point x="130.0" y="117" type="curve"/>
    </contour>
    <contour>
      <point x="390.0" y="779" type="line"/>
      <point x="584.0" y="945" type="line"/>
      <point x="375.0" y="945" type="line"/>
      <point x="231.0" y="779" type="line"/>
    </contour>
  </outline>
</glyph>
<glyph name="Ecircumflex" format="1">
  <advance width="684.0"/>
  <unicode hex="00CA"/>
  <outline>
    <contour>
      <point x="123.0" y="314"/>
      <point x="123.0" y="431"/>
      <point x="123.0" y="314" type="curve"/>
      <point x="265.0" y="314"/>
      <point x="407.0" y="314"/>
      <point x="549.0" y="314" type="curve"/>
      <point x="549.0" y="431"/>
      <point x="549.0" y="314"/>
      <point x="549.0" y="431" type="curve"/>
      <point x="407.0" y="431"/>
      <point x="265.0" y="431"/>
      <point x="123.0" y="431" type="curve"/>
    </contour>
    <contour>
      <point x="103.0" y="605"/>
      <point x="103.0" y="722"/>
      <point x="103.0" y="605" type="curve"/>
      <point x="279.0" y="605"/>
      <point x="455.0" y="605"/>
      <point x="631.0" y="605" type="curve"/>
      <point x="631.0" y="722"/>
      <point x="631.0" y="605"/>
      <point x="631.0" y="722" type="curve"/>
      <point x="455.0" y="722"/>
      <point x="279.0" y="722"/>
      <point x="103.0" y="722" type="curve"/>
    </contour>
    <contour>
      <point x="198.0" y="0"/>
      <point x="37.0" y="0"/>
      <point x="198.0" y="0" type="curve"/>
      <point x="198.0" y="0"/>
      <point x="198.0" y="722"/>
      <point x="198.0" y="722" type="curve"/>
      <point x="37.0" y="722"/>
      <point x="198.0" y="722"/>
      <point x="37.0" y="722" type="curve"/>
      <point x="37.0" y="481"/>
      <point x="37.0" y="241"/>
      <point x="37.0" y="0" type="curve"/>
    </contour>
    <contour>
      <point x="103.0" y="0"/>
      <point x="103.0" y="117"/>
      <point x="103.0" y="0" type="curve"/>
      <point x="294.0" y="0"/>
      <point x="484.0" y="0"/>
      <point x="675.0" y="0" type="curve"/>
      <point x="675.0" y="117"/>
      <point x="675.0" y="0"/>
      <point x="675.0" y="117" type="curve"/>
      <point x="484.0" y="117"/>
      <point x="294.0" y="117"/>
      <point x="103.0" y="117" type="curve"/>
    </contour>
    <contour>
      <point x="184.0" y="781" type="line"/>
      <point x="378.0" y="947" type="line"/>
      <point x="169.0" y="947" type="line"/>
      <point x="25.0" y="781" type="line"/>
    </contour>
    <contour>
      <point x="575.0" y="781" type="line"/>
      <point x="427.0" y="947" type="line"/>
      <point x="218.0" y="947" type="line"/>
      <point x="412.0" y="781" type="line"/>
    </contour>
  </outline>
</glyph>
<glyph name="Edieresis" format="1">
  <advance width="722.7"/>
  <unicode hex="00CB"/>
  <outline>
    <contour>
      <point x="147.7" y="314"/>
      <point x="147.7" y="431"/>
      <point x="147.7" y="314" type="curve"/>
      <point x="289.7" y="314"/>
      <point x="431.7" y="314"/>
      <point x="573.7" y="314" type="curve"/>
      <point x="573.7" y="431"/>
      <point x="573.7" y="314"/>
      <point x="573.7" y="431" type="curve"/>
      <point x="431.7" y="431"/>
      <point x="289.7" y="431"/>
      <point x="147.7" y="431" type="curve"/>
    </contour>
    <contour>
      <point x="127.7" y="605"/>
      <point x="127.7" y="722"/>
      <point x="127.7" y="605" type="curve"/>
      <point x="303.7" y="605"/>
      <point x="479.7" y="605"/>
      <point x="655.7" y="605" type="curve"/>
      <point x="655.7" y="722"/>
      <point x="655.7" y="605"/>
      <point x="655.7" y="722" type="curve"/>
      <point x="479.7" y="722"/>
      <point x="303.7" y="722"/>
      <point x="127.7" y="722" type="curve"/>
    </contour>
    <contour>
      <point x="222.7" y="0"/>
      <point x="61.7" y="0"/>
      <point x="222.7" y="0" type="curve"/>
      <point x="222.7" y="0"/>
      <point x="222.7" y="722"/>
      <point x="222.7" y="722" type="curve"/>
      <point x="61.7" y="722"/>
      <point x="222.7" y="722"/>
      <point x="61.7" y="722" type="curve"/>
      <point x="61.7" y="481"/>
      <point x="61.7" y="241"/>
      <point x="61.7" y="0" type="curve"/>
    </contour>
    <contour>
      <point x="127.7" y="0"/>
      <point x="127.7" y="117"/>
      <point x="127.7" y="0" type="curve"/>
      <point x="318.7" y="0"/>
      <point x="508.7" y="0"/>
      <point x="699.7" y="0" type="curve"/>
      <point x="699.7" y="117"/>
      <point x="699.7" y="0"/>
      <point x="699.7" y="117" type="curve"/>
      <point x="508.7" y="117"/>
      <point x="318.7" y="117"/>
      <point x="127.7" y="117" type="curve"/>
    </contour>
    <contour>
      <point x="297.7" y="852"/>
      <point x="108.7" y="852"/>
      <point x="297.7" y="852" type="curve"/>
      <point x="297.7" y="904"/>
      <point x="256.7" y="928"/>
      <point x="201.7" y="928" type="curve"/>
      <point x="146.7" y="928"/>
      <point x="108.7" y="901"/>
      <point x="108.7" y="852" type="curve"/>
      <point x="297.7" y="852"/>
      <point x="108.7" y="852"/>
      <point x="297.7" y="852" type="curve"/>
      <point x="297.7" y="799"/>
      <point x="256.7" y="777"/>
      <point x="200.7" y="777" type="curve"/>
      <point x="145.7" y="777"/>
      <point x="108.7" y="802"/>
      <point x="108.7" y="852" type="curve"/>
    </contour>
    <contour>
      <point x="538.7" y="852"/>
      <point x="349.7" y="852"/>
      <point x="538.7" y="852" type="curve"/>
      <point x="538.7" y="904"/>
      <point x="497.7" y="928"/>
      <point x="442.7" y="928" type="curve"/>
      <point x="387.7" y="928"/>
      <point x="349.7" y="901"/>
      <point x="349.7" y="852" type="curve"/>
      <point x="538.7" y="852"/>
      <point x="349.7" y="852"/>
      <point x="538.7" y="852" type="curve"/>
      <point x="538.7" y="799"/>
      <point x="497.7" y="777"/>
      <point x="441.7" y="777" type="curve"/>
      <point x="386.7" y="777"/>
      <point x="349.7" y="802"/>
      <point x="349.7" y="852" type="curve"/>
    </contour>
  </outline>
</glyph>
<glyph name="Igrave" format="1">
  <advance width="319"/>
  <unicode hex="00CC"/>
  <outline>
    <contour>
      <point x="242" y="0"/>
      <point x="81" y="0"/>
      <point x="242" y="0" type="curve"/>
      <point x="242" y="241"/>
      <point x="242" y="481"/>
      <point x="242" y="722" type="curve"/>
      <point x="81" y="722"/>
      <point x="242" y="722"/>
      <point x="81" y="722" type="curve"/>
      <point x="81" y="481"/>
      <point x="81" y="241"/>
      <point x="81" y="0" type="curve"/>
    </contour>
    <contour>
      <point x="255" y="779" type="line"/>
      <point x="107" y="945" type="line"/>
      <point x="-102" y="945" type="line"/>
      <point x="92" y="779" type="line"/>
    </contour>
  </outline>
</glyph>
<glyph name="Iacute" format="1">
  <advance width="328"/>
  <unicode hex="00CD"/>
  <outline>
    <contour>
      <point x="240" y="0"/>
      <point x="79" y="0"/>
      <point x="240" y="0" type="curve"/>
      <point x="240" y="241"/>
      <point x="240" y="481"/>
      <point x="240" y="722" type="curve"/>
      <point x="79" y="722"/>
      <point x="240" y="722"/>
      <point x="79" y="722" type="curve"/>
      <point x="79" y="481"/>
      <point x="79" y="241"/>
      <point x="79" y="0" type="curve"/>
    </contour>
    <contour>
      <point x="223" y="779" type="line"/>
      <point x="417" y="945" type="line"/>
      <point x="208" y="945" type="line"/>
      <point x="64" y="779" type="line"/>
    </contour>
  </outline>
</glyph>
<glyph name="Icircumflex" format="1">
  <advance width="356.0"/>
  <unicode hex="00CE"/>
  <outline>
    <contour>
      <point x="262" y="0"/>
      <point x="101" y="0"/>
      <point x="262" y="0" type="curve"/>
      <point x="262" y="241"/>
      <point x="262" y="481"/>
      <point x="262" y="722" type="curve"/>
      <point x="101" y="722"/>
      <point x="262" y="722"/>
      <point x="101" y="722" type="curve"/>
      <point x="101" y="481"/>
      <point x="101" y="241"/>
      <point x="101" y="0" type="curve"/>
    </contour>
    <contour>
      <point x="66" y="781" type="line"/>
      <point x="260" y="947" type="line"/>
      <point x="51" y="947" type="line"/>
      <point x="-93" y="781" type="line"/>
    </contour>
    <contour>
      <point x="457" y="781" type="line"/>
      <point x="309" y="947" type="line"/>
      <point x="100" y="947" type="line"/>
      <point x="294" y="781" type="line"/>
    </contour>
  </outline>
</glyph>
<glyph name="Idieresis" format="1">
  <advance width="349.0"/>
  <unicode hex="00CF"/>
  <outline>
    <contour>
      <point x="259" y="0"/>
      <point x="98" y="0"/>
      <point x="259" y="0" type="curve"/>
      <point x="259" y="241"/>
      <point x="259" y="481"/>
      <point x="259" y="722" type="curve"/>
      <point x="98" y="722"/>
      <point x="259" y="722"/>
      <point x="98" y="722" type="curve"/>
      <point x="98" y="481"/>
      <point x="98" y="241"/>
      <point x="98" y="0" type="curve"/>
    </contour>
    <contour>
      <point x="152" y="852"/>
      <point x="-37" y="852"/>
      <point x="152" y="852" type="curve"/>
      <point x="152" y="904"/>
      <point x="111" y="928"/>
      <point x="56" y="928" type="curve"/>
      <point x="1" y="928"/>
      <point x="-37" y="901"/>
      <point x="-37" y="852" type="curve"/>
      <point x="152" y="852"/>
      <point x="-37" y="852"/>
      <point x="152" y="852" type="curve"/>
      <point x="152" y="799"/>
      <point x="111" y="777"/>
      <point x="55" y="777" type="curve"/>
      <point x="0" y="777"/>
      <point x="-37" y="802"/>
      <point x="-37" y="852" type="curve"/>
    </contour>
    <contour>
      <point x="393" y="852"/>
      <point x="204" y="852"/>
      <point x="393" y="852" type="curve"/>
      <point x="393" y="904"/>
      <point x="352" y="928"/>
      <point x="297" y="928" type="curve"/>
      <point x="242" y="928"/>
      <point x="204" y="901"/>
      <point x="204" y="852" type="curve"/>
      <point x="393" y="852"/>
      <point x="204" y="852"/>
      <point x="393" y="852" type="curve"/>
      <point x="393" y="799"/>
      <point x="352" y="777"/>
      <point x="296" y="777" type="curve"/>
      <point x="241" y="777"/>
      <point x="204" y="802"/>
      <point x="204" y="852" type="curve"/>
    </contour>
  </outline>
</glyph>
<glyph name="Eth" format="1">
  <advance width="955.397495657"/>
  <unicode hex="00D0"/>
  <outline>
    <contour>
      <point x="102.397495657" y="722"/>
      <point x="262.397495657" y="722"/>
      <point x="102.397495657" y="722" type="curve"/>
      <point x="102.397495657" y="481"/>
      <point x="102.397495657" y="241"/>
      <point x="102.397495657" y="0" type="curve"/>
      <point x="262.397495657" y="0"/>
      <point x="102.397495657" y="0"/>
      <point x="262.397495657" y="0" type="curve"/>
      <point x="262.397495657" y="241"/>
      <point x="262.397495657" y="481"/>
      <point x="262.397495657" y="722" type="curve"/>
    </contour>
    <contour>
      <point x="185.397495657" y="0"/>
      <point x="185.397495657" y="117"/>
      <point x="185.397495657" y="0" type="curve"/>
      <point x="269.397495657" y="0"/>
      <point x="354.397495657" y="0"/>
      <point x="439.397495657" y="0" type="curve"/>
      <point x="727.397495657" y="0"/>
      <point x="919.397495657" y="92"/>
      <point x="919.397495657" y="354" type="curve"/>
      <point x="919.397495657" y="624"/>
      <point x="725.397495657" y="722"/>
      <point x="431.397495657" y="722" type="curve"/>
      <point x="349.397495657" y="722"/>
      <point x="267.397495657" y="722"/>
      <point x="185.397495657" y="722" type="curve"/>
      <point x="185.397495657" y="605"/>
      <point x="185.397495657" y="722"/>
      <point x="185.397495657" y="605" type="curve"/>
      <point x="264.397495657" y="605"/>
      <point x="344.397495657" y="605"/>
      <point x="423.397495657" y="605" type="curve"/>
      <point x="626.397495657" y="605"/>
      <point x="760.397495657" y="535"/>
      <point x="760.397495657" y="349" type="curve"/>
      <point x="760.397495657" y="180"/>
      <point x="636.397495657" y="117"/>
      <point x="451.397495657" y="117" type="curve"/>
      <point x="362.397495657" y="117"/>
      <point x="274.397495657" y="117"/>
      <point x="185.397495657" y="117" type="curve"/>
    </contour>
    <contour>
      <point x="26.3974956572" y="303"/>
      <point x="26.3974956572" y="432"/>
      <point x="26.3974956572" y="303" type="curve"/>
      <point x="178.397495657" y="303"/>
      <point x="330.397495657" y="303"/>
      <point x="482.397495657" y="303" type="curve"/>
      <point x="482.397495657" y="432"/>
      <point x="482.397495657" y="303"/>
      <point x="482.397495657" y="432" type="curve"/>
      <point x="330.397495657" y="432"/>
      <point x="178.397495657" y="432"/>
      <point x="26.3974956572" y="432" type="curve"/>
    </contour>
  </outline>
</glyph>
<glyph name="Ntilde" format="1">
  <advance width="1014.0"/>
  <unicode hex="00D1"/>
  <outline>
    <contour>
      <point x="946.0" y="0"/>
      <point x="749.0" y="0"/>
      <point x="946.0" y="0" type="curve"/>
      <point x="716.0" y="239"/>
      <point x="491.0" y="483"/>
      <point x="261.0" y="722" type="curve"/>
      <point x="64.0" y="722"/>
      <point x="261.0" y="722"/>
      <point x="64.0" y="722" type="curve"/>
      <point x="293.0" y="483"/>
      <point x="519.0" y="239"/>
      <point x="749.0" y="0" type="curve"/>
    </contour>
    <contour>
      <point x="791.0" y="722"/>
      <point x="951.0" y="722"/>
      <point x="791.0" y="722" type="curve"/>
      <point x="791.0" y="481"/>
      <point x="791.0" y="241"/>
      <point x="791.0" y="0" type="curve"/>
      <point x="951.0" y="0"/>
      <point x="791.0" y="0"/>
      <point x="951.0" y="0" type="curve"/>
      <point x="951.0" y="241"/>
      <point x="951.0" y="481"/>
      <point x="951.0" y="722" type="curve"/>
    </contour>
    <contour>
      <point x="224.0" y="0"/>
      <point x="64.0" y="0"/>
      <point x="224.0" y="0" type="curve"/>
      <point x="224.0" y="241"/>
      <point x="224.0" y="481"/>
      <point x="224.0" y="722" type="curve"/>
      <point x="64.0" y="722"/>
      <point x="224.0" y="722"/>
      <point x="64.0" y="722" type="curve"/>
      <point x="64.0" y="481"/>
      <point x="64.0" y="241"/>
      <point x="64.0" y="0" type="curve"/>
    </contour>
    <contour>
      <point x="679.0" y="958"/>
      <point x="802.0" y="904"/>
      <point x="678.0" y="959" type="curve"/>
      <point x="667.0" y="923"/>
      <point x="646.0" y="887"/>
      <point x="615.0" y="887" type="curve"/>
      <point x="579.0" y="887"/>
      <point x="558.0" y="897"/>
      <point x="529.0" y="919" type="curve"/>
      <point x="483.0" y="954"/>
      <point x="446.0" y="968"/>
      <point x="389.0" y="968" type="curve"/>
      <point x="298.0" y="968"/>
      <point x="242.0" y="921"/>
      <point x="203.0" y="828" type="curve"/>
      <point x="322.0" y="772"/>
      <point x="205.0" y="827"/>
      <point x="323.0" y="772" type="curve"/>
      <point x="341.0" y="817"/>
      <point x="362.0" y="845"/>
      <point x="392.0" y="845" type="curve"/>
      <point x="427.0" y="845"/>
      <point x="446.0" y="831"/>
      <point x="473.0" y="812" type="curve" smooth="yes"/>
      <point x="524.0" y="775"/>
      <point x="558.0" y="765"/>
      <point x="617.0" y="765" type="curve"/>
      <point x="713.0" y="765"/>
      <point x="770.0" y="815"/>
      <point x="803.0" y="905" type="curve"/>
    </contour>
  </outline>
</glyph>
